<svg xmlns="http://www.w3.org/2000/svg" viewBox="0 0 1506.03 62.94"><defs><style>.cls-1{fill:#46251a;}</style></defs><g id="Layer_2" data-name="Layer 2"><g id="Layer_1-2" data-name="Layer 1"><path class="cls-1" d="M376.4,11.4c0,.42.08.84.08,1.26v27a11.57,11.57,0,0,1-.07,1.51l-2.39.9c-4.8,1.85-9.11,4.78-13.35,7.89-3.62,2.64-7.25,5.29-11,7.7a29.38,29.38,0,0,1-10.46,4.19,22.4,22.4,0,0,1-13.38-1.71,50.85,50.85,0,0,1-11-6.9c-2.89-2.28-5.76-4.6-8.71-6.78a36.24,36.24,0,0,0-9.05-4.91,23.76,23.76,0,0,0-17.68.51A63.5,63.5,0,0,0,265.85,50c-3,2.19-5.93,4.52-9,6.57a59.83,59.83,0,0,1-7.72,4.37,18.69,18.69,0,0,1-15.91,0c-4.58-2-8.69-5-12.77-8-3.43-2.55-6.83-5.14-10.34-7.53a30.19,30.19,0,0,0-10.5-4.6,23.71,23.71,0,0,0-14.78,1.63,58.85,58.85,0,0,0-11.39,6.8c-3.49,2.61-6.93,5.2-10.49,7.61a34,34,0,0,1-10,4.64,22.92,22.92,0,0,1-16.83-2,56,56,0,0,1-9.53-6.24c-2.84-2.26-5.67-4.53-8.58-6.69a36.5,36.5,0,0,0-9-4.93A23.66,23.66,0,0,0,91.33,42a63.15,63.15,0,0,0-13.68,8c-3,2.16-5.85,4.45-8.88,6.47a63.2,63.2,0,0,1-7.6,4.31,18.74,18.74,0,0,1-16.34,0,63.64,63.64,0,0,1-12.62-8c-4-3-7.84-6.22-12.15-8.6a31.32,31.32,0,0,0-9.33-3.58,23.22,23.22,0,0,0-9.5.23C.82,41,.41,41,0,41.08V11.4Z"/><path class="cls-1" d="M753,11.4c0,.42.07.84.07,1.26v27a11.57,11.57,0,0,1-.07,1.51l-2.38.9c-4.8,1.85-9.11,4.78-13.36,7.89-3.61,2.64-7.24,5.29-11,7.7a29.33,29.33,0,0,1-10.45,4.19,22.43,22.43,0,0,1-13.39-1.71,50.85,50.85,0,0,1-11-6.9c-2.89-2.28-5.76-4.6-8.71-6.78a36.24,36.24,0,0,0-9-4.91,23.76,23.76,0,0,0-17.68.51A63.5,63.5,0,0,0,642.39,50c-3,2.19-5.94,4.52-9,6.57a59.83,59.83,0,0,1-7.72,4.37,18.69,18.69,0,0,1-15.91,0c-4.58-2-8.69-5-12.78-8-3.42-2.55-6.83-5.14-10.33-7.53a30.19,30.19,0,0,0-10.5-4.56,23.64,23.64,0,0,0-14.78,1.63A58.67,58.67,0,0,0,550,49.26c-3.48,2.55-7,5.14-10.51,7.56a34.26,34.26,0,0,1-10,4.64,23,23,0,0,1-16.84-2,55.56,55.56,0,0,1-9.52-6.24c-2.85-2.26-5.68-4.53-8.58-6.69a37.36,37.36,0,0,0-9-4.93,23.64,23.64,0,0,0-17.69.44,63.08,63.08,0,0,0-13.67,8c-3,2.16-5.85,4.45-8.88,6.47a62.75,62.75,0,0,1-7.57,4.3,18.74,18.74,0,0,1-16.34,0,63.64,63.64,0,0,1-12.62-8c-4-3-7.84-6.22-12.15-8.6a31.32,31.32,0,0,0-9.33-3.58,23.22,23.22,0,0,0-9.5.23c-.41.09-.82.15-1.24.22V11.4Z"/><path class="cls-1" d="M1129.43,11.57c0,.42.08.84.08,1.26v27a11.2,11.2,0,0,1-.07,1.51l-2.39.9c-4.8,1.85-9.11,4.78-13.35,7.89-3.62,2.64-7.25,5.29-11,7.7A29.38,29.38,0,0,1,1092.24,62a22.4,22.4,0,0,1-13.38-1.71,50.85,50.85,0,0,1-11-6.9c-2.89-2.28-5.76-4.6-8.71-6.78a36.24,36.24,0,0,0-9.05-4.91,23.76,23.76,0,0,0-17.68.51A63.6,63.6,0,0,0,1019,50.17c-3,2.19-5.94,4.52-9,6.57a59.83,59.83,0,0,1-7.72,4.37,18.6,18.6,0,0,1-15.9,0c-4.59-2-8.7-5-12.78-8-3.42-2.56-6.83-5.15-10.34-7.53A30.14,30.14,0,0,0,952.72,41a23.73,23.73,0,0,0-14.79,1.62,59.33,59.33,0,0,0-11.38,6.81c-3.49,2.55-7,5.14-10.51,7.56a34,34,0,0,1-10,4.64,22.92,22.92,0,0,1-16.83-2,55.7,55.7,0,0,1-9.53-6.25c-2.84-2.25-5.67-4.52-8.57-6.68a36.92,36.92,0,0,0-9.1-4.87,23.66,23.66,0,0,0-17.68.44,63.15,63.15,0,0,0-13.68,8c-3,2.16-5.85,4.45-8.88,6.47A61.57,61.57,0,0,1,814.2,61a18.77,18.77,0,0,1-16.34.05,63.57,63.57,0,0,1-12.61-8c-4-3-7.85-6.22-12.16-8.6a31.53,31.53,0,0,0-9.32-3.58,23.27,23.27,0,0,0-9.51.23c-.41.09-.82.15-1.23.22V11.57Z"/><path class="cls-1" d="M1506,11.57c0,.42.08.84.08,1.26v27a9.81,9.81,0,0,1-.08,1.51l-2.38.9c-4.8,1.85-9.11,4.78-13.36,7.89-3.61,2.64-7.24,5.29-11,7.7A29.38,29.38,0,0,1,1468.75,62a22.4,22.4,0,0,1-13.38-1.71,50.85,50.85,0,0,1-11-6.9c-2.89-2.28-5.76-4.6-8.71-6.78a35.93,35.93,0,0,0-9-4.91,23.76,23.76,0,0,0-17.68.51,63.5,63.5,0,0,0-13.54,7.9c-3,2.19-5.93,4.52-9,6.57a59.83,59.83,0,0,1-7.72,4.37,18.62,18.62,0,0,1-15.91,0c-4.58-2-8.69-5-12.78-8-3.42-2.56-6.82-5.15-10.33-7.53a30.19,30.19,0,0,0-10.5-4.6,23.71,23.71,0,0,0-14.78,1.62A59.41,59.41,0,0,0,1303,49.37c-3.48,2.55-7,5.14-10.51,7.56a34,34,0,0,1-10,4.64,23,23,0,0,1-16.84-2,55.62,55.62,0,0,1-9.52-6.25c-2.85-2.25-5.68-4.52-8.58-6.68a37.36,37.36,0,0,0-9-4.93,23.66,23.66,0,0,0-17.68.44,63.15,63.15,0,0,0-13.68,8c-3,2.16-5.85,4.45-8.88,6.47a62.89,62.89,0,0,1-7.57,4.32,18.77,18.77,0,0,1-16.34.05,63.64,63.64,0,0,1-12.62-8c-4-3-7.84-6.22-12.15-8.6a31.32,31.32,0,0,0-9.33-3.58,23.22,23.22,0,0,0-9.5.23c-.41.09-.82.15-1.23.22V11.57Z"/><rect class="cls-1" x="0.01" width="1505.96" height="38.81"/></g></g></svg>