<svg xmlns="http://www.w3.org/2000/svg" viewBox="0 0 3469.31 1174"><defs><style>.cls-1{fill:#1d130a;}.cls-2{fill:#ebd5b0;}</style></defs><g id="Layer_2" data-name="Layer 2"><g id="Layer_1-2" data-name="Layer 1"><path class="cls-1" d="M2683.15,929.25c3.45,0,5.92-.59,6.12-4.68s-2.12-4.86-5.63-5.1c-10.91-.75-13.48-3.44-14.34-14.39-.14-1.82-.17-3.66-.17-5.49q0-41.24,0-82.47a81.36,81.36,0,0,1,.87-10.44c.68-5.09,3.74-8,8.78-8.81a41.13,41.13,0,0,1,6-.63c3.17,0,4.53-1.59,4.5-4.64s-1.38-5-4.8-5q-26.24,0-52.47,0c-3.31,0-4.91,1.59-5,4.83s1.43,4.67,4.79,4.91c12,.87,15.16,4.11,15.21,16.17q.18,45,0,90c0,10.76-3.1,15.93-14.84,16.08-3.44.05-5.39,1.38-5.16,5.07s2.32,4.68,5.7,4.63q5.55-.07,11.1-.07h.14l14.24,0,6.89,0h7C2675.77,929.18,2679.46,929.19,2683.15,929.25ZM1660.22,348.8c0,3.42,1.76,3.68,4.4,3.67,13.31-.06,26.63-.14,39.94,0,3.7.05,4.43-1.45,4.38-4.73-.17-9.65-.06-19.31-.06-29V304.27h-48.09a15.71,15.71,0,0,0-.48,2.59C1660.28,320.84,1660.36,334.82,1660.22,348.8ZM2845.05,929.25c3.38,0,4.88-1.73,5-4.87.1-2.9-1-4.89-4.3-4.8-7,.18-11.05-3.75-13.67-9.71-1.33-3-2.74-6.06-4-9.14-12.34-30.34-24.52-60.75-37-91-8.22-19.91-17.63-23.36-39.55-22.59-1.55,0-3.71,2.4-4.35,4.14-.87,2.4.36,4.5,3.38,4.94a43.06,43.06,0,0,1,5.34,1.25c8.29,2.36,10.1,5.76,6.8,13.59q-20.33,48.27-40.79,96.49c-3.17,7.51-7.84,12.69-16.83,12.1-3.3-.21-4.29,1.93-4.19,4.85s1.31,4.74,4.51,4.74h45c3.31,0,4.33-2.19,4.4-4.9s-1.07-4.73-4.38-4.78a105.71,105.71,0,0,1-11-.66c-5.25-.62-7.13-3.11-5.6-8.21,2.34-7.79,5.29-15.39,7.82-23.12.87-2.67,2.36-3.48,5.12-3.44,10.49.16,21,0,31.48.08,6.46,0,14.59-2,18.92,1.1,4.59,3.32,5.77,11.56,8.08,17.79,4.54,12.23,4.22,16.13-10.26,16.41-3.55.07-5.24,1.51-5,5.13s2.32,4.68,5.69,4.63c8-.12,16,0,24,0C2828.06,929.22,2836.56,929.18,2845.05,929.25ZM1901,569.69l-8.85-48.62-39.94,14.57c2,12.34,3.88,23.89,5.81,35.85Zm-855.52,491.15c1.5,0,3.11.33,4.46-.12,1.11-.37,2.64-1.63,2.7-2.57.28-4.6.13-9.23.13-13.93H581.16v16.62h464.33Zm194.32-28.54v-12.23c-2.86.64-5.42,1.7-8,1.72q-21.72.26-43.43,0c-3.38,0-6.74-1-10-1.58v11.87c8.52-3.68,17-1.3,25.57-1.85,0,15.17.07,29.64-.06,44.11,0,3.18-.81,6.36-1.24,9.49h13.16c-.59-2.78-1.47-5.32-1.59-7.89-.24-5.31-.07-10.64-.07-16v-30C1223.1,1031.14,1231.68,1028,1239.81,1032.3ZM678,807.7c2.69,9.13.19,16.43-7.91,21.57-3.23,2.06-2.21,4.33-.13,6a16.31,16.31,0,0,0,6.9,3.62,21.68,21.68,0,0,0,25.32-17.22c2.81-13.26-2.35-24.2-14.43-30.36a72,72,0,0,0-34.32-7.6c-27,.51-48.95,10.2-62.67,34.66-8,14.23-10.25,29.76-9.66,45.83,1.34,36.47,24.8,63.65,60,68.27,24.15,3.16,45.85-1.83,61.11-23.12,2.92-4.07,2.82-6.48-1.13-9.06-3.38-2.22-6-1.84-8.32,1.84-6,9.45-13.83,16.65-25.31,18.78-19.27,3.58-34.78-2.78-46.58-18.18-8.46-11-12.37-23.9-13.24-37.62-1.21-18.95.8-37.4,11.64-53.68,9.22-13.84,22.54-19.76,39.06-18.3C668.2,794,675.6,799.61,678,807.7ZM1967.49,1083a96.4,96.4,0,0,0,27.19.42c12.29-1.67,17.3-8.65,17.42-21.12.1-10.5-.08-21,.09-31.49,0-2.89.9-5.76,1.39-8.66h-13.07c.5,2.91,1.34,5.65,1.38,8.4.16,10.49.09,21,0,31.49,0,7.54-2.68,11.63-10,12.66a74.36,74.36,0,0,1-19.77.09c-7.38-1-10.06-5-10.08-12.49,0-10.66-.1-21.33.05-32,0-2.72.87-5.42,1.34-8.17h-13.09c.5,2.91,1.35,5.64,1.39,8.38.19,11.16,0,22.33.2,33.49C1952.24,1074.69,1957,1081.34,1967.49,1083ZM1737.1,797.36c9.44.4,12.77,3.7,13.66,13,.19,2,.21,4,.21,6q0,42.24,0,84.47a68,68,0,0,1-.82,9.43c-.76,5.34-4.09,8.15-9.34,8.81-2,.25-4.22-.08-5.89.74s-3.47,2.63-3.67,4.21c-.52,4.07,2.08,5.26,6,5.22,15.65-.15,31.31,0,47-.17,3.48,0,8.28,2,9-4.1.74-6.63-4.51-5.2-8.15-5.68-6.41-.84-10.49-3.33-10.65-8.56-.44-14.58-.16-29.17-.16-43.84,11.41-2.23,17.16.11,23.28,9.81,2.84,4.5,5.43,9.18,8.43,13.56,5.83,8.51,11.46,17.2,17.94,25.19a35.14,35.14,0,0,0,29.33,13.5c3.82-.09,7.66,0,11.49.27,3.3.2,5.59-.66,5.85-4.4.24-3.58-1.76-4.47-5-5.46-5-1.52-10.63-3.13-14.13-6.59-14.92-14.71-25.22-32.87-36.43-50.72,4.59-1.88,8.58-3.17,12.23-5.1a56.68,56.68,0,0,0,10.38-6.85c19.73-16.89,16.65-43.07-6.37-55.13-10.48-5.49-21.83-6.8-33.41-6.91-20.15-.2-40.31-.25-60.46-.47-3.45,0-6,.63-6.28,4.59C1730.75,796.61,1733.44,797.21,1737.1,797.36Zm-365.88-12.29c2,1.54,4,3,6,4.47,8.69,6.34,9.17,15.5.74,22.36-3.42,2.78-7.86,4.28-11.5,6.85-1.52,1.07-2.16,3.39-3.2,5.15,2,.69,4.48,2.53,5.79,1.89,8-3.89,16.16-7.73,23.43-12.79,6.29-4.38,8.6-11.61,8.7-20.55a28.54,28.54,0,0,0-10.27-21.2,17.3,17.3,0,0,0-13.84-4.42c-4.63.54-7.52,3.41-9,7.59S1367.68,782.28,1371.22,785.07ZM2058,1031.26a35.61,35.61,0,0,1,27.19,2.16c2.65,1.32,4.72,3.79,7.58,6.18l6.55-11.59c-3.81-1.21-7.07-2.17-10.27-3.28-13.75-4.78-27.49-5.54-40.69,1.33-20.77,10.81-22.33,39.16-2.61,51.81,15.51,9.94,31.74,9.43,47.72.33,2.47-1.41,5-2.72,7.9-4.29l-7.45-10.2c-3.59,3.39-6.28,6.93-9.81,9.07-10.1,6.11-24.28,4.42-33.59-3.45-6.46-5.47-9.58-12.37-8.06-20.82C2044,1039.66,2049.59,1033.88,2058,1031.26Zm-926.81-230.2q0,50.22,0,100.45a58.4,58.4,0,0,1-.4,7.48c-.87,6.35-4,9.35-10.37,10.18a43.7,43.7,0,0,1-5,.45c-3.09,0-4.07,2-4,4.59s.94,5,4.26,5c17.82,0,35.64.12,53.46-.17,1.47,0,3.8-2.55,4.16-4.24.9-4.2-1.94-5.12-5.68-5.36-10.47-.68-12.93-3.32-13.67-13.82-.17-2.49-.31-5-.31-7.49q0-47.46,0-94.94v-6.3c6,0,11.29-.2,16.57,0,9,.4,14.13,4.39,16.64,13.11,1.37,4.78,2.12,9.74,3.23,14.61,1,4.47,4.67,4.84,8.22,4.75s5.37-2.08,5.25-5.85q-.45-14.24-.66-28.48c-.07-4.73-2.2-7-7-7-35.64,0-71.29,0-106.94.06-5.27,0-6.79,1.74-6.93,6.94-.24,9-.38,18-.69,27-.14,3.94.55,7,5.25,7.44,4.94.42,7.68-1.87,8.64-6.71a130.1,130.1,0,0,1,3.51-14.52c1.58-5,4.7-9.34,10.06-10.16,7.25-1.12,14.68-1.17,22.14-1.68C1131.05,798.77,1131.18,799.91,1131.18,801.06Zm1178.89,75.05c8.9,46.48,58.63,70.62,100.68,49,29.49-15.18,44.66-46.84,39.29-82-6.28-41.12-47.59-68.12-87.53-57-28.76,8-53.89,34.32-54.47,73.21C2308.69,864.9,2309,870.57,2310.07,876.11Zm168.52-78.76c10.49.48,13.83,4,14.34,14.42.08,1.67.11,3.33.11,5,0,27.82,0,55.64,0,83.45a67.66,67.66,0,0,1-1,10.91c-.74,4.42-3.73,6.94-8.05,7.78a40,40,0,0,1-6.45.67c-3.22.1-4.5,1.9-4.39,4.81.11,3.09,1.59,4.87,5,4.86q26.23-.09,52.46,0c3.15,0,4.46-1.65,4.65-4.62.26-4.06-2-4.92-5.57-5.15-8.92-.57-13.14-3-13.34-9.09-.5-14.42-.16-28.86-.16-43.63,10.54-1.56,19,.8,24.22,11.15a135.65,135.65,0,0,0,10.77,17.4A277.91,277.91,0,0,0,2569,918.61c5.68,6.42,13.47,9.67,22.14,10.19,5.15.31,10.33.18,15.48.44,3.3.16,5.64-.67,5.93-4.36.28-3.54-1.51-5-5-5.37-6.75-.7-12.63-3.57-16.59-9.11-11.31-15.82-22.35-31.83-33.46-47.79-.08-.11,0-.31,0-.52s.09-.27.12-.38c12.62-4.74,18.84-8.14,24.24-13.6.77-.78,1.53-1.6,2.28-2.47,13.42-15.52,10.52-36.66-6.58-48.06-7.5-5-15.82-8.25-24.73-8.53-25-.8-49.94-1-74.91-1.45-3.4-.06-4.83,1.9-4.9,5C2473,796.26,2475.19,797.2,2478.59,797.35ZM1690.45,615.77a7.65,7.65,0,0,0,4.6,1.26c16.32.09,32.65.11,49,0,1.57,0,3.8-.82,4.57-2,6.5-10,9.54-20.76,3.7-32a88.13,88.13,0,0,0-11.23-16.41c-10.75-12.61-21-25.41-24.33-43.31-1.73,2.39-3,3.88-4,5.52-9,14.86-10.73,30.86-7.31,47.64,1,4.81,1.92,9.64,3,15.32l-32.23-11.41C1675.18,595.21,1679.83,606.74,1690.45,615.77Zm-131.07,441.66a8.12,8.12,0,0,1,5.43,3c4,5.74,7.63,11.73,11.12,17.78.88,1.52.75,3.62,1.08,5.47h14.31l-17.54-26.61c1.38-.5,2-.76,2.59-.92,10.34-2.7,14.4-8.42,13.75-19.38-.48-8.2-5.71-14-15.58-14.46-15.24-.73-30.54-.19-45.12-.19.51,2.84,1.4,5.57,1.42,8.31q.21,22.72,0,45.48c0,2.58-1,5.14-1.54,7.85h13.53c-3.37-8.8-1-17.56-1.78-26.52C1547.76,1057.28,1553.59,1057,1559.38,1057.43Zm-248.89-259.8c6.68.88,7.83,2.68,4.92,8.93-3.79,8.15-8,16.1-12,24.13-4.25,8.42-8.54,16.83-13.46,26.52-7.44-15-14.7-28.47-21-42.41-9.52-21.25-26.51-28.63-48.44-27.77-2.78.11-5.34.46-5.72,4.14s1.51,5.14,4.75,5.63c11.55,1.74,19.19,8.55,24.3,18.68,7.2,14.26,14,28.75,21.74,42.71,9.41,16.95,6.46,34.87,5.35,52.68-.28,4.65-3.74,7.27-8.3,8.08a42.71,42.71,0,0,1-6,.63c-3.41.08-4.82,1.9-4.61,5.1.19,2.9,1.64,4.57,4.78,4.56q26.25,0,52.49,0c3.45,0,4.71-1.8,4.84-5,.16-3.85-2.06-4.58-5.37-4.81-11-.78-13.44-3-14.24-13.86a159.94,159.94,0,0,1-.16-24.47c.49-6,1.65-12.35,4.27-17.69,8.19-16.74,17.36-33,25.84-49.6,5.31-10.4,12.93-16.78,25-16.57,3.52.06,4.72-1.78,4.59-5s-1.85-4.71-5.12-4.69q-22.24.06-44.48,0c-3.44,0-4.79,1.76-4.88,4.93s1.41,4.91,4.83,4.78A36.23,36.23,0,0,1,1310.49,797.63Zm-6.59,232.57c2.73,0,5.45,1,8.33,1.58v-11.51c-2.77.58-5.21,1.51-7.65,1.53-14.16.15-28.32.06-42.49.09-1.54,0-3.07.2-3.82.25.6,2.71,1.51,4.94,1.53,7.19q.2,22.74,0,45.48c0,3-1,6.06-1.51,9.32,15.47,0,31.46-.08,47.44.07,3.09,0,6.18.93,9.15,1.41v-10.68c-15.05,2-29.8.45-44.49,1v-19.87c9.81,1.48,19.54-1.77,29.06,2.25v-11.87c-9.72,3.15-19.38.81-29,1.65v-17.95C1281.92,1030.13,1292.92,1030,1303.9,1030.2Zm886.95-355.71c34.25,35.65,77.24,49.82,125.44,49.45,34.33-.26,61.57-15.27,80.33-44.43,5.41-8.4,12.71-14.06,22.33-15.3a210,210,0,0,1,33.8-1.81q71.43,2.4,142.83,5.76c22.29,1,44.74,1.56,66.76,4.74,33.08,4.76,65.87,11.61,98.76,17.66,17.85,3.29,35.6,7,54,4.56,20.07-2.65,32.22-13,34.47-31.52a107.49,107.49,0,0,0,0-23.92c-1.59-15.24-10.57-24.65-25.11-29a79.57,79.57,0,0,0-35.15-2.12c-20.06,3.09-39.94,7.3-59.93,10.81-24.42,4.29-48.74,10-73.35,12.1-41.15,3.46-82.49,4.58-123.76,6.53q-34.71,1.63-69.42,2.74c-12.3.39-24.66.78-36.92,0-11.67-.72-21.93-5.12-28.64-15.71-20.06-31.66-49.61-45.55-93.37-45.73-7,1.14-20.9,2.66-34.47,5.77-31.09,7.11-58.23,21.59-79.87,45.51-11.61,12.83-11.65,29.67-.05,42.43C2189.92,673.54,2190.39,674,2190.85,674.49ZM988.07,909.24c-2.22-8.18-1.11-15.25,8.17-20.31-2.64-2.21-4.41-4.55-6.74-5.5-10.74-4.39-23.74,4-24.5,15.59-.82,12.55,3.9,22.76,15.55,27.69,22.66,9.59,45.39,9.69,67-3.35,8.39-5.05,14.31-12.42,16.61-22.22,3.89-16.59-3.28-33.64-19-43.15-9.23-5.57-19.25-9.81-28.77-14.93-6.86-3.7-14-7.22-20.08-11.95-9.16-7.1-10.14-20.28-3.1-29,8.37-10.42,30.13-12.21,40.07-3.31,7.62,6.83,6.45,18-2.4,22.93-1,.55-2,1.15-4.17,2.47,2.79,2.16,4.73,4.54,7.21,5.43,9.48,3.43,20.6-2.69,23.35-12.44,2.85-10.12-1.54-20.84-11.72-26.09-20-10.31-40.37-10-60.47-.24-8.69,4.24-14,11.54-16.18,21.06-4.2,18.46,2.33,34.28,19,43.72,10,5.65,20.67,10,30.77,15.43,6.1,3.28,12.36,6.8,17.33,11.51,10.7,10.16,9.09,26.39-2.86,35.17-8.61,6.34-18.35,7.26-28.58,5.45C996.33,921.71,990.35,917.65,988.07,909.24Zm1335.32,175c2.76,0,5.52,1,8.52,1.54v-10.81c-14.93,2-29.81.4-44.55,1v-19.72c9.85,1.23,19.55-2,28.81,2.19v-12.1c-9.75,3.35-19.38,1-28.81,1.68v-17.85c11.33,0,22.29-.1,33.25.07,2.79,0,5.58.93,8.58,1.47v-11.42c-2.93.58-5.54,1.52-8.17,1.55-13,.16-26,.07-39,.07h-7c.65,3,1.6,5.43,1.62,7.83q.2,23.23,0,46.46c0,2.57-1,5.13-1.66,8C2290.82,1084.13,2307.11,1084.06,2323.39,1084.2ZM1884,924.37c.1,2.85,1.26,4.84,4.46,4.84,15,0,30,.15,45-.2,1.56,0,3.87-2.77,4.38-4.64.7-2.62-.82-4.73-4.14-4.81a112.46,112.46,0,0,1-11.46-.73c-4.77-.61-6.65-3-5.28-7.57,2.49-8.43,5.48-16.72,8.56-25,.38-1,2.5-2,3.82-2,16.15-.13,32.31-.15,48.46,0a5.32,5.32,0,0,1,4,2.51c2.62,5.74,5,11.59,7.14,17.55,4.21,12,2.76,14.17-10.12,15.07-3.44.24-6,1-5.73,5.05.21,3.9,2.53,4.86,6.09,4.78,8-.16,16,0,24,0v0c8.32,0,16.65-.05,25,0,3.31,0,5.39-1.52,4.91-4.7-.27-1.77-2.26-4.71-3.45-4.7-8.58.08-12.48-5.31-15.31-12.12-4.79-11.52-9.47-23.08-14.19-34.63-9.11-22.32-17.86-44.8-27.47-66.9-6.81-15.67-22.47-23-38.73-19-1.52.37-3.43,2.85-3.49,4.41s1.83,3.43,3.34,4.45,3.51.88,5.27,1.37c8.45,2.38,10.2,5.82,6.75,14-13.43,31.88-27,63.69-40.42,95.57-3.22,7.65-7.68,13.23-17,12.64C1885.1,919.42,1883.88,921.41,1884,924.37Zm-380.4,107.33v-11.5c-3,.6-5.76,1.55-8.5,1.6-9.82.19-19.65.07-29.48.07h-16.23c.6,3,1.51,5.38,1.53,7.8q.19,23.24,0,46.47c0,2.57-.9,5.14-1.44,8,15.34,0,31.14-.08,47,.06,3.24,0,6.47.91,9.76,1.4v-10.66c-14.93,2-29.74.35-44.63,1v-19.74c9.91,1.14,19.66-1.91,29.12,2.15V1047c-9.87,2-19.59.71-29.12.94v-17.78c11,0,21.67-.12,32.31.07C1497.1,1030.26,1500.32,1031.17,1503.59,1031.7Zm118.32-562.43,28.2-19.36-16.52-38.2-42.33,28.71ZM899.06,811c.33,31.15.42,62.32.1,93.47-.12,11.65-2.83,13.9-14.68,15-3.48.33-5.38,1.63-5.18,5.15s2.29,4.69,5.74,4.62c5.89-.12,11.79-.1,17.68-.07l7.32,0,6.73,0c6.58,0,13.17.06,19.75-.17a6.37,6.37,0,0,0,4.7-3.11c.64-1.41.11-4.43-1-5.32-1.48-1.15-4-1-6.16-1.25-8.49-.91-11.59-3.79-12-12.3-.44-9-.54-18-.52-27,0-23,0-46,.47-69,.23-10.59,3.34-13.21,14.16-13.82,3.66-.2,5.81-1.34,5.56-5.21-.24-3.56-2.46-4.55-5.83-4.53q-25.25.17-50.49,0c-3.58,0-6,1-6.09,4.8s2.26,4.82,5.82,5C895.23,797.81,899,801,899.06,811Zm580.78,60.18c5.68,3,11.54,6.23,16.2,10.56,12.1,11.24,10,28.6-4.11,37.32-8.38,5.2-17.52,5.8-27,4-8.23-1.54-14.1-5.77-16.17-14.24-2-8-1-15,8.46-19.92-2.93-2.38-4.66-4.56-6.9-5.49C1440,879.17,1427.2,887,1425.92,898c-1.48,12.65,3.78,23.51,15.39,28.69a77.78,77.78,0,0,0,21.51,5.8c15.5,2,30.63.27,44.28-8.23,9.08-5.65,15.9-13.17,18.07-24,3.32-16.62-3.72-32.87-19.17-42.18-9.37-5.66-19.59-9.87-29.21-15.15-7.25-4-14.77-7.87-21-13.14-8.37-7-8.35-20.14-1.19-28.37,8.53-9.81,29.67-11.25,39.43-2.69,7.66,6.72,6.58,18-2.18,23-1.09.61-2.11,1.34-4.27,2.73,2.81,2.12,4.71,4.35,7.1,5.22,9.83,3.58,21.36-3.09,23.62-13.34s-2-20.07-11.87-25.17c-20.17-10.39-40.68-10.06-60.9-.06-8.14,4-13.25,10.94-15.56,19.82-4.81,18.51,1.78,35.1,18.69,44.71C1458.72,861.3,1469.56,865.73,1479.84,871.18ZM817.36,914.54c6.38,8.15,14.9,13.31,25.44,14.22,5.47.47,11,.22,16.48.48,3.43.16,5.53-1.06,5.73-4.62.19-3.29-1.79-4.21-4.75-5.18-5.09-1.69-11-3.23-14.56-6.8C830.93,898,820.65,880,809.35,861.9c2.44-.85,4.15-1.42,5.84-2,9.2-3.48,17.32-8.49,23.3-16.52,10.78-14.47,8.07-33.44-6.4-44.28a47.75,47.75,0,0,0-27.26-10c-24.8-.81-49.61-1-74.42-1.41-3.45-.07-4.75,1.84-4.84,5-.09,3.71,2,4.62,5.39,4.78,10.48.5,14,3.57,14.09,13.95.33,30.65.23,61.3.26,92a41.19,41.19,0,0,1-.5,6.47c-.86,5.49-4,8.52-9.5,9.34a42,42,0,0,1-5.47.54c-3.32,0-4.35,2-4.25,4.87s1.22,4.77,4.5,4.77q26.48,0,53,0c3.26,0,4.49-1.91,4.63-4.69.21-3.91-2.12-4.89-5.69-5.11-9.12-.56-13.14-2.93-13.41-9.62-.59-14.25-.18-28.55-.18-42.81,11.38-2.37,17.37,0,23.34,9.45,2.85,4.5,5.43,9.17,8.41,13.58C805.75,898.3,811.22,906.69,817.36,914.54Zm594.32,115.54q.22,21.93,0,43.86c0,3.34-.89,6.67-1.36,10h13.14c-.5-2.61-1.36-5-1.37-7.48q-.19-23.43,0-46.85c0-2.44.9-4.87,1.4-7.38h-13.41C1410.68,1025,1411.66,1027.52,1411.68,1030.08Zm-269.17,37.69c7.37,0,13.38,9.13,10.51,16h15.57c-1.68-2.29-3.53-4.18-4.64-6.42q-12-24.12-23.62-48.38c-.93-2-.94-4.34-1.46-6.91H1123.8c.1,2,.75,3.78.19,5.07-8.31,19-16.78,38-25.09,56.73h12c.17-2.29,0-4.25.53-6a22.66,22.66,0,0,1,2.92-6.84c1-1.45,3.05-3,4.68-3.08C1126.86,1067.6,1134.69,1067.77,1142.51,1067.77Zm387.61-497.91,43.25,1.82c2-12.21,3.86-23.8,5.81-35.89l-40.31-14.62C1535.9,537.72,1533.07,553.43,1530.12,569.86ZM1391.49,440.09c13.26,0,13.26,0,13.27,13.45V688.73H1444V453.62c0-1.67,0-3.34-.07-5-.9-12.22-9.89-20.95-22.13-21.55l-4.34-.24,298.09-270.16c99.64,90.32,198.85,180.22,298.68,270.71-18.19-1.28-28.17,8-28.17,25.24q0,115,0,230v6.13h39.17V682q0-114.22,0-228.46c0-2.81.37-5.63.6-8.44.31-3.76,2.07-5.15,6.11-5.11,20.5.23,41,.11,61.49.11h6.48L1715.54,91.72,1331.16,440.09h60.33ZM1002.62,665.2a35,35,0,0,1,15.38,3.53,182.78,182.78,0,0,1,24.78,15.72c10.64,8,22,14.6,35.38,14.7,21.61.17,43.3-.1,64.85-1.66,34.71-2.51,69.34-6.19,104-9.45,7.87-.74,15.7-1.77,23.55-2.66-.1-.46-.19-.92-.29-1.37h-6q-78,0-156-.09c-2.49,0-5.31.4-7.37-.62s-4.65-3.66-4.53-5.41c.18-2.4,2.47-4.85,4.34-6.82.82-.88,2.83-.77,4.32-.86,22.94-1.4,45.88-3.05,68.85-4.06,30.29-1.34,60.61-2.16,90.92-3.23,1.52-.06,3-.38,4.54-.58-13.39-1.55-26.66-2.09-39.94-2.35q-63.23-1.22-126.46-2.27a38,38,0,0,1-4-.27c-3.15-.41-4.6-2.25-4.59-5.44,0-4.57,1.7-5.81,8.26-6q74.22-1.54,148.45-3.14c6.42-.14,12.84-.62,19.26-.95a6.49,6.49,0,0,0-4-1.19c-27.32-1-54.64-1.69-81.94-2.91-26.29-1.17-52.57-2.74-78.84-4.41-7.34-.46-9.77-2.88-9.55-7.55.2-4.42,2.52-5.95,10.17-6q78.73-.13,157.48-.17h6.09c0-.52,0-1,0-1.58-9.33-1-18.65-2.25-28-3.09-40.48-3.63-80.95-7.49-121.47-10.52-14.56-1.09-29.31-.69-43.91.11-14.17.78-25.77,8.09-36.52,17-13.59,11.23-28.8,17.47-47,17.6-75.82.56-151.67,2.52-227.11-7.43-30.52-4-60.91-9.06-91.41-13.35-17.27-2.44-34.58-5-52-6.23-13.34-1-24.3,5-31.68,16.47-12.7,19.79-12.79,26.55.16,46.4,5.8,8.89,13.83,15.2,24.8,15.77,9.1.47,18.38.64,27.38-.55,16.16-2.14,32.12-5.66,48.23-8.15C751.1,673,811,664.57,871.65,664.55Q937.14,664.54,1002.62,665.2Zm1112,264c3.48,0,4.68-1.89,4.77-5,.12-4.28-2.71-4.53-6-4.77-10.22-.75-12.71-3.3-13.52-13.47-.25-3.15-.4-6.31-.4-9.47q0-46.49,0-93V797c6.39,0,12-.21,17.66,0,7.64.35,12.89,4.33,15.11,11.66a157.67,157.67,0,0,1,3.64,15.53c1,4.87,4.62,5.29,8.35,5.19,3.9-.11,5.34-2.55,5.19-6.41-.32-8.65-.36-17.32-.62-26-.24-8-1.23-8.94-9.09-8.94q-29.23,0-58.47,0c-15.16,0-30.32,0-45.48,0-6.13,0-7.67,1.5-7.82,7.06-.25,9-.42,18-.75,27-.15,4,.7,7,5.36,7.36s7.67-1.87,8.54-6.31c.92-4.73,1.82-9.48,3.18-14.09,1.48-5,4.3-9.73,9.54-10.7,7.52-1.4,15.28-1.45,23-2.08.17,2.21.29,3,.29,3.85q0,51.23,0,102.45a46,46,0,0,1-.73,7.94c-.89,5-4,7.86-9.09,8.52a42,42,0,0,1-5.47.53c-3.21,0-4.56,1.8-4.5,4.7s1.37,5,4.87,5Q2088.39,929.16,2114.63,929.24Zm-361-382.6a164.5,164.5,0,0,1,15.79,20.56c7.37,11.46,10.31,24.12,7.4,37.73-.85,4-2.09,7.84-3.16,11.83h62c-.79-19.94,0-39.73-2.64-59-7.65-55.3-53.57-96.31-110.62-100.53-53.24-3.93-104.42,32-120.55,84.14-7.63,24.67-4.14,49.89-5.26,75.43h65.4c-12.26-22-9.46-43.61-.93-65.77l20.28,7.13c1.1-17.13,5.71-32.53,15.63-46.12s24.11-21.81,39.21-29.82c.67,8.37,1.89,16,1.74,23.62C1737.56,521.69,1743.16,534.91,1753.62,546.64Zm442.1,250.61c6.25-.54,12.58-.11,19.47-.11.11,1.89.27,3.36.27,4.83q0,49.23,0,98.44a70.84,70.84,0,0,1-.57,9c-.74,5.77-3.9,8.86-9.68,9.7a45.67,45.67,0,0,1-5.46.54c-3.4.08-4.18,2.21-4.07,5s1.48,4.61,4.66,4.6c17.48,0,35,0,52.45,0,3.9,0,5.58-2.5,4.83-6.3s-3.69-3.2-6.26-3.42c-9.79-.87-12.78-4-13.27-13.79-.1-2-.18-4-.18-6q0-48.7,0-97.43c0-1.75.17-3.49.27-5.34,6,0,11.32-.22,16.63.05,8.49.41,13.56,4.36,16,12.53,1.34,4.44,2.2,9,3.12,13.6s3.71,6.79,8.44,6.37c4.53-.41,5.62-3.22,5.44-7.32-.4-8.82-.54-17.65-.81-26.47-.19-6.1-1.64-7.57-7.86-7.6-11-.06-22,0-33,0q-36,0-72,0c-6.4,0-8,1.48-8.13,7.34-.21,9.15-.25,18.32-.51,27.47-.1,3.72,1,6.19,5.06,6.57,4.51.44,7.65-1.73,8.53-5.65,1.19-5.35,2.21-10.76,3.88-16C2185,801.83,2189.36,797.81,2195.72,797.25Zm-419.9,259.17a69.15,69.15,0,0,1,8.83,1.46v-11.56c-9.8,3.3-19.43,1-29,1.73v-17.92c11.31,0,22.28-.11,33.24.07,2.92,0,5.82,1,8.67,1.48v-11.4c-2.81.58-5.22,1.51-7.65,1.53-15.62.13-31.25.06-46.33.06.52,3,1.35,5.59,1.37,8.19q.19,23,0,46c0,2.6-.83,5.19-1.34,8.12h4.42c14.82,0,29.64-.08,44.46.08,2.56,0,5.12,1.08,7.74,1.67v-12.82c-3.88,3-35.29,4.23-44.93,2,0-5.19-.18-10.51.16-15.78.07-1,2.14-2.73,3.36-2.79C1764.5,1056.19,1770.17,1056.19,1775.82,1056.42ZM1656.1,1084c-.25-.07.06.09.37.09,12.49,0,25,.1,37.49,0,16.49-.06,27.6-9.78,29.19-25.43,1.94-19-6.59-32.27-23.14-35.94a25.67,25.67,0,0,0-5.42-.77c-13-.07-26.09,0-38.56,0,.66,3,1.63,5.34,1.65,7.75q.21,23.49,0,47C1657.67,1078.93,1656.73,1081.18,1656.1,1084Zm48.83-259.14c1.06,4.51,4.8,4.67,8.31,4.53s5.17-2.35,5-6c-.35-8.82-.42-17.66-.76-26.48-.32-8-1.16-8.78-9.15-8.79h-80.49c-8,0-16,0-24,0-4.59,0-7.1,1.79-7.11,6.83,0,9-.37,18-.71,27-.14,3.88.36,7.09,5.09,7.58,4.94.51,7.93-1.8,8.86-6.54a131.71,131.71,0,0,1,3.22-14.08c2.34-7.43,7.57-11.62,15.5-11.87,5.49-.17,11,0,17.11,0,.09,1.62.2,2.75.2,3.88q0,50.49,0,101a55.71,55.71,0,0,1-.89,8.92c-.82,4.87-3.93,7.55-8.72,8.29a48.08,48.08,0,0,1-6,.59c-3.26.1-4.43,2-4.3,4.88s1.36,4.76,4.59,4.76q26.49,0,53,0c3.19,0,4.4-1.79,4.54-4.72.18-3.69-1.74-4.76-5.19-5-11.35-.86-13.23-2.82-14.46-14.2a54.49,54.49,0,0,1-.3-6q0-48.49,0-97c0-1.63.14-3.25.24-5.44,5.57,0,10.86-.18,16.13,0,9.33.39,14.45,4.35,17,13.32C1703,815,1703.78,820,1704.93,824.83Zm425.91,246.78c.84-3.15,2.72-4,5.85-3.9,8.32.2,16.65,0,25,.09,1.3,0,2.86,0,3.86.59,2.64,1.7,5.59,12.34,4.64,15.25h15.09c-1.65-2.32-3.46-4.26-4.6-6.55q-11.84-23.92-23.38-48c-1-2.06-1-4.59-1.48-7h-14.53c-.39,2.52-.28,4.84-1.11,6.75q-9.85,22.65-20,45.15c-1.51,3.36-3.46,6.51-5.28,9.91h12.84a57.69,57.69,0,0,1,.92-6.72C2129.11,1075.24,2130.33,1073.52,2130.84,1071.61ZM2232,1030c8.08,1.32,16.63-2.15,24.82,2.49v-12.24c-3.24.57-6.28,1.55-9.32,1.58q-21.49.26-43,0c-3,0-6.08-1-9.29-1.57v12.16c8.37-4.36,16.94-1.28,25.7-2.42,0,15.9.07,31-.07,46.14,0,2.58-1,5.16-1.43,7.59h14.19C2230.9,1080.2,2229.79,1038.29,2232,1030Zm-847.4,54.23c3.09,0,6.17,1,9.21,1.48v-12.21c-4.11,2.65-33.41,3.74-44.6,1.82a8.57,8.57,0,0,1-.36-1.8c0-15.33-.09-30.65,0-46,0-1.77,1.11-3.52,1.71-5.35H1337c.53,2.68,1.42,5.13,1.44,7.59q.21,22.49,0,45c0,3-.87,6.1-1.37,9.4C1352.66,1084.13,1368.64,1084.05,1384.62,1084.2Zm781-683.28q651.83-.12,1303.65-.07C3457.8,680.76,3380,943.57,3251.24,1174H218.07C89.29,943.57,11.51,680.76,0,400.85q632.72,0,1265.42.07a14.57,14.57,0,0,0,10.67-4Q1479.7,212.9,1683.47,29c10.61-9.58,21-19.35,31.57-29h1c1,1.09,1.9,2.26,3,3.25Q1937,200.07,2155,397A14.54,14.54,0,0,0,2165.66,400.92Zm684.17,659.56v-16.37H2378.9v16.37Zm-921.78,10.39c2-9-.26-14.35-8.51-20,6.89-3.72,8.12-9.3,6.83-16-1.33-6.92-5.73-10.78-12.35-12a66.58,66.58,0,0,0-11.9-.94c-12.24-.12-24.48,0-36.2,0,.54,3,1.36,5.44,1.38,7.9q.18,22.24,0,44.48c0,3.21-.79,6.42-1.25,9.88,11.14,0,22.62.06,34.1,0a95.48,95.48,0,0,0,13.43-.74C1920.87,1082.26,1926.37,1078.58,1928.05,1070.87ZM1910,688.77v-48.7H1521.16v48.7Zm-10.19-71.84V592.34l-42.16,1.79v22.8Zm-16.94-116.42a178,178,0,0,0-28.26-43.26L1825,485.14c6.52,10.11,12.68,19.68,19,29.48Zm-44-59.35a180.65,180.65,0,0,0-42-28.39l-15.93,36.9L1809.24,469Zm-68.32-89.06V304.42h-48V352.1Zm0-61.92V242.52h-48v47.66Zm-10.34,150.76c5.23-12.1,10.47-24.25,15.91-36.84-16-5.52-32-9-48.86-9.59v39.84Zm-51.56-150.73V242.37h-47.86v47.84Zm-4.44,144.15v-40c-17.22,1.09-33.37,4.08-49.23,9.91l16,36.83Zm-116.78,80.42,18.84-29.4-29.83-28.05a179.42,179.42,0,0,0-28.09,43.26Zm-13.56,102.08V594.23l-42.49-1.65v24.28Z"/><path class="cls-1" d="M2658.16,929.2h6.89l-6.89,0-14.24,0C2648.66,929.18,2653.41,929.21,2658.16,929.2Z"/><path class="cls-1" d="M2845.73,919.58c3.28-.09,4.4,1.9,4.3,4.8-.1,3.14-1.6,4.89-5,4.87-8.49-.07-17,0-25.48,0-8,0-16-.09-24,0-3.37,0-5.48-1-5.69-4.63s1.47-5.06,5-5.13c14.48-.28,14.8-4.18,10.26-16.41-2.31-6.23-3.49-14.47-8.08-17.79-4.33-3.12-12.46-1-18.92-1.1-10.49-.07-21,.08-31.48-.08-2.76,0-4.25.77-5.12,3.44-2.53,7.73-5.48,15.33-7.82,23.12-1.53,5.1.35,7.59,5.6,8.21a105.71,105.71,0,0,0,11,.66c3.31.05,4.45,2,4.38,4.78s-1.09,4.9-4.4,4.9h-45c-3.2,0-4.42-1.83-4.51-4.74s.89-5.06,4.19-4.85c9,.59,13.66-4.59,16.83-12.1q20.37-48.25,40.79-96.49c3.3-7.83,1.49-11.23-6.8-13.59a43.06,43.06,0,0,0-5.34-1.25c-3-.44-4.25-2.54-3.38-4.94.64-1.74,2.8-4.09,4.35-4.14,21.92-.77,31.33,2.68,39.55,22.59,12.5,30.27,24.68,60.68,37,91,1.25,3.08,2.66,6.09,4,9.14C2834.68,915.83,2838.73,919.76,2845.73,919.58Zm-98.18-45.72h45.74L2771,817.06C2762.85,836.72,2755.29,855.06,2747.55,873.86Z"/><path class="cls-1" d="M2849.83,1044.11v16.37H2378.9v-16.37Z"/><path class="cls-1" d="M2849.51,639.68a107.49,107.49,0,0,1,0,23.92c-2.25,18.48-14.4,28.87-34.47,31.52-18.39,2.43-36.14-1.27-54-4.56-32.89-6-65.68-12.9-98.76-17.66-22-3.18-44.47-3.71-66.76-4.74q-71.4-3.31-142.83-5.76a210,210,0,0,0-33.8,1.81c-9.62,1.24-16.92,6.9-22.33,15.3-18.76,29.16-46,44.17-80.33,44.43-48.2.37-91.19-13.8-125.44-49.45-.46-.48-.93-1-1.38-1.45-11.6-12.76-11.56-29.6.05-42.43,21.64-23.92,48.78-38.4,79.87-45.51,13.57-3.11,27.5-4.63,34.47-5.77,43.76.18,73.31,14.07,93.37,45.73,6.71,10.59,17,15,28.64,15.71,12.26.75,24.62.36,36.92,0q34.71-1.08,69.42-2.74c41.27-2,82.61-3.07,123.76-6.53,24.61-2.07,48.93-7.81,73.35-12.1,20-3.51,39.87-7.72,59.93-10.81a79.57,79.57,0,0,1,35.15,2.12C2838.94,615,2847.92,624.44,2849.51,639.68Z"/><path class="cls-1" d="M2793.29,873.86h-45.74c7.74-18.8,15.3-37.14,23.4-56.8Z"/><path class="cls-1" d="M2683.64,919.47c3.51.24,5.83,1,5.63,5.1s-2.67,4.73-6.12,4.68c-3.69-.06-7.38-.07-11.07-.07h-13.92c-4.75,0-9.5,0-14.24,0h-.14q-5.55,0-11.1.07c-3.38,0-5.49-1-5.7-4.63s1.72-5,5.16-5.07c11.74-.15,14.81-5.32,14.84-16.08q.15-45,0-90c-.05-12.06-3.21-15.3-15.21-16.17-3.36-.24-4.89-1.62-4.79-4.91s1.7-4.83,5-4.83q26.24.06,52.47,0c3.42,0,4.76,1.81,4.8,5s-1.33,4.6-4.5,4.64a41.13,41.13,0,0,0-6,.63c-5,.8-8.1,3.72-8.78,8.81a81.36,81.36,0,0,0-.87,10.44q-.1,41.24,0,82.47c0,1.83,0,3.67.17,5.49C2670.16,916,2672.73,918.72,2683.64,919.47Z"/><path class="cls-1" d="M2607.61,919.51c3.47.36,5.26,1.83,5,5.37-.29,3.69-2.63,4.52-5.93,4.36-5.15-.26-10.33-.13-15.48-.44-8.67-.52-16.46-3.77-22.14-10.19a277.91,277.91,0,0,1-17.88-23.32,135.65,135.65,0,0,1-10.77-17.4c-5.21-10.35-13.68-12.71-24.22-11.15,0,14.77-.34,29.21.16,43.63.2,6.09,4.42,8.52,13.34,9.09,3.56.23,5.83,1.09,5.57,5.15-.19,3-1.5,4.62-4.65,4.62q-26.24,0-52.46,0c-3.41,0-4.89-1.77-5-4.86-.11-2.91,1.17-4.71,4.39-4.81a40,40,0,0,0,6.45-.67c4.32-.84,7.31-3.36,8.05-7.78a67.66,67.66,0,0,0,1-10.91c.08-27.81,0-55.63,0-83.45,0-1.67,0-3.33-.11-5-.51-10.45-3.85-13.94-14.34-14.42-3.4-.15-5.55-1.09-5.47-4.76.07-3.09,1.5-5.05,4.9-5,25,.45,49.95.65,74.91,1.45,8.91.28,17.23,3.53,24.73,8.53,17.1,11.4,20,32.54,6.58,48.06-.75.87-1.51,1.69-2.28,2.47-5.4,5.46-11.62,8.86-24.24,13.6h0a3.82,3.82,0,0,1-.11.38c-.07.21-.12.41,0,.52,11.11,16,22.15,32,33.46,47.79C2595,915.94,2600.86,918.81,2607.61,919.51Zm-41.75-80.72a53.65,53.65,0,0,0,1.13-17.7c-1.49-11.4-8.21-19.42-19.55-22.06-6.87-1.59-14.15-1.89-21.24-1.88-6.66,0-9.8,3.09-10.14,9.9-.6,12-.55,24-.73,36-.07,4.62,0,9.24,0,14.58,12.29-.43,24.11,1.36,35.57-2.68C2558.64,852.17,2564.15,846.82,2565.86,838.79Z"/><path class="cls-1" d="M2567,821.09a53.65,53.65,0,0,1-1.13,17.7c-1.71,8-7.22,13.38-15,16.11-11.46,4-23.28,2.25-35.57,2.68,0-5.34-.06-10,0-14.58.18-12,.13-24,.73-36,.34-6.81,3.48-9.89,10.14-9.9,7.09,0,14.37.29,21.24,1.88C2558.78,801.67,2565.5,809.69,2567,821.09Z"/><path class="cls-1" d="M2557.71,861.71h0c0,.11-.07.25-.12.38A3.82,3.82,0,0,0,2557.71,861.71Z"/><path class="cls-1" d="M2450,843.1c5.37,35.15-9.8,66.81-39.29,82-42.05,21.64-91.78-2.5-100.68-49-1.06-5.54-1.38-11.21-2-16.82.58-38.89,25.71-65.22,54.47-73.21C2402.45,775,2443.76,802,2450,843.1Zm-32.17,50.83c6.52-16.31,7.55-33.39,5.67-50.64a72.25,72.25,0,0,0-11-31.79c-15.92-24.72-55.05-24.44-68.56,4.11-6.49,13.73-9.19,28.06-9.16,36.07-.08,22.9,2.27,38.26,10.8,52,9.88,16,25.78,22.56,43.8,18.09C2404.26,918.14,2412.52,907.31,2417.87,893.93Z"/><path class="cls-1" d="M2423.54,843.29c1.88,17.25.85,34.33-5.67,50.64-5.35,13.38-13.61,24.21-28.44,27.88-18,4.47-33.92-2.13-43.8-18.09-8.53-13.78-10.88-29.14-10.8-52,0-8,2.67-22.34,9.16-36.07,13.51-28.55,52.64-28.83,68.56-4.11A72.25,72.25,0,0,1,2423.54,843.29Z"/><path class="cls-1" d="M2331.91,1074.93v10.81c-3-.57-5.76-1.52-8.52-1.54-16.28-.14-32.57-.07-48.37-.07.62-2.84,1.64-5.4,1.66-8q.22-23.22,0-46.46c0-2.4-1-4.79-1.62-7.83h7c13,0,26,.09,39-.07,2.63,0,5.24-1,8.17-1.55v11.42c-3-.54-5.79-1.43-8.58-1.47-11-.17-21.92-.07-33.25-.07V1048c9.43-.68,19.06,1.67,28.81-1.68v12.1c-9.26-4.22-19-1-28.81-2.19v19.72C2302.1,1075.33,2317,1076.93,2331.91,1074.93Z"/><path class="cls-1" d="M2287.82,822.14c.18,4.1-.91,6.91-5.44,7.32-4.73.42-7.51-1.8-8.44-6.37s-1.78-9.16-3.12-13.6c-2.47-8.17-7.54-12.12-16-12.53-5.31-.27-10.64-.05-16.63-.05-.1,1.85-.27,3.59-.27,5.34q0,48.72,0,97.43c0,2,.08,4,.18,6,.49,9.83,3.48,12.92,13.27,13.79,2.57.22,5.51-.34,6.26,3.42s-.93,6.29-4.83,6.3c-17.48.06-35,0-52.45,0-3.18,0-4.54-1.67-4.66-4.6s.67-4.93,4.07-5a45.67,45.67,0,0,0,5.46-.54c5.78-.84,8.94-3.93,9.68-9.7a70.84,70.84,0,0,0,.57-9q.06-49.21,0-98.44c0-1.47-.16-2.94-.27-4.83-6.89,0-13.22-.43-19.47.11s-10.74,4.58-12.67,10.59c-1.67,5.2-2.69,10.61-3.88,16-.88,3.92-4,6.09-8.53,5.65-4-.38-5.16-2.85-5.06-6.57.26-9.15.3-18.32.51-27.47.13-5.86,1.73-7.33,8.13-7.34q36-.06,72,0c11,0,22,0,33,0,6.22,0,7.67,1.5,7.86,7.6C2287.28,804.49,2287.42,813.32,2287.82,822.14Z"/><path class="cls-1" d="M2256.84,1020.22v12.24c-8.19-4.64-16.74-1.17-24.82-2.49-2.23,8.32-1.12,50.23,1.62,53.73h-14.19c.48-2.43,1.41-5,1.43-7.59.14-15.12.07-30.24.07-46.14-8.76,1.14-17.33-1.94-25.7,2.42v-12.16c3.21.57,6.25,1.54,9.29,1.57q21.49.26,43,0C2250.56,1021.77,2253.6,1020.79,2256.84,1020.22Z"/><path class="cls-1" d="M2185.26,1083.64h-15.09c.95-2.91-2-13.55-4.64-15.25-1-.64-2.56-.58-3.86-.59-8.33,0-16.66.11-25-.09-3.13-.08-5,.75-5.85,3.9-.51,1.91-1.73,3.63-2.23,5.54a57.69,57.69,0,0,0-.92,6.72h-12.84c1.82-3.4,3.77-6.55,5.28-9.91q10.15-22.51,20-45.15c.83-1.91.72-4.23,1.11-6.75h14.53c.48,2.44.5,5,1.48,7q11.5,24.09,23.38,48C2181.8,1079.38,2183.61,1081.32,2185.26,1083.64Zm-48.53-24.74h24.06l-12.57-26.26Z"/><path class="cls-1" d="M2160.79,1058.9h-24.06l11.49-26.26Z"/><path class="cls-1" d="M2149.43,823c.15,3.86-1.29,6.3-5.19,6.41-3.73.1-7.38-.32-8.35-5.19a157.67,157.67,0,0,0-3.64-15.53c-2.22-7.33-7.47-11.31-15.11-11.66-5.62-.26-11.27,0-17.66,0v6.6q0,46.49,0,93c0,3.16.15,6.32.4,9.47.81,10.17,3.3,12.72,13.52,13.47,3.27.24,6.1.49,6,4.77-.09,3.13-1.29,5-4.77,5q-26.24-.06-52.46,0c-3.5,0-4.8-2-4.87-5s1.29-4.68,4.5-4.7a42,42,0,0,0,5.47-.53c5.06-.66,8.2-3.5,9.09-8.52a46,46,0,0,0,.73-7.94q.07-51.23,0-102.45c0-.82-.12-1.64-.29-3.85-7.73.63-15.49.68-23,2.08-5.24,1-8.06,5.74-9.54,10.7-1.36,4.61-2.26,9.36-3.18,14.09-.87,4.44-3.74,6.67-8.54,6.31s-5.51-3.38-5.36-7.36c.33-9,.5-18,.75-27,.15-5.56,1.69-7,7.82-7.06,15.16-.06,30.32,0,45.48,0q29.23,0,58.47,0c7.86,0,8.85,1,9.09,8.94C2149.07,805.65,2149.11,814.32,2149.43,823Z"/><path class="cls-1" d="M2099.92,440.09h-6.48c-20.5,0-41,.12-61.49-.11-4,0-5.8,1.35-6.11,5.11-.23,2.81-.6,5.63-.6,8.44q-.06,114.24,0,228.46v6.72H1986v-6.13q0-115,0-230c0-17.21,10-26.52,28.17-25.24-99.83-90.49-199-180.39-298.68-270.71L1417.45,426.83l4.34.24c12.24.6,21.23,9.33,22.13,21.55.12,1.66.07,3.33.07,5V688.73h-39.23V453.54c0-13.45,0-13.45-13.27-13.45h-60.33L1715.54,91.72Z"/><path class="cls-1" d="M2093.91,1063.71l7.45,10.2c-2.9,1.57-5.43,2.88-7.9,4.29-16,9.1-32.21,9.61-47.72-.33-19.72-12.65-18.16-41,2.61-51.81,13.2-6.87,26.94-6.11,40.69-1.33,3.2,1.11,6.46,2.07,10.27,3.28l-6.55,11.59c-2.86-2.39-4.93-4.86-7.58-6.18a35.61,35.61,0,0,0-27.19-2.16c-8.4,2.62-13.95,8.4-15.54,17.25-1.52,8.45,1.6,15.35,8.06,20.82,9.31,7.87,23.49,9.56,33.59,3.45C2087.63,1070.64,2090.32,1067.1,2093.91,1063.71Z"/><path class="cls-1" d="M2033,924.55c.48,3.18-1.6,4.73-4.91,4.7-8.33-.08-16.66,0-25,0v0c-8,0-16-.11-24,0-3.56.08-5.88-.88-6.09-4.78-.23-4.1,2.29-4.81,5.73-5.05,12.88-.9,14.33-3,10.12-15.07-2.09-6-4.52-11.81-7.14-17.55a5.32,5.32,0,0,0-4-2.51c-16.15-.18-32.31-.16-48.46,0-1.32,0-3.44,1-3.82,2-3.08,8.24-6.07,16.53-8.56,25-1.37,4.62.51,7,5.28,7.57a112.46,112.46,0,0,0,11.46.73c3.32.08,4.84,2.19,4.14,4.81-.51,1.87-2.82,4.6-4.38,4.64-15,.35-30,.21-45,.2-3.2,0-4.36-2-4.46-4.84s1.11-5,4.33-4.75c9.29.59,13.75-5,17-12.64,13.42-31.88,27-63.69,40.42-95.57,3.45-8.18,1.7-11.62-6.75-14-1.76-.49-3.84-.42-5.27-1.37s-3.39-3-3.34-4.45,2-4,3.49-4.41c16.26-3.95,31.92,3.35,38.73,19,9.61,22.1,18.36,44.58,27.47,66.9,4.72,11.55,9.4,23.11,14.19,34.63,2.83,6.81,6.73,12.2,15.31,12.12C2030.73,919.84,2032.72,922.78,2033,924.55ZM1930.72,873.9h45.77l-22.33-56.84Z"/><path class="cls-1" d="M2000.51,1022.11h13.07c-.49,2.9-1.34,5.77-1.39,8.66-.17,10.49,0,21-.09,31.49-.12,12.47-5.13,19.45-17.42,21.12a96.4,96.4,0,0,1-27.19-.42c-10.5-1.62-15.25-8.27-15.49-19-.25-11.16,0-22.33-.2-33.49,0-2.74-.89-5.47-1.39-8.38h13.09c-.47,2.75-1.3,5.45-1.34,8.17-.15,10.66-.08,21.33-.05,32,0,7.51,2.7,11.54,10.08,12.49a74.36,74.36,0,0,0,19.77-.09c7.3-1,10-5.12,10-12.66,0-10.5.11-21,0-31.49C2001.85,1027.76,2001,1025,2000.51,1022.11Z"/><path class="cls-1" d="M1976.49,873.9h-45.77l23.44-56.84Z"/><path class="cls-1" d="M1919.54,1050.86c8.25,5.66,10.47,11,8.51,20-1.68,7.71-7.18,11.39-14.47,12.49a95.48,95.48,0,0,1-13.43.74c-11.48.09-23,0-34.1,0,.46-3.46,1.22-6.67,1.25-9.88q.2-22.24,0-44.48c0-2.46-.84-4.92-1.38-7.9,11.72,0,24-.07,36.2,0a66.58,66.58,0,0,1,11.9.94c6.62,1.25,11,5.11,12.35,12C1927.66,1041.56,1926.43,1047.14,1919.54,1050.86Zm-10.16,24.78c6.2-.23,9.28-4.19,9.18-10.24-.09-5.87-3-9.33-9.18-9.63-9.46-.44-19-.35-28.44-.17-1.09,0-3,2-3.06,3.12-.33,5.46-.15,11-.15,17C1888.81,1075.75,1899.1,1076,1909.38,1075.64Zm7.37-36.76c.06-4.34-2-7.85-6.51-8-10.7-.35-21.42-.11-32.32-.11v16.29c4.7,0,8.83,0,13,0,6.15-.06,12.32,0,18.45-.35C1913.89,1046.39,1916.69,1043.61,1916.75,1038.88Z"/><path class="cls-1" d="M1918.56,1065.4c.1,6-3,10-9.18,10.24-10.28.39-20.57.11-31.65.11,0-6.08-.18-11.57.15-17,.07-1.14,2-3.1,3.06-3.12,9.48-.18,19-.27,28.44.17C1915.61,1056.07,1918.47,1059.53,1918.56,1065.4Z"/><path class="cls-1" d="M1910.24,1030.87c4.51.16,6.57,3.67,6.51,8-.06,4.73-2.86,7.51-7.42,7.81-6.13.4-12.3.29-18.45.35-4.13,0-8.26,0-13,0v-16.29C1888.82,1030.76,1899.54,1030.52,1910.24,1030.87Z"/><path class="cls-1" d="M1910,640.07v48.7H1521.16v-48.7Z"/><path class="cls-1" d="M1899.76,592.34v24.59H1857.6v-22.8Z"/><path class="cls-1" d="M1892.16,521.07l8.85,48.62-43,1.8c-1.93-12-3.81-23.51-5.81-35.85Z"/><path class="cls-1" d="M1854.56,457.25a178,178,0,0,1,28.26,43.26L1844,514.62c-6.31-9.8-12.47-19.37-19-29.48Z"/><path class="cls-1" d="M1865.52,919.37c3.19,1,5.19,1.88,5,5.46-.26,3.74-2.55,4.6-5.85,4.4-3.83-.22-7.67-.36-11.49-.27a35.14,35.14,0,0,1-29.33-13.5c-6.48-8-12.11-16.68-17.94-25.19-3-4.38-5.59-9.06-8.43-13.56-6.12-9.7-11.87-12-23.28-9.81,0,14.67-.28,29.26.16,43.84.16,5.23,4.24,7.72,10.65,8.56,3.64.48,8.89-.95,8.15,5.68-.69,6.06-5.49,4.07-9,4.1-15.66.13-31.32,0-47,.17-3.87,0-6.47-1.15-6-5.22.2-1.58,2.08-3.42,3.67-4.21s3.91-.49,5.89-.74c5.25-.66,8.58-3.47,9.34-8.81a68,68,0,0,0,.82-9.43q.09-42.24,0-84.47c0-2,0-4-.21-6-.89-9.32-4.22-12.62-13.66-13-3.66-.15-6.35-.75-6-5.17.28-4,2.83-4.63,6.28-4.59,20.15.22,40.31.27,60.46.47,11.58.11,22.93,1.42,33.41,6.91,23,12.06,26.1,38.24,6.37,55.13a56.68,56.68,0,0,1-10.38,6.85c-3.65,1.93-7.64,3.22-12.23,5.1,11.21,17.85,21.51,36,36.43,50.72C1854.89,916.24,1860.56,917.85,1865.52,919.37Zm-41.35-82a50.75,50.75,0,0,0,.77-16.25c-1.5-11.16-7.93-19.2-19-22-7-1.75-14.43-2-21.67-2.08-6.73,0-10.09,2.93-10.27,9.69-.45,16.58-.15,33.19-.15,51.46,10.84-.84,21.84-.88,32.51-2.76C1815.92,853.84,1822.28,847.12,1824.17,837.42Z"/><path class="cls-1" d="M1835.61,616.76h-62c1.07-4,2.31-7.87,3.16-11.83,2.91-13.61,0-26.27-7.4-37.73a164.5,164.5,0,0,0-15.79-20.56c-10.46-11.73-16.06-24.95-15.75-40.85.15-7.61-1.07-15.25-1.74-23.62-15.1,8-29.21,16.11-39.21,29.82s-14.53,29-15.63,46.12L1661,551c-8.53,22.16-11.33,43.82.93,65.77h-65.4c1.12-25.54-2.37-50.76,5.26-75.43,16.13-52.16,67.31-88.07,120.55-84.14,57.05,4.22,103,45.23,110.62,100.53C1835.65,577,1834.82,596.82,1835.61,616.76Z"/><path class="cls-1" d="M1824.94,821.17a50.75,50.75,0,0,1-.77,16.25c-1.89,9.7-8.25,16.42-17.77,18.1-10.67,1.88-21.67,1.92-32.51,2.76,0-18.27-.3-34.88.15-51.46.18-6.76,3.54-9.72,10.27-9.69,7.24,0,14.7.33,21.67,2.08C1817,802,1823.44,810,1824.94,821.17Z"/><path class="cls-1" d="M1796.81,412.77a180.65,180.65,0,0,1,42,28.39L1809.24,469l-28.36-19.37Z"/><path class="cls-1" d="M1800.26,1073.06v12.82c-2.62-.59-5.18-1.65-7.74-1.67-14.82-.16-29.64-.08-44.46-.08h-4.42c.51-2.93,1.32-5.52,1.34-8.12q.19-23,0-46c0-2.6-.85-5.19-1.37-8.19,15.08,0,30.71.07,46.33-.06,2.43,0,4.84-.95,7.65-1.53v11.4c-2.85-.51-5.75-1.43-8.67-1.48-11-.18-21.93-.07-33.24-.07v17.92c9.54-.78,19.17,1.57,29-1.73v11.56a69.15,69.15,0,0,0-8.83-1.46c-5.65-.23-11.32-.23-17,.08-1.22.06-3.29,1.75-3.36,2.79-.34,5.27-.16,10.59-.16,15.78C1765,1077.29,1796.38,1076.09,1800.26,1073.06Z"/><path class="cls-1" d="M1770.48,304.42V352.1h-48V304.42Z"/><path class="cls-1" d="M1770.45,242.52v47.66h-48V242.52Z"/><path class="cls-1" d="M1776,404.1c-5.44,12.59-10.68,24.74-15.91,36.84l-32.95-6.59V394.51C1744,395.13,1760,398.58,1776,404.1Z"/><path class="cls-1" d="M1752.29,583c5.84,11.26,2.8,22-3.7,32-.77,1.18-3,2-4.57,2-16.32.14-32.65.12-49,0a7.65,7.65,0,0,1-4.6-1.26c-10.62-9-15.27-20.56-14.2-35.44l32.23,11.41c-1.13-5.68-2.07-10.51-3-15.32-3.42-16.78-1.72-32.78,7.31-47.64,1-1.64,2.26-3.13,4-5.52,3.37,17.9,13.58,30.7,24.33,43.31A88.13,88.13,0,0,1,1752.29,583Z"/><path class="cls-1" d="M1700,1022.74c16.55,3.67,25.08,17,23.14,35.94-1.59,15.65-12.7,25.37-29.19,25.43-12.5.05-25,0-37.49,0-.31,0-.62-.16-.37-.09.63-2.79,1.57-5,1.59-7.3q.19-23.49,0-47c0-2.41-1-4.8-1.65-7.75,12.47,0,25.52,0,38.56,0A25.67,25.67,0,0,1,1700,1022.74Zm11.27,42.59a32.42,32.42,0,0,0,.89-21.53c-2-6.63-6.54-11.46-13.15-12.33-10.1-1.34-20.4-1.27-30.84-1.81v46c9.82,0,19.13.34,28.4-.12C1703.31,1075.27,1708.69,1072,1711.28,1065.33Z"/><path class="cls-1" d="M1718.27,823.32c.14,3.69-1.44,5.89-5,6s-7.25,0-8.31-4.53c-1.15-4.86-1.9-9.82-3.27-14.61-2.57-9-7.69-12.93-17-13.32-5.27-.22-10.56,0-16.13,0-.1,2.19-.24,3.81-.24,5.44q0,48.5,0,97a54.49,54.49,0,0,0,.3,6c1.23,11.38,3.11,13.34,14.46,14.2,3.45.26,5.37,1.33,5.19,5-.14,2.93-1.35,4.73-4.54,4.72q-26.49,0-53,0c-3.23,0-4.46-2-4.59-4.76s1-4.78,4.3-4.88a48.08,48.08,0,0,0,6-.59c4.79-.74,7.9-3.42,8.72-8.29a55.71,55.71,0,0,0,.89-8.92q.09-50.49,0-101c0-1.13-.11-2.26-.2-3.88-6.13,0-11.62-.14-17.11,0-7.93.25-13.16,4.44-15.5,11.87A131.71,131.71,0,0,0,1610,822.9c-.93,4.74-3.92,7.05-8.86,6.54-4.73-.49-5.23-3.7-5.09-7.58.34-9,.68-18,.71-27,0-5,2.52-6.84,7.11-6.83,8,0,16,0,24,0h80.49c8,0,8.83.75,9.15,8.79C1717.85,805.66,1717.92,814.5,1718.27,823.32Z"/><path class="cls-1" d="M1712.17,1043.8a32.42,32.42,0,0,1-.89,21.53c-2.59,6.63-8,9.94-14.7,10.26-9.27.46-18.58.12-28.4.12v-46c10.44.54,20.74.47,30.84,1.81C1705.63,1032.34,1710.2,1037.17,1712.17,1043.8Z"/><path class="cls-1" d="M1708.94,347.78c0,3.28-.68,4.78-4.38,4.73-13.31-.18-26.63-.1-39.94,0-2.64,0-4.43-.25-4.4-3.67.14-14,.06-28,.09-41.94a15.71,15.71,0,0,1,.48-2.59h48.09v14.55C1708.88,328.47,1708.77,338.13,1708.94,347.78Z"/><path class="cls-1" d="M1708.55,242.37v47.84h-47.86V242.37Z"/><path class="cls-1" d="M1704.11,394.34v40l-33.25,6.72-16-36.83C1670.74,398.42,1686.89,395.43,1704.11,394.34Z"/><path class="cls-1" d="M1633.59,411.71l16.52,38.2-28.2,19.36-30.65-28.85Z"/><path class="cls-1" d="M1591.32,1083.72H1577c-.33-1.85-.2-4-1.08-5.47-3.49-6-7.13-12-11.12-17.78a8.12,8.12,0,0,0-5.43-3c-5.79-.4-11.62-.15-18.33-.15.78,9-1.59,17.72,1.78,26.52H1529.3c.56-2.71,1.52-5.27,1.54-7.85q.21-22.74,0-45.48c0-2.74-.91-5.47-1.42-8.31,14.58,0,29.88-.54,45.12.19,9.87.47,15.1,6.26,15.58,14.46.65,11-3.41,16.68-13.75,19.38-.61.16-1.21.42-2.59.92Zm-11.24-44c0-6.17-2.77-9.11-10.27-9.36-9.29-.32-18.59-.08-28.29-.08v18.57c9.56,0,18.7,0,27.84,0a23.15,23.15,0,0,0,3.91-.72C1577.94,1047.21,1580.06,1044.35,1580.08,1039.69Z"/><path class="cls-1" d="M1606.17,485.38l-18.84,29.4-39.08-14.19a179.42,179.42,0,0,1,28.09-43.26Z"/><path class="cls-1" d="M1569.81,1030.33c7.5.25,10.31,3.19,10.27,9.36,0,4.66-2.14,7.52-6.81,8.38a23.15,23.15,0,0,1-3.91.72c-9.14.06-18.28,0-27.84,0v-18.57C1551.22,1030.25,1560.52,1030,1569.81,1030.33Z"/><path class="cls-1" d="M1579.18,535.79c-2,12.09-3.83,23.68-5.81,35.89l-43.25-1.82c3-16.43,5.78-32.14,8.75-48.69Z"/><path class="cls-1" d="M1573.77,594.23v22.63h-42.49V592.58Z"/><path class="cls-1" d="M1506,858c15.45,9.31,22.49,25.56,19.17,42.18-2.17,10.86-9,18.38-18.07,24-13.65,8.5-28.78,10.25-44.28,8.23a77.78,77.78,0,0,1-21.51-5.8c-11.61-5.18-16.87-16-15.39-28.69,1.28-11,14.12-18.81,24.41-14.54,2.24.93,4,3.11,6.9,5.49-9.48,4.93-10.41,12-8.46,19.92,2.07,8.47,7.94,12.7,16.17,14.24,9.47,1.77,18.61,1.17,27-4,14.07-8.72,16.21-26.08,4.11-37.32-4.66-4.33-10.52-7.54-16.2-10.56-10.28-5.45-21.12-9.88-31.22-15.63-16.91-9.61-23.5-26.2-18.69-44.71,2.31-8.88,7.42-15.79,15.56-19.82,20.22-10,40.73-10.33,60.9.06,9.9,5.1,14.12,15,11.87,25.17s-13.79,16.92-23.62,13.34c-2.39-.87-4.29-3.1-7.1-5.22,2.16-1.39,3.18-2.12,4.27-2.73,8.76-5,9.84-16.24,2.18-23-9.76-8.56-30.9-7.12-39.43,2.69-7.16,8.23-7.18,21.35,1.19,28.37,6.27,5.27,13.79,9.16,21,13.14C1486.41,848.16,1496.63,852.37,1506,858Z"/><path class="cls-1" d="M1506.18,1074.93v10.66c-3.29-.49-6.52-1.37-9.76-1.4-15.81-.14-31.61-.06-47-.06.54-2.85,1.42-5.42,1.44-8q.19-23.23,0-46.47c0-2.42-.93-4.84-1.53-7.8h16.23c9.83,0,19.66.12,29.48-.07,2.74,0,5.47-1,8.5-1.6v11.5c-3.27-.53-6.49-1.44-9.73-1.5-10.64-.19-21.29-.07-32.31-.07v17.78c9.53-.23,19.25,1,29.12-.94v11.4c-9.46-4.06-19.21-1-29.12-2.15V1076C1476.44,1075.28,1491.25,1077,1506.18,1074.93Z"/><path class="cls-1" d="M1410.09,1022.18h13.41c-.5,2.51-1.38,4.94-1.4,7.38q-.19,23.42,0,46.85c0,2.44.87,4.87,1.37,7.48h-13.14c.47-3.28,1.33-6.61,1.36-10q.22-21.93,0-43.86C1411.66,1027.52,1410.68,1025,1410.09,1022.18Z"/><path class="cls-1" d="M1401.18,792.45c-.1,8.94-2.41,16.17-8.7,20.55-7.27,5.06-15.43,8.9-23.43,12.79-1.31.64-3.83-1.2-5.79-1.89,1-1.76,1.68-4.08,3.2-5.15,3.64-2.57,8.08-4.07,11.5-6.85,8.43-6.86,8-16-.74-22.36-2-1.47-4-2.93-6-4.47-3.54-2.79-4.73-6.42-3.19-10.65s4.41-7,9-7.59a17.3,17.3,0,0,1,13.84,4.42A28.54,28.54,0,0,1,1401.18,792.45Z"/><path class="cls-1" d="M1393.83,1073.47v12.21c-3-.52-6.12-1.45-9.21-1.48-16-.15-32-.07-47.58-.07.5-3.3,1.34-6.35,1.37-9.4q.21-22.49,0-45c0-2.46-.91-4.91-1.44-7.59h13.65c-.6,1.83-1.69,3.58-1.71,5.35-.12,15.33-.06,30.65,0,46a8.57,8.57,0,0,0,.36,1.8C1360.42,1077.21,1389.72,1076.12,1393.83,1073.47Z"/><path class="cls-1" d="M1354.16,792.29c.13,3.22-1.07,5.06-4.59,5-12.12-.21-19.74,6.17-25,16.57-8.48,16.6-17.65,32.86-25.84,49.6-2.62,5.34-3.78,11.69-4.27,17.69a159.94,159.94,0,0,0,.16,24.47c.8,10.9,3.26,13.08,14.24,13.86,3.31.23,5.53,1,5.37,4.81-.13,3.15-1.39,5-4.84,5q-26.25-.06-52.49,0c-3.14,0-4.59-1.66-4.78-4.56-.21-3.2,1.2-5,4.61-5.1a42.71,42.71,0,0,0,6-.63c4.56-.81,8-3.43,8.3-8.08,1.11-17.81,4.06-35.73-5.35-52.68-7.75-14-14.54-28.45-21.74-42.71-5.11-10.13-12.75-16.94-24.3-18.68-3.24-.49-5.14-2-4.75-5.63s2.94-4,5.72-4.14c21.93-.86,38.92,6.52,48.44,27.77,6.25,13.94,13.51,27.44,21,42.41,4.92-9.69,9.21-18.1,13.46-26.52,4-8,8.24-16,12-24.13,2.91-6.25,1.76-8-4.92-8.93a36.23,36.23,0,0,0-6-.33c-3.42.13-4.91-1.47-4.83-4.78s1.44-4.94,4.88-4.93q22.23.07,44.48,0C1352.31,787.58,1354,789,1354.16,792.29Z"/><path class="cls-1" d="M1314.88,1074.93v10.68c-3-.48-6.06-1.39-9.15-1.41-16-.15-32-.07-47.44-.07.55-3.26,1.48-6.28,1.51-9.32q.23-22.74,0-45.48c0-2.25-.93-4.48-1.53-7.19.75,0,2.28-.25,3.82-.25,14.17,0,28.33.06,42.49-.09,2.44,0,4.88-.95,7.65-1.53v11.51c-2.88-.57-5.6-1.53-8.33-1.58-11-.18-22-.07-33.4-.07v17.95c9.57-.84,19.23,1.5,29-1.65v11.87c-9.52-4-19.25-.77-29.06-2.25v19.87C1285.08,1075.38,1299.83,1076.89,1314.88,1074.93Z"/><path class="cls-1" d="M1270.27,684c.1.45.19.91.29,1.37-7.85.89-15.68,1.92-23.55,2.66-34.66,3.26-69.29,6.94-104,9.45-21.55,1.56-43.24,1.83-64.85,1.66-13.41-.1-24.74-6.7-35.38-14.7A182.78,182.78,0,0,0,1018,668.73a35,35,0,0,0-15.38-3.53q-65.48-.66-131-.65C811,664.57,751.1,673,691.32,682.2c-16.11,2.49-32.07,6-48.23,8.15-9,1.19-18.28,1-27.38.55-11-.57-19-6.88-24.8-15.77-12.95-19.85-12.86-26.61-.16-46.4,7.38-11.51,18.34-17.42,31.68-16.47,17.38,1.24,34.69,3.79,52,6.23,30.5,4.29,60.89,9.32,91.41,13.35,75.44,9.95,151.29,8,227.11,7.43,18.22-.13,33.43-6.37,47-17.6,10.75-8.89,22.35-16.2,36.52-17,14.6-.8,29.35-1.2,43.91-.11,40.52,3,81,6.89,121.47,10.52,9.35.84,18.67,2,28,3.09,0,.53,0,1.06,0,1.58h-6.09q-78.73.08-157.48.17c-7.65,0-10,1.55-10.17,6-.22,4.67,2.21,7.09,9.55,7.55,26.27,1.67,52.55,3.24,78.84,4.41,27.3,1.22,54.62,2,81.94,2.91a6.49,6.49,0,0,1,4,1.19c-6.42.33-12.84.81-19.26.95q-74.24,1.64-148.45,3.14c-6.56.14-8.26,1.38-8.26,6,0,3.19,1.44,5,4.59,5.44a38,38,0,0,0,4,.27q63.22,1.14,126.46,2.27c13.28.26,26.55.8,39.94,2.35-1.51.2-3,.52-4.54.58-30.31,1.07-60.63,1.89-90.92,3.23-23,1-45.91,2.66-68.85,4.06-1.49.09-3.5,0-4.32.86-1.87,2-4.16,4.42-4.34,6.82-.12,1.75,2.51,4.42,4.53,5.41s4.88.62,7.37.62q78,.08,156,.09Z"/><path class="cls-1" d="M1239.81,1020.07v12.23c-8.13-4.31-16.71-1.16-25.6-2.36v30c0,5.33-.17,10.66.07,16,.12,2.57,1,5.11,1.59,7.89h-13.16c.43-3.13,1.21-6.31,1.24-9.49.13-14.47.06-28.94.06-44.11-8.58.55-17-1.83-25.57,1.85v-11.87c3.21.53,6.57,1.54,10,1.58q21.7.27,43.43,0C1234.39,1021.77,1237,1020.71,1239.81,1020.07Z"/><path class="cls-1" d="M1203.52,823.54c.12,3.77-1.73,5.75-5.25,5.85s-7.2-.28-8.22-4.75c-1.11-4.87-1.86-9.83-3.23-14.61-2.51-8.72-7.63-12.71-16.64-13.11-5.28-.24-10.57,0-16.57,0v6.3q0,47.48,0,94.94c0,2.5.14,5,.31,7.49.74,10.5,3.2,13.14,13.67,13.82,3.74.24,6.58,1.16,5.68,5.36-.36,1.69-2.69,4.21-4.16,4.24-17.82.29-35.64.19-53.46.17-3.32,0-4.24-2.29-4.26-5s.95-4.54,4-4.59a43.7,43.7,0,0,0,5-.45c6.38-.83,9.5-3.83,10.37-10.18a58.4,58.4,0,0,0,.4-7.48q0-50.24,0-100.45c0-1.15-.13-2.29-.29-4.68-7.46.51-14.89.56-22.14,1.68-5.36.82-8.48,5.2-10.06,10.16a130.1,130.1,0,0,0-3.51,14.52c-1,4.84-3.7,7.13-8.64,6.71-4.7-.39-5.39-3.5-5.25-7.44.31-9,.45-18,.69-27,.14-5.2,1.66-6.93,6.93-6.94,35.65-.07,71.3,0,106.94-.06,4.81,0,6.94,2.29,7,7Q1203.06,809.3,1203.52,823.54Z"/><path class="cls-1" d="M1168.59,1083.77H1153c2.87-6.87-3.14-16-10.51-16-7.82,0-15.65-.17-23.46.15-1.63.07-3.65,1.63-4.68,3.08a22.66,22.66,0,0,0-2.92,6.84c-.5,1.77-.36,3.73-.53,6h-12c8.31-18.71,16.78-37.68,25.09-56.73.56-1.29-.09-3.11-.19-5.07h15.07c.52,2.57.53,5,1.46,6.91q11.64,24.27,23.62,48.38C1165.06,1079.59,1166.91,1081.48,1168.59,1083.77Zm-48.77-24.72H1144l-12.68-26.42Z"/><path class="cls-1" d="M1144,1059.05h-24.18l11.5-26.42Z"/><path class="cls-1" d="M1045.16,858c15.76,9.51,22.93,26.56,19,43.15-2.3,9.8-8.22,17.17-16.61,22.22-21.65,13-44.38,12.94-67,3.35C968.9,921.78,964.18,911.57,965,899c.76-11.63,13.76-20,24.5-15.59,2.33,1,4.1,3.29,6.74,5.5-9.28,5.06-10.39,12.13-8.17,20.31,2.28,8.41,8.26,12.47,16.48,13.92,10.23,1.81,20,.89,28.58-5.45,11.95-8.78,13.56-25,2.86-35.17-5-4.71-11.23-8.23-17.33-11.51-10.1-5.44-20.8-9.78-30.77-15.43-16.66-9.44-23.19-25.26-19-43.72,2.17-9.52,7.49-16.82,16.18-21.06,20.1-9.8,40.47-10.07,60.47.24,10.18,5.25,14.57,16,11.72,26.09-2.75,9.75-13.87,15.87-23.35,12.44-2.48-.89-4.42-3.27-7.21-5.43,2.21-1.32,3.18-1.92,4.17-2.47,8.85-4.94,10-16.1,2.4-22.93-9.94-8.9-31.7-7.11-40.07,3.31-7,8.76-6.06,21.94,3.1,29,6.12,4.73,13.22,8.25,20.08,11.95C1025.91,848.18,1035.93,852.42,1045.16,858Z"/><path class="cls-1" d="M1052.78,1044.22c0,4.7.15,9.33-.13,13.93-.06.94-1.59,2.2-2.7,2.57-1.35.45-3,.12-4.46.12H581.16v-16.62Z"/><path class="cls-1" d="M941.7,792.11c.25,3.87-1.9,5-5.56,5.21-10.82.61-13.93,3.23-14.16,13.82-.5,23-.43,46-.47,69,0,9,.08,18,.52,27,.42,8.51,3.52,11.39,12,12.3,2.12.22,4.68.1,6.16,1.25,1.13.89,1.66,3.91,1,5.32a6.37,6.37,0,0,1-4.7,3.11c-6.58.23-13.17.2-19.75.17l-6.73,0-7.32,0c-5.89,0-11.79-.05-17.68.07-3.45.07-5.53-1.11-5.74-4.62s1.7-4.82,5.18-5.15c11.85-1.12,14.56-3.37,14.68-15,.32-31.15.23-62.32-.1-93.47-.11-10-3.83-13.19-13.95-13.64-3.56-.16-6-1-5.82-5s2.51-4.83,6.09-4.8q25.25.18,50.49,0C939.24,787.56,941.46,788.55,941.7,792.11Z"/><path class="cls-1" d="M916.77,929.24l-6.73,0-7.32,0,7.32,0Z"/><path class="cls-1" d="M860.26,919.44c3,1,4.94,1.89,4.75,5.18-.2,3.56-2.3,4.78-5.73,4.62-5.49-.26-11,0-16.48-.48-10.54-.91-19.06-6.07-25.44-14.22-6.14-7.85-11.61-16.24-17.21-24.5-3-4.41-5.56-9.08-8.41-13.58-6-9.41-12-11.82-23.34-9.45,0,14.26-.41,28.56.18,42.81.27,6.69,4.29,9.06,13.41,9.62,3.57.22,5.9,1.2,5.69,5.11-.14,2.78-1.37,4.7-4.63,4.69q-26.47-.06-53,0c-3.28,0-4.4-2-4.5-4.77s.93-4.83,4.25-4.87a42,42,0,0,0,5.47-.54c5.52-.82,8.64-3.85,9.5-9.34a41.19,41.19,0,0,0,.5-6.47c0-30.65.07-61.3-.26-92-.12-10.38-3.61-13.45-14.09-13.95-3.41-.16-5.48-1.07-5.39-4.78.09-3.13,1.39-5,4.84-5,24.81.44,49.62.6,74.42,1.41a47.75,47.75,0,0,1,27.26,10c14.47,10.84,17.18,29.81,6.4,44.28-6,8-14.1,13-23.3,16.52-1.69.63-3.4,1.2-5.84,2,11.3,18.1,21.58,36.11,36.35,50.74C849.3,916.21,855.17,917.75,860.26,919.44ZM820,829.27c.5-15.76-6.57-26.82-20.38-30.32A79.34,79.34,0,0,0,780.38,797c-8.76,0-12.1,3.37-12.27,12.18-.29,15.3-.16,30.62-.18,45.93a19,19,0,0,0,.64,2.89c9.88-.54,19.93-.2,29.65-1.85C812.35,853.76,819.51,844.09,820,829.27Z"/><path class="cls-1" d="M799.61,799c13.81,3.5,20.88,14.56,20.38,30.32-.48,14.82-7.64,24.49-21.77,26.89-9.72,1.65-19.77,1.31-29.65,1.85a19,19,0,0,1-.64-2.89c0-15.31-.11-30.63.18-45.93.17-8.81,3.51-12.2,12.27-12.18A79.34,79.34,0,0,1,799.61,799Z"/><path class="cls-1" d="M701.08,900.33c3.95,2.58,4,5,1.13,9.06-15.26,21.29-37,26.28-61.11,23.12-35.23-4.62-58.69-31.8-60-68.27-.59-16.07,1.68-31.6,9.66-45.83,13.72-24.46,35.69-34.15,62.67-34.66a72,72,0,0,1,34.32,7.6c12.08,6.16,17.24,17.1,14.43,30.36a21.68,21.68,0,0,1-25.32,17.22,16.31,16.31,0,0,1-6.9-3.62c-2.08-1.71-3.1-4,.13-6,8.1-5.14,10.6-12.44,7.91-21.57-2.37-8.09-9.77-13.66-19.64-14.53-16.52-1.46-29.84,4.46-39.06,18.3-10.84,16.28-12.85,34.73-11.64,53.68.87,13.72,4.78,26.57,13.24,37.62,11.8,15.4,27.31,21.76,46.58,18.18,11.48-2.13,19.31-9.33,25.31-18.78C695.09,898.49,697.7,898.11,701.08,900.33Z"/><path class="cls-2" d="M582,648.44c3.67-8.08,7.12-16.15,13.22-23a34.42,34.42,0,0,1,25.1-11.94c20.86-1.1,41,3.58,61.35,7.33q21.13,3.9,42.47,6.66c14.21,1.83,28.38,4,42.6,5.76,10.15,1.26,20.35,2.16,30.53,3.2,18.13,1.86,36.28,3,54.53,3.27,5.22.08,10.56.69,15.85.7q64.47.08,128.94,0a61.35,61.35,0,0,0,14.24-1.55c11.45-2.78,21.3-8.92,30.31-16.29,12.09-9.89,25.32-16,41.28-17.28,20-1.61,39.62,1,59.42,2.07,13.38.73,26.67,2.29,40,3.27,15.95,1.17,31.82,3.5,47.76,4.75,13.5,1,27,2.34,40.38,4.12.79.11,1.67-.06,2.35,1.08-1.58,1.6-3.65.88-5.43.88q-79.45.08-158.92.05a28.43,28.43,0,0,0-5.47.25c-3.35.66-6.25,2.41-5.57,6.25.62,3.52,2.59,6.24,7,6.53,16,1,32,2.34,48,3.1,18.89.89,37.79,1.36,56.68,2,19.06.64,38.12,1.34,57.19,1.9,2,.06,4.05.83,6.53,1.36-5.34,1.71-10.3,1.51-15.26,1.62-17.94.39-35.92.45-53.82,1.26-16.47.74-32.94-.37-49.33.86-17,1.27-33.9.35-50.84.92-3.05.11-7-.3-7.34,4.64s.59,5.94,5.75,6.31c21.09,1.48,42.25.09,63.31,1.19,17.8.93,35.61-.28,53.33,1,11.64.83,23.28-.07,34.83,1,6.38.58,12.82.46,19.09,1,.18,1.29-.28,1.67-1,1.71-6.78.37-13.56,1.06-20.34,1-15.62-.08-31.22.94-46.82,1.31-17.06.4-34.17.68-51.18,1.91-16.47,1.2-33,1.44-49.41,3.79-3.83.55-6.28,2.3-6.44,6.21s2.45,5.24,5.91,6.07a28.7,28.7,0,0,0,6.87.75h163.08c-3.07,3.29-6.61,2.33-9.35,2.69-11.61,1.54-23.33,2.21-35,3.33-12.65,1.21-25.27,2.64-37.91,3.85-8.55.82-17.13,1.39-25.69,2.13-14.63,1.26-29.26,3.48-43.9,3.61-20.26.18-40.88,3.47-60.58-4.59-9.21-3.76-16.27-10.61-24.21-16.21-11.82-8.34-24.39-13.71-39.47-14-27.1-.54-54.21-.86-81.31-.73-22.28.1-44.55.8-66.82,1.17-19.15.31-38.34,1.82-57.38,4q-37.32,4.2-74.52,9.57c-23.65,3.45-47,8.46-70.64,11.94-10.75,1.58-21.82,2.68-32.64.14-14.64-3.44-22.43-14.36-28.24-27.15-1.14-2.5-2-5.11-3.05-7.67Z"/><path class="cls-2" d="M582,1044h464.22c7.57,0,7.57,0,7.57,7.69,0,10.3,0,10.3-10.07,10.3H582Z"/><path class="cls-2" d="M582,848.24c2.06-6.87,3-14,5.71-20.75,9.32-23,26.39-36.24,50.25-41.1a80.5,80.5,0,0,1,49.36,5.16c20.77,9.1,20.58,33.18,8.91,43.92-7.1,6.54-19.11,7.33-24.88,1.69-2.7-2.64-3.72-4.69.34-7.42,7.25-4.86,9.74-11.94,7.11-20.33-2.41-7.73-8-12.41-15.83-14.06-21.36-4.5-40.26,7.34-47.81,27.11-8.82,23.08-9.6,46.66.07,69.63,6.92,16.44,18.83,27.68,37.58,30.15,17.56,2.32,31-3.72,40.47-18.66,1.22-1.94,2.45-3.91,5.4-3.42s5.24,1.81,6.57,4.65c.62,1.32.87,2.43-.14,3.66-8.91,10.88-18.19,21.36-33,24-23.33,4.25-45.84,2.73-65-13-13.63-11.19-21.7-26.06-24.17-43.71-.14-1,.05-2-1-2.62Z"/><path class="cls-2" d="M2330.27,1088c-1.37-3.29-4.35-3-7-3-14.31-.06-28.63,0-42.94,0h-4.75v-61.93h8.6q18.22,0,36.45,0c2,0,4,.13,5.76-1.1,1-.69,1.64-2.57,3.23-1.44,1.22.87.57,2.46.67,3.74.07.83,0,1.66,0,2.49,0,6.41,0,6.38-5.63,4.59a9.71,9.71,0,0,0-3-.28c-10.15,0-20.3.08-30.45-.07-3.05,0-3.94.94-4,4-.33,14.06-.42,14.22,13.86,14,5.09-.08,10.73,2,15.35-3.21,1.57,4.5.69,8.59.74,12.58,0,1.57-1,1.76-2.43,1.19-8.3-3.33-17-.67-25.43-1.41a1.73,1.73,0,0,0-2,1.79c0,.33,0,.67-.06,1-1.81,16.12-1.81,16.12,14.2,16.12,7.16,0,14.32,0,21.47,0,1.85,0,3.76.1,5.32-1,5.16-3.48,5.14,0,5,3.64-.13,2.78.64,5.68-1,8.28Z"/><path class="cls-2" d="M1313.72,1088c-1.37-3.3-4.36-3-7-3-14.31-.06-28.63,0-43,0-1.79,0-3.65.4-4.73-.13v-61.78h14.14q13.72,0,27.47,0c4.26,0,8.7.79,12.5-3.82,1,5.55.62,9.89.37,14.91-6.56-4.82-13.67-2.67-20.45-3.06a94.12,94.12,0,0,0-10.49,0c-3.76.19-9.27-1.84-10.9.88-2.54,4.22-.72,10-.81,15.12,0,1.88,1.48,1.93,2.86,1.93,6.82,0,13.65-.14,20.47.07,2.53.08,3.5-2.36,6-2.81,1,4.42.46,8.77.37,13.18-9.12-2.73-18.21-.92-27.19-1.42-1.94-.11-2.7.92-2.61,2.74a8.32,8.32,0,0,1,0,1c-.66,15.22-.66,15.22,14.63,15.22,7.15,0,14.31,0,21.47,0,2.5,0,4.91.07,6.93-2s2.88-.72,2.92,1.46c.08,3.83,0,7.65,0,11.48Z"/><path class="cls-2" d="M1799.5,1088c-2.1-3-5.31-3-8.44-3-14.15,0-28.31,0-42.46,0h-6.76c4.21-3,3.7-6.51,3.69-9.87q0-21.7,0-43.43c0-2.93.47-5.94-3.33-7.69l.87-.94h7.76c12.65,0,25.31-.05,38,0a12.9,12.9,0,0,0,9.1-3c1.18,4.72.35,9,.58,14.34-4-3.58-8.13-3.42-12.23-3.39-8.66.06-17.32.1-26,0-2.75,0-3.94.78-3.79,3.67.19,3.65.11,7.32,0,11,0,2.19.48,3.44,3,3.4q9.74-.15,19.48,0c2.36,0,3.81-1.61,6.06-2.87a53.45,53.45,0,0,1,.18,13.35c-9-2.93-18-1-26.81-1.44-1.19-.07-1.78.74-1.86,1.89,0,.33,0,.67,0,1-1.63,16-1.63,16,14.32,16h18c4.11,0,8.38.68,11.6-3.38l1.06.76V1088Z"/><path class="cls-2" d="M1505.63,1088c-2.09-3-5.31-3-8.43-3-14.15,0-28.3,0-42.45,0h-6.7c4-3.06,3.63-6.47,3.62-9.84q-.06-21.71,0-43.42c0-2.91.65-6-3.1-7.53,2.08-1.67,3.8-1.11,5.36-1.12,12.82-.05,25.64-.09,38.45,0,4,0,8,0,11.54-3.29,1.27,4.88.57,9.24.59,13.66-13.06-4.74-26.35-1.45-39.4-2.39-2.22-.16-3.42,1-3.43,3.27,0,.33,0,.66,0,1-.69,13.68-.69,13.84,13.16,13.6,5.42-.1,11.27,1.83,16.4-2.89.74,4.75.43,9,.26,13.32-8.89-2.59-17.78-.83-26.56-1.37-2.29-.14-3.12.74-3.31,3.12-1.3,15.88-1.36,15.87,14.4,15.87,6.33,0,12.65-.07,19,0,4.16.06,8.26.17,12.65-3.88V1088Z"/><path class="cls-2" d="M1392.68,1088c-1.6-3.3-4.64-3-7.54-3h-49.25c2.64-2.41,2.88-4.92,2.87-7.68-.11-15.81-.07-31.62,0-47.42,0-2.34.19-4.64-3.79-6.46h17.94c-4,2.23-3.15,5.53-3.16,8.56,0,13.15.22,26.3-.13,39.43-.13,4.81,1.52,5.81,5.91,5.67,9.82-.29,19.65-.14,29.47-.06a12.73,12.73,0,0,0,9.09-3c1.22,4.85.35,9.44.63,13.94Z"/><path class="cls-2" d="M1419.47,428.63a22.17,22.17,0,0,1,19.75,8c3.4,3.93,5.43,8.26,5.43,13.47q0,117.63.11,235.25c0,4.37-1.48,5.23-5.44,5.12-9.65-.25-19.33-.34-29,0-4.66.18-5.77-1.29-5.76-5.82q.2-114.37.12-228.76c0-17.25-.25-14.16-14.21-14.25-19.29-.13-38.58,0-58.77,0,8-7.34,15.11-14.36,22.75-20.76,4.58-3.83,8.76-8.07,13.25-12,13.12-11.43,25.67-23.52,38.54-35.25q26.63-24.27,53.39-48.39l42.73-38.71,42.37-38.35q21.2-19.17,42.37-38.36,26.89-24.36,53.78-48.72,15.46-14,31-28,20.84-18.83,41.64-37.68c1.89-1.72,3.24-1.67,5.09,0q17.72,16.36,35.57,32.57c15.49,14,31.13,27.78,46.65,41.72,8.13,7.32,16.11,14.8,24.23,22.14q25.42,23,50.9,45.94c8.36,7.57,16.57,15.29,24.93,22.85,16.58,15,33.24,29.91,49.83,44.9,8.12,7.33,16.11,14.8,24.23,22.14q24.88,22.47,49.85,44.88c7.87,7.11,15.67,14.3,23.5,21.45q25.65,23.41,51.46,47c-1.36,1-2.88.54-4.25.54-21.15,0-42.31.15-63.46-.08-4.08,0-5.25,1.81-5.59,5.11a44.77,44.77,0,0,0,0,4.49q0,116.63.11,233.26c0,4.72-1,6.33-6,6.12-9.81-.41-19.66-.22-29.48-.06-3.24,0-4.71-.56-4.71-4.31q.15-118.36.11-236.75c0-10.51,10.31-20.53,20.87-20.73,1.76,0,3.52,0,6.32,0-4.84-4.54-8.83-8.42-13-12.14-9.22-8.31-18.53-16.53-27.77-24.83q-24.95-22.41-49.85-44.87c-7.63-6.88-15.19-13.84-22.8-20.74q-26.16-23.68-52.33-47.35c-8.59-7.8-17-15.78-25.64-23.55-16-14.43-32.07-28.72-48.06-43.14-8.49-7.66-16.83-15.5-25.29-23.19-10.41-9.48-20.91-18.87-31.31-28.36-1.28-1.18-2-1.11-3.24,0-9.21,8.32-18.55,16.51-27.77,24.82q-26.39,23.81-52.69,47.69c-9.07,8.26-18,16.74-27,25-15.85,14.32-31.83,28.49-47.72,42.77-7.64,6.87-15.18,13.85-22.8,20.74q-25.62,23.16-51.27,46.29c-8.23,7.45-16.33,15.05-24.57,22.5-13,11.77-26.11,23.47-39.14,35.23C1420.58,426.25,1419.4,426.82,1419.47,428.63Z"/><path class="cls-2" d="M2850,653.82c-.46,4.15.24,9.08-.61,14.08-2.65,15.68-12.93,23.79-27.22,27.37-17.38,4.36-34.76,1.91-52.11-1.3-25.43-4.7-50.7-10.2-76.16-14.74-15.43-2.75-30.93-4.75-46.45-6.69a144.92,144.92,0,0,0-14.84-.86c-8.8-.2-17.54-1.15-26.33-1.38-17.89-.48-35.76-1.59-53.66-2.16-7.26-.23-14.59-.14-21.84-.77-13.1-1.15-26.25-.38-39.33-1.09s-26.5-.89-39.67-2.1c-12.7-1.16-25-.84-37.22,3a30.55,30.55,0,0,0-16.84,13c-12.42,19-28.88,32.9-50.62,40.32a102.51,102.51,0,0,1-35.53,5.55,192.81,192.81,0,0,1-67.09-13.64c-19.66-7.82-36.73-19.48-51.89-34.18-15.57-15.1-14.64-35.51,0-49.92,24-23.61,52.52-37.41,85.08-43.91,12.84-2.56,25.76-4.62,38.87-3.89,22.63,1.27,43.41,7.45,61.12,22.58a95.33,95.33,0,0,1,19.44,22.34c7.33,11.84,18.51,16.23,31.36,16.82a324.55,324.55,0,0,0,47.8-1c10.15-1,20.25-.22,30.35-.86,19.54-1.23,39.11-1.31,58.66-2.1,14.23-.57,28.46-1.19,42.68-2,29.79-1.71,59.61-3.36,89-9.57q41.32-8.75,83-15.91c14-2.37,28.14-2.72,42.26.45,17.07,3.84,28.85,17.83,27.88,35.25C2849.94,648.69,2850,650.86,2850,653.82Z"/><path class="cls-2" d="M1773.81,618c1.18-6,3.42-11.6,3.93-17.78.91-11-2-20.81-7.2-30.16-6.19-11-15.51-19.7-22.88-29.85-6.46-8.89-9.18-18.78-9.26-29.77-.06-8.68-1.29-17.36-2-26.36-15.88,8.51-30.88,17.51-40.88,32.68a77.55,77.55,0,0,0-12.87,39.08c-.17,3.25-.85,4.18-4.09,2.84-4-1.65-8.23-2.59-12.15-4.32-3.5-1.54-5-1.81-6.38,2.82-3.11,10.69-6,21.26-5.5,32.57.41,8.76,2.21,17,6.58,24.65,1.93,3.36,1,4.13-2.58,4.11q-28.74-.18-57.48,0c-3.51,0-4.55-1-4.5-4.51.18-12.82-.42-25.67.17-38.46,1.43-31.2,12.23-58.49,34.4-81.12,16.74-17.08,36.62-28.52,59.83-33.31,35.21-7.27,67.73-.26,96.8,21.21,19.74,14.59,33.38,33.81,41.47,56.86a107.63,107.63,0,0,1,6.26,34.44c.15,13.48,0,27,.06,40.45,0,2.54,0,4.46-3.53,4.43-18.83-.14-37.65-.08-56.48-.11A8.6,8.6,0,0,1,1773.81,618Z"/><path class="cls-2" d="M1715.5,690.4q-94.43,0-188.85.11c-4.7,0-6.3-1-6.15-6,.38-12.47.12-25,.13-37.45,0-6.64,0-6.65,6.59-6.65h377.21c7,0,7,0,7,7.23,0,12.15-.23,24.3.12,36.45.14,4.89-1,6.42-6.22,6.4C1842.07,690.33,1778.79,690.4,1715.5,690.4Z"/><path class="cls-2" d="M2614,1062q-114.91,0-229.81.11c-4.81,0-6.21-1.18-6.07-6,.35-12,.1-12.06,12.3-12.06h453.11c6.5,0,6.5,0,6.51,6.37,0,11.62,0,11.62-11.74,11.62Z"/><path class="cls-2" d="M2516.19,890.55c0,5.49,0,11,0,16.47,0,9.14,3.78,13,12.89,13.15,2.3,0,4.76-.25,6,2.37,1,2,1.37,4.1-.17,6.05-1.7,2.16-4,2.71-6.65,2.46a260.76,260.76,0,0,0-48.15,0c-3.66.33-6.24-.71-6.9-4.64s1.42-5.82,5.18-6.23c11.72-1.27,14.62-4.09,14.7-16.26.22-29.79.25-59.57-.08-89.35-.06-5.51-.37-11.82-7.24-14.52a16,16,0,0,0-5.85-.75c-3.83-.08-6.91-.72-6.81-5.73.1-4.81,3.3-5.57,6.74-5.19,14.92,1.67,29.88.62,44.82.91,13.22.26,26.58-1.26,39.48,3,13.28,4.41,24.11,11.32,28.06,26,3.48,12.93-3.67,26.89-13.49,34.53a48.73,48.73,0,0,1-17.54,9c-3.91,1-3.2,2.59-1.79,4.73,7.72,11.72,14.82,23.87,23.6,34.86,5.12,6.41,9.36,13.74,17.66,17a18.85,18.85,0,0,0,6.62,1.77c4.12.1,6.61,2.8,5.74,6.26s-3.41,5.52-7.06,4.41c-4.3-1.3-8.59-.67-12.87-.69-12.26-.06-21.39-5.92-28.92-15-9.86-11.86-17.37-25.31-25.5-38.32-4.88-7.82-11.67-9.51-20-8.72-2.42.23-2.51,1.61-2.51,3.39C2516.2,877.9,2516.19,884.23,2516.19,890.55Zm0-58.71c0,7.47.11,14.95-.06,22.43-.07,3,.85,4.1,3.95,4,7-.19,14,.3,20.94-.17a29,29,0,0,0,17.67-6.93c9.72-8.58,9.69-19.83,7.7-31.14-1.52-8.63-6.85-14.78-15.14-18.25-7.34-3.08-15-3.72-22.8-3.53-8.29.2-12.18,3.93-12.25,12.14C2516.14,817.55,2516.19,824.7,2516.19,831.84Z"/><path class="cls-2" d="M1774.51,890.72c0,5.82,0,11.65,0,17.47.08,7.78,4.27,11.95,12,12,2.69,0,5.48-.32,6.8,2.82.87,2.08,1,4.41-.48,6.08-2.06,2.27-4.73,2-7.77,1.61a102.18,102.18,0,0,0-16.42-.45c-10.44.31-20.91-.94-31.34.81-2.8.47-5.54-.62-5.83-4.52-.27-3.65,1.08-5.76,4.69-6.25,1.47-.2,3,0,4.49-.09a10.12,10.12,0,0,0,9.62-7.86,60.46,60.46,0,0,0,1.19-11.3q.15-41.19,0-82.38a61.47,61.47,0,0,0-1.14-11.32c-1-5.3-5-7.87-11.51-8-3.34-.08-6.83.12-7.31-4.66-.44-4.32,1.66-6.32,5.66-6.25s8.23.86,12.35.88c17.82.11,35.64-.09,53.45.1,12.8.14,25,2.93,35.35,10.91,13.54,10.38,17.73,28.2,7.06,43.54-6.62,9.51-16,15.17-26.91,18.34-2.75.79-2.62,1.42-1.29,3.57,9.62,15.62,19.47,31.08,31.44,45,4.64,5.41,10.17,9.4,17.8,9.49,3.09,0,5,1.94,4.94,5.07s-2.38,6.15-5.19,5.56c-8-1.67-16.25.68-24.17-1.93-10.09-3.32-17.32-10.06-23.37-18.41-7.28-10-13.77-20.6-20.05-31.27-4.74-8-10.94-12.55-20.74-11.14-2.59.37-3.4,1.14-3.36,3.63C1774.59,878.07,1774.52,884.39,1774.51,890.72Zm0-60c0,7.64.14,15.29-.06,22.92-.08,3.3.66,4.8,4.35,4.65,6.64-.28,13.31.21,19.94-.16,6.87-.39,13.37-2.41,18.54-7.24,9.34-8.75,9.52-20,7.25-31.26a23.24,23.24,0,0,0-11-15.82c-9.43-5.57-19.76-6.42-30.23-5.19-6.28.74-8.71,4.51-8.73,11.17C1774.49,816.79,1774.51,823.76,1774.51,830.74Z"/><path class="cls-2" d="M769,889.37c0,5.32-.08,10.65,0,16,.16,8.84,2.6,15.33,14,14.84,2.79-.13,4.89,1,5.77,3.72s-.4,4.78-2.54,6.46a4.87,4.87,0,0,1-3.81.72,279.1,279.1,0,0,0-49.65-.05c-3.71.32-6.18-1.74-6.59-5.31s1.93-5.81,5.45-5.47c10.85,1,14.53-5.84,14.46-15.91-.23-30.12-.08-60.24-.09-90.36a19.63,19.63,0,0,0-.13-4.48c-1.78-7.45-5.65-11.14-12.82-10.26-4,.49-7.18-1-6.93-5.59.21-4,3-5.67,6.91-5.33,22.9,2,45.88.08,68.77,1.15,13.43.63,25.93,4.65,35.78,14.84,11.15,11.55,11.19,30.9.15,42.79a53.64,53.64,0,0,1-23.23,14.74c-3.36,1.1-3.37,2.32-1.79,4.81,10.53,16.6,20.66,33.51,34.49,47.7A20.21,20.21,0,0,0,860,920.19c5.15.48,6.83,2.42,5.84,7-.89,4.11-4.21,4.51-7.41,3.57a24.19,24.19,0,0,0-8.89-.56c-15.31,1.21-25.81-6.79-34.53-18-9.15-11.74-16.25-24.89-24.59-37.19a18,18,0,0,0-19.78-6.81c-2.09.68-1.66,2.24-1.67,3.63C768.93,877.72,769,883.54,769,889.37Zm0-58.19c0,8.7.1,15.86-.05,23-.07,2.91.68,4.19,3.88,4.1,7-.2,14,.44,21-.17,12.93-1.13,22.54-6.13,25.89-20.29,2.69-11.35,1.41-21.82-7.09-30.33-9.89-9.9-22.37-10-35.18-8.47-4.55.56-6.5,3.33-7.46,7.4C767.86,815.14,769.6,824,769,831.18Z"/><path class="cls-2" d="M2451.18,857.71c.81,21.65-6.45,39.72-20.69,54.38-13.13,13.53-29.33,21.42-48.83,22.19-23.1.9-41.8-7.59-56.51-24.88-8.6-10.12-13.68-22.2-15.82-35.36a79.07,79.07,0,0,1,5.8-45.54c7.83-17.7,20.7-30.32,38.39-38.2a62.16,62.16,0,0,1,25.42-5.71c15.74.1,30.75,4,43.69,13.65,14.22,10.66,23,24.86,27.08,42A57.24,57.24,0,0,1,2451.18,857.71Zm-26.88-1.86c.73-3.7-.57-9.09-1.16-14.5a61,61,0,0,0-2-8.67c-5.95-22.49-21-39.57-45.95-37.35-10.11.9-18.56,5-25.13,13.16-10.36,12.9-13.36,28.24-14.65,43.91s.36,31.12,6.94,45.64c7.34,16.19,19.24,26.23,37.54,26,18-.22,29.7-10.24,37.21-27.21C2422.61,884.43,2424.29,871.16,2424.3,855.85Z"/><path class="cls-2" d="M1472.06,934.18c-12.2.39-24.72-1.55-35.61-9.17-10.21-7.14-15.91-27.43-3.8-37.36,5.43-4.45,14.16-5.71,20-2.44,4.82,2.7,5,4.86.53,8.21-6.08,4.6-5.88,17,0,23.91,5.56,6.52,13.26,7.6,20.75,7.61,9,0,17.48-2.49,24.14-9.61,7.65-8.17,8.68-24.71-3-33.91-10-7.9-22.13-11.88-33.31-17.61-7.66-3.92-15.36-7.58-21.82-13.62-18.18-17-15.33-53.44,15-62.07,17.74-5,35.12-5.13,51.82,3.8,10.49,5.61,15.66,17.73,11.69,28.13-3.49,9.15-14.68,14.37-24.16,10.91a10.25,10.25,0,0,1-4.47-3.77c-1.32-1.8-1.37-3.06.72-3.87,6.08-2.36,9.89-6.46,8.91-13.22-1.12-7.72-6.3-12-13.58-14.17-11.91-3.56-27.78.35-33.29,10.74-3.58,6.76-2.56,17.1,2.56,22.72,6.8,7.46,15.58,11.7,24.5,15.74,11.78,5.34,24.06,10.09,33.74,18.77,15,13.43,19.22,38.17,3.73,54.17C1505.07,930.59,1489.79,934.7,1472.06,934.18Z"/><path class="cls-2" d="M1013.12,934.12c-13.13.33-24.88-1-35.25-8-12.22-8.18-16.28-25.06-8.69-35.54,5.94-8.21,19.68-10,25.32-3.32,1.71,2,1.48,3.4-.31,5.06A18.08,18.08,0,0,0,1001.1,923c9.69,3.12,19.63,3.25,28.82-1.93,15.75-8.89,19.66-27.93,3.1-40.78-7.27-5.64-15.82-9-24.07-12.87-9.18-4.24-18.6-8.12-26.48-14.51-10.38-8.41-14.57-19.28-13.93-33,1.13-24.18,23-33.33,40.65-34.7,13-1,25.28.43,36.84,6.72,13,7.06,17.14,22,8.83,33.14-5,6.75-18.66,10.35-24.44,3.3-1.78-2.18-3.71-3.76.88-5.55,4.77-1.87,8-5.49,7.63-11.55-.45-6.67-3.52-11.43-9.41-14-9.95-4.3-20.18-4-29.46,1.46-14.31,8.38-13.95,26.93.78,36.4,12.29,7.9,25.94,13.39,38.92,20.06,10.79,5.53,20.18,12.8,23.92,24.61,7.48,23.6-2.19,40.54-25.31,50.28A52.72,52.72,0,0,1,1013.12,934.12Z"/><path class="cls-2" d="M2770.59,886.2h-24c-1.88,0-3.7,0-4.56,2.15-3,7.84-6.6,15.52-7.93,23.9-.91,5.78.53,7.48,6.41,7.87,3.15.21,6.33.08,9.49,0,3.94,0,5.46,2.13,5,5.72-.42,3.38-2.47,5.72-6,5.17-12.25-1.89-24.56-.37-36.84-.89a18.42,18.42,0,0,0-4.87.74,5.47,5.47,0,0,1-6.85-5.32c0-3.43,1.8-5.76,5.56-5.37,8.3.86,12.56-4.15,15.36-10.75,13.1-30.9,26-61.86,39-92.79.19-.46.45-.89.66-1.35,5.27-11.46,4.05-14-8.57-17-4-.95-6.22-2.69-5.4-7.12.32-1.75,1.11-2.83,2.87-2.81,7.6.08,15.21-.71,22.69,1.72,11.11,3.62,15.32,13,19.35,22.54,13.92,32.87,26.31,66.38,40.82,99,2.4,5.4,5.93,9,12.53,8.6,4.08-.28,4.78,2.62,4.71,6-.07,4.2-3,5.18-6.08,4.77-14.09-1.9-28.23-.36-42.34-.82-1.6-.06-3.22.6-4.85.84-3.85.59-7-1.55-7.13-5-.15-4,1.65-6.13,5.94-5.87,11.29.67,13.88-3.68,9.79-14.31-2.19-5.7-4.43-11.39-6.55-17.12-.88-2.36-2.61-2.57-4.76-2.55C2786.25,886.25,2778.42,886.2,2770.59,886.2Zm1-65.78c-.75.39-1.19.46-1.28.68q-10.74,25.85-21.47,51.7c-1.07,2.56.58,2.4,2.12,2.4,13.78,0,27.55,0,42.12,0C2785.74,856.56,2778.67,838.53,2771.57,820.42Z"/><path class="cls-2" d="M1953.78,886.2c-7.5,0-15,.14-22.48-.06-3.39-.09-5.41.64-6.59,4.25-2.21,6.74-5.25,13.19-6.9,20.13-1.48,6.22.59,9.13,7,9.6,2.81.21,5.65.09,8.48,0,3.92-.06,5.36,2,5.11,5.68s-2.35,5.77-5.84,5.21c-11.76-1.9-23.56-.4-35.33-.86a23.14,23.14,0,0,0-6.38.61c-3.13.73-6.07,0-6.4-4.14-.31-3.84.64-6.91,5.27-6.44,7.6.78,11.76-3.42,14.49-9.62q8-18.17,15.71-36.43,13.24-31.26,26.36-62.59c2.75-6.55,1.25-9.84-5.52-12.07a44.07,44.07,0,0,0-6.68-1.82c-3.66-.58-4-3-3.6-5.87s2.17-3.78,4.92-3.54c5.11.44,10.21-.11,15.39.56,11.86,1.55,18.56,9.11,22.78,19.11,9.24,21.91,17.93,44,26.89,66.09,4.79,11.78,9.51,23.59,14.57,35.27,2.69,6.23,6,11.8,14.58,11,4.39-.4,3.9,3.58,3.72,6.54-.22,3.54-2.91,4.47-5.65,4.11-14.42-1.88-28.88-.33-43.32-.79-1.43-.05-2.89.78-4.34.83-3.32.1-6.42-.22-6.65-4.71-.2-4.07,1.19-6.44,5.65-6.17a39.56,39.56,0,0,0,4.49,0c6.39-.36,8.32-3.12,7-9.39-1.66-7.67-5.46-14.51-8.17-21.77-.81-2.17-2.26-2.88-4.59-2.84C1969.76,886.29,1961.77,886.2,1953.78,886.2Zm1.34-65.73-1.27.11-22.23,54.16h44.81C1969.19,856.29,1962.15,838.38,1955.12,820.47Z"/><path class="cls-2" d="M1657.66,789.3q26.73,0,53.46,0c5.18,0,7.17,2,7.41,7.1.46,9.43-.74,18.88.85,28.33.63,3.76-2.1,6.16-6,6.47-4.64.37-8.34-2.47-8.77-6.94a58.14,58.14,0,0,0-3.18-13.95c-2.77-7.84-8.58-11.91-17-12-3.33,0-6.69.24-10-.07-4-.39-5,1.07-5,5,.16,29,.09,57.93.09,86.89,0,5.66,0,11.32,0,17,0,9.07,3.81,12.87,13,13.07,5.88.12,8,2.86,6,7.65-1.16,2.76-3.39,3.4-6.06,3.17a281.34,281.34,0,0,0-49.17.08c-3.69.34-6.13-.94-6.7-4.89s1.47-5.51,4.94-6c12.21-1.66,14.86-4,15-16,.25-34.13.09-68.25.08-102.37,0-1.67.2-3.6-2.35-3.47-6.11.3-12.23-.61-18.36.67-6.94,1.46-10.49,6-12.22,12.25-1.26,4.59-2.09,9.31-3.05,14a7.74,7.74,0,0,1-8.46,5.9c-3.65-.64-5.72-2.69-5.6-6.89.24-8.65,0-17.31.09-26,.05-7.39,1.72-9,9.09-9Z"/><path class="cls-2" d="M2089,789.3q26.47,0,53,0c5.64,0,7.39,1.78,7.41,7.43,0,8.62.08,17.22.9,25.83.54,5.73-1.7,8.34-5.89,8.66-4.87.38-8.41-2.53-8.91-7.87a62.75,62.75,0,0,0-3-13c-2.43-7.78-8.16-12-16.18-12.08-3.66,0-7.35.25-11-.08-4-.37-5,1.14-5,5,.14,33.29.08,66.58.08,99.87v3c0,10,3.61,13.68,13.66,14,2.46.08,4.57.5,5.8,3,1.07,2.12.35,4-.84,5.59a5.93,5.93,0,0,1-5.68,2.33,275.6,275.6,0,0,0-49.17,0c-3.68.34-6.17-.88-6.73-4.84-.59-4.13,1.69-5.7,5.38-6,2.29-.22,4.55.17,6.89-.63,7.58-2.61,7.57-9.14,7.61-15.14.2-29.46.09-58.92.09-88.39,0-4.66-.12-9.32,0-14,.1-2.74-.77-3.93-3.67-3.79-5.31.25-10.77-.47-15.92.52-9.11,1.75-14,9.36-15.49,21.7-.49,4.08-.27,8.63-5.79,10.27-5,1.49-9.1-1-9.13-6.26-.06-10.12-.16-20.23.91-30.33.48-4.47,3.42-4.81,6.68-4.82,13.65-.06,27.31,0,41,0Z"/><path class="cls-2" d="M2226.81,789.3h52.47c6.82,0,8.1,1.22,8,8.19-.15,9,1.48,17.83,1.14,26.83-.18,4.46-2.33,6.81-6.19,6.74-3.41-.06-7.13-.68-8-5.57-1.13-6.12-2.09-12.31-4.76-18.11-2.8-6.08-7.92-8.45-13.87-9-5.42-.47-12.36-1.84-16,.8s-1.14,9.94-1.17,15.17c-.13,29.47-.07,58.93,0,88.4a30.85,30.85,0,0,0,.74,7.37c1.88,7.77,4.17,9.84,12.21,10,5.71.12,7.77,2,7,6.43-.56,3.08-2.54,4.91-5.57,4.48-13.92-2-27.89-.41-41.83-.88a25.43,25.43,0,0,0-8.38.68,5.71,5.71,0,0,1-7-5.24c-.12-3.7,2.1-5.73,5.61-5.4,10.5,1,14.4-5.5,14.34-15.51-.17-33.13,0-66.26-.08-99.38,0-8.05.94-7-7.29-7-4,0-8.07-.37-12,.31-9.77,1.71-12.85,9.34-14.7,17.8-.63,2.9-1.17,5.81-1.87,8.68-1,4.15-4.62,6.78-8.55,6.08-4.33-.77-5.69-3.48-5.7-7.86,0-9.47,1.7-18.84,1.18-28.33-.25-4.59,2.88-5.73,6.94-5.72C2191.17,789.34,2209,789.3,2226.81,789.3Z"/><path class="cls-2" d="M1154.79,855.18q0,25.47,0,50.93c0,10,3.61,13.72,13.65,14,3.68.11,6.45,1.37,6.19,5.37-.23,3.59-2.78,6.1-6.38,5.47-9.61-1.67-19.24-.62-28.85-.72-7.09-.07-14.23-.85-21.35.75-3.45.78-5.76-1.56-6.15-4.94-.4-3.54,1.55-5.61,5.19-5.88,2.14-.16,4.4.11,6.42-.47,5.54-1.62,8.22-5.54,8.24-12.68.1-34.95,0-69.9.1-104.85,0-3.1-1-4.13-4-3.94-3.32.2-6.66,0-10,0-11.14,0-17.63,5.28-19.92,16.21-.71,3.38-1.36,6.77-2,10.16-.82,4.16-4.28,7.07-8.17,6.53-4.27-.59-5.94-3.05-6-7.56-.15-9.8.81-19.54,1.08-29.31.11-4.18,2.83-4.91,6-5,5.66-.13,11.32,0,17,0h89.93c6.88,0,8.33,1.23,8,8.11-.41,9,1,17.87,1.14,26.82.09,4.19-1.94,6.18-5.58,6.93a7.53,7.53,0,0,1-8.54-5.47c-1.29-5.11-2.34-10.28-3.87-15.32-2.37-7.79-8.15-12-16.17-12.07-3.83,0-7.68.21-11.49-.07-3.56-.26-4.5,1.08-4.47,4.53C1154.87,820.23,1154.79,837.71,1154.79,855.18Z"/><path class="cls-2" d="M1290,856.78c2.23-.77,2.77-2.65,3.57-4.24q10.83-21.57,21.58-43.19c3.89-7.84,2.5-10.05-6.25-10.06-7,0-9.25-1.39-9.1-5.58.15-4,4.11-6.13,10-5.37a137.83,137.83,0,0,0,35.67,0c6.77-.88,9.06.62,9.26,5.54.14,3.47-1.82,5.43-4.61,5.23-14.69-1.06-21,8.72-26.71,19.72q-12.4,24.09-25,48a23.09,23.09,0,0,0-2.73,11.43c.17,9.65,0,19.3.06,29,0,8.9,3.84,12.81,12.56,12.91,2.3,0,5-.41,6.15,2.12,1,2.07,1.24,4.69-.28,6.6-1.8,2.26-4.26,2-7.16,1.69a135.94,135.94,0,0,0-18.94-.37c-9.77.29-19.57-.93-29.33.8-2.79.5-5.62-.43-6-4.3s1.07-6.08,5-6.5c1.32-.14,2.66,0,4-.05,5.09-.2,8.95-2.81,9.7-7.66a137.34,137.34,0,0,0,.56-38.1c-.5-4-2.51-7.57-4.25-11-8.3-16.61-16.06-33.5-25.2-49.68-4.85-8.6-12.22-13.82-21.92-15.25-4-.59-5.76-2.63-5.53-6.09s2.94-4.09,6.18-4.1c10.85,0,21.5.66,31.14,6.35,7.1,4.2,11.74,10.65,15.39,17.79C1275.27,827.13,1282.61,842,1290,856.78Z"/><path class="cls-2" d="M899.9,859.25q0-23,0-45.92c0-9.93-3.65-13.74-13.59-14-3.68-.1-6.24-1.33-6.34-5.32-.09-4.26,2.53-6.09,6.43-5.65,10.92,1.23,21.88.67,32.82,1,5.69.19,11.2-1.08,16.83-1.12,3.82,0,6.63,1.05,6.8,5.38.18,4.56-3.14,5.28-6.61,5.62-2.44.24-5-.36-7.3,1-4.4,2.5-6,6.54-6,11.2q-.12,48.16,0,96.33c0,8.27,4.35,12.28,12.76,12.38,2.75,0,5.44.08,6.69,3.1a5,5,0,0,1-.66,5.59c-2,2.36-4.18,2.38-7.12,1.85a56.31,56.31,0,0,0-11.91-.49c-12.26.4-24.56-1-36.81.86-3.49.54-5.54-1.47-6-5.1s1.49-5.26,4.68-5.71c2.29-.32,4.75.12,6.93-.48,5.78-1.61,8.34-5.88,8.37-13.61C899.94,890.52,899.9,874.89,899.9,859.25Z"/><path class="cls-2" d="M2635.65,788.36c11.27,1.94,23.59.66,35.87.88,4.11.07,8.23-.6,12.35-.94,3.84-.32,5.7,2.21,6,5.3s-2.17,5-5.25,5.6a17.46,17.46,0,0,1-3,.09c-7.54.13-11,3.74-11.54,11.19-2.14,30.23-.61,60.5-.72,90.75,0,4.89-.74,10.62,3.32,15.11,3,3.35,6.58,4.25,10.76,3.82s6.29,1.75,6.5,5.63c.16,3.14-3.62,6.07-7.14,5.24-6.78-1.6-13.59-.86-20.36-.78-9.77.12-19.58-1-29.35.76-2.79.5-5.6-.46-6-4.34-.41-4.21,1.41-6.5,5.5-6.42,4.36.09,8.15-.51,11.16-4.13s3.24-7.69,3.26-11.68c.19-29.8.28-59.6,0-89.4-.06-5.68-.2-12.19-7.28-15a13.2,13.2,0,0,0-4.85-.76c-6.35-.12-7.71-1.21-7.74-5.75C2627.07,788,2630.87,788.17,2635.65,788.36Z"/><path class="cls-2" d="M1677.1,581.71l31.92,11.2c-6.65-24.2-8.42-47.06,8-68.18,1.42,4.51,2.37,8.76,4.08,12.69,4.3,10,10.5,18.69,17.63,26.85,7.7,8.82,16,17.48,17.19,30,.85,8.57-2.11,16.16-6.93,23.09-1,1.47-2.68,1.11-4.15,1.11-16.49,0-33-.07-49.47,0-6.5,0-8.94-5.2-12.1-9.12C1677.71,602.55,1675.56,591.5,1677.1,581.71Z"/><path class="cls-2" d="M1660.56,330c0-6.82.1-13.65,0-20.47-.06-2.78.84-3.79,3.69-3.77,13.83.11,27.66.09,41.48,0,2.64,0,3.93.56,3.9,3.56-.12,14-.09,28,0,41.95,0,2.55-.8,3.53-3.44,3.52q-21-.15-42,0c-2.92,0-3.69-1.11-3.64-3.83C1660.65,344,1660.56,337,1660.56,330Z"/><path class="cls-2" d="M1771.51,268.65c0,6.82-.1,13.65,0,20.47.06,2.84-1,3.75-3.75,3.73-13.82-.11-27.65-.14-41.47,0-3.23,0-3.87-1.27-3.85-4.14q.16-20.48,0-41c0-3.07,1-4,4-4,13.66.13,27.32.16,41,0,3.45-.05,4.2,1.28,4.11,4.39C1771.38,255,1771.51,261.82,1771.51,268.65Z"/><path class="cls-2" d="M1684.71,292.8c-6.83,0-13.67-.11-20.49.05-2.86.06-3.72-1-3.7-3.77.1-13.82.13-27.64,0-41.46,0-3.25,1.32-3.84,4.16-3.82,13.66.11,27.32.13,41,0,3.1,0,4,1,4,4-.13,13.65-.16,27.3,0,40.95.05,3.47-1.33,4.17-4.42,4.08C1698.37,292.67,1691.54,292.8,1684.71,292.8Z"/><path class="cls-2" d="M1747,354.74c-6.83,0-13.66-.07-20.49,0-2.55,0-4-.38-4-3.48q.19-21,0-42c0-3,1.21-3.61,3.87-3.59q20.75.13,41.48,0c2.83,0,3.74.95,3.72,3.75-.1,13.81-.13,27.63,0,41.45,0,3.22-1.27,3.91-4.14,3.84C1760.61,354.63,1753.78,354.74,1747,354.74Z"/><path class="cls-2" d="M1920.71,1052c8.3,6.09,10.59,13,7.52,22.26-2,6.19-9.9,10.7-18.64,10.7H1863.8c4-2.2,3.7-4.81,3.69-7.44,0-16,0-31.91,0-47.86,0-2.22.81-4.87-2.8-5.15.91-2,2.24-1.45,3.27-1.46,14.3,0,28.6-.15,42.9,0,12,.13,19.51,10.92,15.8,21.94C1925.54,1048.31,1922.62,1049.66,1920.71,1052Zm-24.75,5c-4.66,0-9.31.09-14,0-2.48-.07-3.66.67-3.56,3.37.16,4.48.12,9,0,13.46,0,2.35.86,3.31,3.21,3.19,9.59-.48,19.22.92,28.78-1,6.47-1.27,8.5-3.94,8-11.26-.33-5-3.18-7.56-9-7.75C1904.94,1056.92,1900.45,1057,1896,1057Zm-.85-9c4.72-.48,10.37.81,15.92-.91,4.6-1.43,5.89-3.51,5.43-9.47-.3-4.05-3.14-5-6.39-5.6-6.39-1.24-12.84-1-19.28-1-12.53,0-12.43,0-12.4,12.45,0,3.34.76,4.87,4.4,4.59C1886.59,1047.82,1890.42,1048,1895.11,1048Z"/><path class="cls-2" d="M1529.31,1023.09c15.79,0,31.6-.49,47.36.22,7.45.34,14,6,14.17,15.5.19,11.5-5.23,17.15-16.31,19.35,6.94,8.61,10.5,18.85,19.09,26.34h-18.06c3-1.59,1.87-3.34.78-5.09-3.57-5.76-7.16-11.5-10.67-17.29-.72-1.17-1.51-2.7-2.7-2.74-6.64-.23-13.28-.23-19.92-.14-1.58,0-1.41,1.63-1.41,2.75,0,5.82.09,11.64-.07,17.46-.06,2.2,1.55,3.09,3.14,5h-15.9c3.27-3.33,2.84-7.43,2.83-11.48q-.08-20.21,0-40.42c0-3.15.24-6.31-3.07-8.49Zm26.57,26.95c6-.06,11.92.22,17.84-1,4.4-.9,6.89-3.87,6.86-9,0-4.46-2.38-7.29-6.69-8-9.72-1.51-19.53-1.09-29.31-1.09-1.68,0-3,.31-2.94,2.41.22,5.28-1.94,11.55.9,15.55,2.18,3.08,8.42.62,12.84,1Z"/><path class="cls-2" d="M1656.81,1084.94v-61.87c12.08,0,24.82,0,37.57,0a30.59,30.59,0,0,1,7.84.94c16.61,4.22,24.16,20.75,21.81,35.25-2,12.34-7.73,21.27-20.13,25.06a7.29,7.29,0,0,1-1.87.61C1686.75,1085,1671.46,1084.94,1656.81,1084.94Zm11.75-31.2c0,6.48.09,13,0,19.45-.06,2.66.61,4,3.59,3.86,9.1-.34,18.28.79,27.29-1.1,5.54-1.17,9.92-3.92,12.27-9.62s2.26-11.75,1.7-17.63a19.17,19.17,0,0,0-15.86-16.66c-8.25-1.14-16.53-.83-24.81-1-3.33-.09-4.31,1.07-4.2,4.29C1668.71,1041.43,1668.56,1047.59,1668.56,1053.74Z"/><path class="cls-2" d="M1568.36,573.7c-10.55-2.75-21.4-.3-32.12-1.9-4.68-.7-5-2.54-4.6-5.95,1.37-11.08,2.49-22.23,5.83-33,1-3.25.54-8.23,3.44-9.27,2.54-.91,6.38,1.65,9.6,2.83,9,3.28,17.91,6.72,26.93,9.89,2.32.81,3,1.41,2.41,4.14-2,9.48-4.6,18.88-4.32,28.74C1575.67,574.36,1571.69,573.59,1568.36,573.7Z"/><path class="cls-2" d="M1607.36,488c-.37.46-.87,1.09-1.39,1.7a95.14,95.14,0,0,0-14.71,22.81c-1.7,3.78-3.58,4.23-7.16,2.86-10.79-4.11-21.67-8-32.53-11.89-2.19-.79-3.19-1.68-1.88-4.29a204.6,204.6,0,0,1,24.5-37.7c2-2.43,3.31-2.55,5.75-.18,8.43,8.18,17.18,16,25.79,24C1606.44,486,1607.34,486.55,1607.36,488Z"/><path class="cls-2" d="M1877.18,572.42a83,83,0,0,0-15.82,1.07c-2.55.42-3.67-.43-4-3.42-1-9.46-1.7-19-4.68-28.18-1.08-3.3-.32-5.21,3.41-6.47,10.64-3.57,21.13-7.57,31.64-11.52,2.85-1.07,4.23-.81,5.25,2.51,3.89,12.66,5.81,25.66,7.42,38.72.76,6.25.45,6.23-5.9,6.42C1888.73,571.73,1883,573.33,1877.18,572.42Z"/><path class="cls-2" d="M1883.19,501.18c0,1.56-1.38,1.79-2.35,2.14-11.33,4.14-22.72,8.09-34,12.37-2.82,1.07-3.84.09-4.93-2.18a109.14,109.14,0,0,0-14.79-22.83c-2.11-2.51-2.54-4.55.55-6.83,9.22-6.84,16.33-16,25.17-23.29,3.23-2.67,4.14-.05,5.34,1.4a172.48,172.48,0,0,1,17.76,25.61c2.11,3.75,4.14,7.54,6.19,11.33C1882.53,499.63,1882.83,500.4,1883.19,501.18Z"/><path class="cls-2" d="M1650.42,450.49c.21,2.28-1.31,2.79-2.59,3.55a174.25,174.25,0,0,0-23.15,16c-1.34,1.13-1.94.89-3.27,0-3.71-2.59-6.68-5.94-9.93-9-5.4-5.14-10.81-10.27-16.33-15.29-1.93-1.75-2.53-2.94-.23-5,11.2-10.19,23.77-18.33,37.16-25.31,2.29-1.2,3.33-.38,4.17,1.63q6.72,16,13.46,31.95C1650,449.61,1650.28,450.19,1650.42,450.49Z"/><path class="cls-2" d="M1839.8,443.81c-1.58,1.22-3,2.38-4.47,3.48-8.65,6.49-15.3,15.14-23.74,21.89-2.08,1.67-2.92,2-5.1.1a113.75,113.75,0,0,0-22-15.11c-2.75-1.42-3.57-3-2.26-5.94,4.5-10.11,8.85-20.29,13.26-30.45.9-2.08,1.67-3.88,4.7-2.29,13.22,7,25.71,14.95,36.73,25.1C1837.73,441.35,1838.42,442.27,1839.8,443.81Z"/><path class="cls-2" d="M1705.54,416.44c0,5.32-.25,10.66.09,16,.23,3.57-1.59,5-4.46,5.1-9.33.39-18.22,2.87-27.06,5.5-2.7.8-3.27-.65-4-2.31-4.44-10.14-8.76-20.32-13.28-30.42-1.6-3.57-.73-5.19,3.05-6.31,11.88-3.52,23.84-6.44,36.25-7.31,9.42-.66,9.41-.78,9.41,8.82Z"/><path class="cls-2" d="M1730,395.67c15.42,1.74,30,4,44.11,9,2,.72,2.51,1.59,1.6,3.68q-7.25,16.54-14.21,33.23c-1.07,2.55-2.88,1.34-4.13,1a132.31,132.31,0,0,0-19.74-4.38c-.32,0-.61-.28-.93-.35-9.15-1.82-9.15-1.82-9.15-11s0-18.28,0-27.42C1727.52,397.24,1727.53,395.19,1730,395.67Z"/><path class="cls-2" d="M1949.05,1023.34h16.73c-3.68,2.65-3.39,5.89-3.37,9.12.06,10,0,20,0,30,0,8.64,3.78,12.22,12.36,13.76a47.84,47.84,0,0,0,15.71-.18c7.31-1.06,11.71-5.55,11.84-12.89.21-11.31,0-22.63.15-33.94,0-2.46-1.69-3.65-3.23-5.78h16.24c-3.54,2.92-3.16,6.45-3.13,10,.08,10.49,0,21,0,31.45,0,10.93-4.56,16.77-15.34,19.37-12,2.89-23.86,3.26-35.41-2.07-6.14-2.83-8.39-8.07-9.2-14.25-1.64-12.39-.88-24.85-1-37.29C1951.43,1028.14,1951.7,1025.69,1949.05,1023.34Z"/><path class="cls-2" d="M2138.9,1023.56a24.89,24.89,0,0,1,2.73-.47c4.33,0,8.85-.81,12.93.2,4.41,1.09,2.73,6.47,4.5,9.75,7.23,13.4,13.58,27.28,20.28,41,1.78,3.64,3.17,7.53,7.74,10.6h-17c2.79-6.07-3-9.85-4.27-14.92-.27-1.1-2.08-.65-3.2-.66-8.82,0-17.64,0-26.46,0-2.23,0-3.64.38-4.33,2.87-1.1,3.91-4.8,7.11-3,11.83.44,1.13-.74,1.27-1.54,1.27-4.11,0-8.21,0-12.92,0,7-9.38,9.84-20,14.69-29.62,4-8,7.21-16.31,10.9-24.44C2141.09,1028.45,2142.47,1026.15,2138.9,1023.56Zm-1.23,36.46c7,0,13.5,0,20,0,1.27,0,3.13.13,2-2.07-3.62-7.46-6.38-15.36-11.41-23.08C2144.69,1043.64,2140.49,1051.28,2137.67,1060Z"/><path class="cls-2" d="M1122.72,1023.21h18.35c-1.56,2.7-.75,5,.52,7.52,7.19,14.38,14.11,28.89,21.23,43.3,1.79,3.61,2.88,7.71,6.45,10.6h-15.62c1-3.5-1.56-12.77-4.22-15-1-.84-2.2-.59-3.33-.6-8.48,0-17,.12-25.46-.08-3-.07-5,1-5.61,3.69-.84,3.65-4.58,6.51-2.78,10.91.6,1.46-.94,1.42-1.85,1.43-4,0-7.93,0-11.85,0,9.16-16.3,15.22-33.69,23.19-50.19.79-1.63,1.31-3.4,2.18-5C1125.16,1027.56,1125.82,1025.45,1122.72,1023.21ZM1120.9,1060c7,0,13.27-.12,19.54,0,3,.07,3.57-.95,2.37-3.45-3.41-7.07-6.84-14.14-10.78-22.28Z"/><path class="cls-2" d="M2073.35,1086.16c-14.7-.23-25-3.11-33-11.68-12.41-13.33-11.43-36.94,7.26-47.07,14.9-8.07,29.93-6.59,45-.66,1.07.42,2.31,1.38,3.2,1.13,6-1.69,3.84,1.51,2.49,4.09-1.45,2.78-3,5.49-4.61,8.22-.38.68-.57,1.72-1.63,1.55s-1.26-.8-1.27-1.8c0-2.55-1.89-3.58-3.87-4.63a37.3,37.3,0,0,0-27.46-3.12c-8.39,2.12-13.87,7.5-16.09,15.89-2.69,10.16,1.71,17.8,9.5,23.63,10.5,7.86,26.61,7,36.51-1.34a4.43,4.43,0,0,0,1.93-3.83c-.08-1.19,0-2.65,1.32-2.91s2,1.09,2.68,2c2,2.62,4,5.26,5.78,8,1,1.51,1.46,3.42-1.58,3-1.92-.28-3,1-4.34,1.89C2087.6,1083.62,2079.27,1086.43,2073.35,1086.16Z"/><path class="cls-2" d="M1401.7,794.61c.8,14.81-9.06,21.84-20,28.13-4,2.33-8.6,3.35-12.91,5-2.52,1-4-.19-4.77-2.12s-.71-4.07,1.79-5.47c4.46-2.48,9.54-3.84,13.22-7.72,8.35-8.8,6.92-15.32-1.79-21.83-2-1.48-4.2-2.67-6-4.31-4-3.6-4.67-8.08-2.25-12.54,2.17-4,8.4-6.66,12.67-6C1394,769.67,1403,783.77,1401.7,794.61Z"/><path class="cls-2" d="M1179.05,1034v-14.58c4.78,4.87,10.66,3.55,16.25,3.58,11.66.07,23.31,0,35,.06,3.87,0,7.5-.3,10.56-4.39,1.5,5,1,9.27.64,13.46-.12,1.38-1.09,1.84-2.88.81-6.62-3.79-14-1.33-21-1.81-1.86-.13-1.84,1.57-1.84,2.91,0,15.31,0,30.61-.08,45.91,0,1.81,1.44,2.84,1.62,4.74h-15.87c3.62-2.65,3.36-5.88,3.35-9.1-.06-13.31-.16-26.62.06-39.93.06-3.79-1.11-5-4.81-4.71a83.81,83.81,0,0,1-11,0A14.88,14.88,0,0,0,1179.05,1034Z"/><path class="cls-2" d="M2234.46,1084.74h-16.55c3.77-2.67,3.44-5.91,3.43-9.14-.05-13.15-.2-26.31.08-39.45.09-4.3-1.34-5.51-5.39-5.16a91.4,91.4,0,0,1-11,0,12.41,12.41,0,0,0-9.1,3c-1.19-4.88-.38-9.43-.63-14.74,3.48,3.65,7.37,3.87,11.47,3.83,13.65-.12,27.31-.07,41,0,3.38,0,6.51-.45,9.2-3.93v14.44c-7.47-4.37-15.52-1.94-23.29-2.5-2.12-.15-2.36,1.33-2.36,3,0,15.15.06,30.29,0,45.44C2231.25,1081.71,2232.94,1082.53,2234.46,1084.74Z"/><path class="cls-2" d="M1878.46,618.47c-5.65,0-11.31-.12-17,0-2.93.09-4.21-.72-4.08-3.89.22-5.31.09-10.64,0-16,0-1.9.37-3.12,2.69-3.2,5.44-.21,10.83-1.51,16.31-1,6.83.67,13.53-1,20.31-1,2.83,0,3.8.93,3.72,3.74-.16,5.81-.2,11.64,0,17.45.11,3.18-1.18,4-4.1,3.88C1890.44,618.35,1884.45,618.47,1878.46,618.47Z"/><path class="cls-2" d="M1553,618.47c-6,0-12-.09-18,0-2.62.06-3.51-.92-3.46-3.49.13-6,.17-12,0-17.95-.09-2.94,1.13-4,3.83-3.56,12,1.82,24.12.56,36.14,1.92,2.39.27,3.12,1.11,3.08,3.36-.09,5.32-.13,10.64,0,16,.09,2.77-.81,3.86-3.68,3.78C1565,618.36,1559,618.47,1553,618.47Z"/><path class="cls-2" d="M1410.13,1023.35h15.71c-3.52,2.78-3.21,6.15-3.2,9.53q.09,21.93,0,43.85c0,2.81-.23,5.6,3.92,7.65-6.39,1-11.35.55-16.56.52C1412.29,1080.18,1412.29,1028,1410.13,1023.35Z"/></g></g></svg>