<svg xmlns="http://www.w3.org/2000/svg" viewBox="0 0 3469.31 2064.42"><defs><style>.cls-1{fill:#1d130a;}.cls-2{fill:#ebd5b0;}</style></defs><g id="Layer_2" data-name="Layer 2"><g id="Layer_1-2" data-name="Layer 1"><path class="cls-1" d="M127.56,986.31c259.28,632.56,881.15,1078.11,1607.1,1078.11s1347.81-445.55,1607.1-1078.11Z"/><path class="cls-1" d="M2165.66,400.92q651.83-.12,1303.65-.07C3457.8,680.76,3380,943.57,3251.24,1174H218.07C89.29,943.57,11.52,680.76,0,400.85q632.72,0,1265.42.07a14.55,14.55,0,0,0,10.67-4q203.63-184,407.38-367.91c10.61-9.58,21-19.35,31.57-29h1c1,1.09,1.91,2.27,3,3.25Q1937,200.08,2155,397A14.55,14.55,0,0,0,2165.66,400.92ZM2850,924.38c.1-2.9-1-4.88-4.3-4.8-7,.19-11.05-3.74-13.66-9.71-1.34-3-2.74-6.06-4-9.14-12.34-30.34-24.52-60.75-37-91-8.22-19.9-17.63-23.35-39.55-22.59-1.55,0-3.71,2.41-4.35,4.15-.87,2.39.37,4.49,3.38,4.93a42.27,42.27,0,0,1,5.34,1.26c8.3,2.36,10.1,5.76,6.81,13.59q-20.32,48.27-40.8,96.48c-3.17,7.51-7.84,12.69-16.83,12.1-3.29-.21-4.29,1.94-4.19,4.85s1.31,4.74,4.51,4.74h45c3.31,0,4.34-2.19,4.41-4.89s-1.07-4.74-4.39-4.79a105.87,105.87,0,0,1-11-.66c-5.24-.62-7.13-3.11-5.6-8.21,2.34-7.79,5.29-15.39,7.82-23.12.87-2.66,2.37-3.48,5.13-3.44,10.49.16,21,0,31.47.09,6.46,0,14.6-2,18.92,1.09,4.59,3.32,5.77,11.57,8.08,17.79,4.55,12.23,4.22,16.13-10.25,16.41-3.56.07-5.25,1.52-5,5.14s2.32,4.68,5.69,4.63,6.7-.07,10.05-.07c4.65,0,9.28,0,13.93,0h7.49c6,0,12,0,18,0C2848.44,929.28,2849.93,927.52,2850,924.38Zm-.19,136.1v-16.37H2378.91v16.37Zm-.27-396.88a107.49,107.49,0,0,0-.06-23.92c-1.59-15.24-10.57-24.65-25.1-29a79.48,79.48,0,0,0-35.16-2.12c-20.05,3.09-39.93,7.29-59.93,10.8-24.42,4.29-48.73,10-73.35,12.11-41.15,3.45-82.49,4.57-123.76,6.52q-34.7,1.63-69.42,2.75c-12.3.38-24.66.77-36.92,0-11.67-.72-21.93-5.12-28.64-15.7-20.06-31.66-49.6-45.56-93.37-45.74-7,1.14-20.9,2.66-34.47,5.77-31.09,7.12-58.23,21.6-79.87,45.52-11.6,12.82-11.65,29.66-.05,42.43.45.49.92,1,1.38,1.45,34.25,35.65,77.25,49.82,125.44,49.44,34.33-.26,61.58-15.27,80.34-44.43,5.4-8.4,12.7-14.06,22.32-15.3a210,210,0,0,1,33.8-1.81q71.43,2.4,142.83,5.76c22.29,1,44.74,1.56,66.77,4.74,33.08,4.77,65.86,11.61,98.75,17.67,17.85,3.28,35.6,7,54,4.56C2835.16,692.48,2847.31,682.08,2849.57,663.6Zm-160.3,261c.2-4.1-2.12-4.86-5.63-5.1-10.9-.74-13.48-3.44-14.34-14.39-.14-1.82-.16-3.66-.16-5.49q0-41.24,0-82.47a81.36,81.36,0,0,1,.87-10.44c.67-5.08,3.73-8,8.77-8.81a42.75,42.75,0,0,1,6-.63c3.17,0,4.53-1.59,4.5-4.64s-1.38-5-4.79-5q-26.23,0-52.47,0c-3.32,0-4.92,1.59-5,4.83s1.43,4.67,4.79,4.91c12,.87,15.16,4.11,15.21,16.17q.18,45,0,90c0,10.76-3.09,15.93-14.84,16.08-3.44.05-5.38,1.38-5.16,5.07s2.32,4.68,5.7,4.63c8.49-.12,17,0,25.49,0,8.33,0,16.66-.09,25,0C2686.6,929.3,2689.08,928.66,2689.27,924.57Zm-76.68.32c.28-3.54-1.51-5-5-5.38-6.75-.7-12.63-3.56-16.59-9.11-11.31-15.82-22.34-31.83-33.46-47.78-.08-.12,0-.31,0-.52s.09-.27.12-.39c12.62-4.74,18.84-8.14,24.24-13.6.78-.77,1.53-1.6,2.29-2.47,13.41-15.52,10.52-36.66-6.59-48.06-7.5-5-15.82-8.24-24.73-8.53-25-.79-49.93-1-74.91-1.44-3.39-.07-4.82,1.9-4.9,5-.08,3.67,2.07,4.61,5.47,4.77,10.49.47,13.83,4,14.34,14.42.08,1.66.11,3.33.11,5q0,41.73,0,83.46a66.42,66.42,0,0,1-1,10.9c-.74,4.43-3.73,6.94-8.05,7.78a39.75,39.75,0,0,1-6.45.68c-3.22.09-4.5,1.9-4.39,4.8.11,3.09,1.59,4.88,5,4.86q26.23-.07,52.46,0c3.15,0,4.47-1.64,4.65-4.61.26-4.07-2-4.93-5.57-5.16-8.92-.57-13.13-3-13.34-9.09-.5-14.41-.16-28.85-.16-43.62,10.55-1.57,19,.79,24.23,11.15a134.37,134.37,0,0,0,10.76,17.39A280.05,280.05,0,0,0,2569,918.61c5.68,6.42,13.48,9.67,22.14,10.19,5.15.31,10.33.18,15.49.44C2610,929.41,2612.3,928.57,2612.59,924.89Zm-201.83.2c29.48-15.18,44.65-46.84,39.28-82-6.28-41.12-47.59-68.12-87.53-57-28.76,8-53.88,34.32-54.47,73.21.66,5.61,1,11.28,2,16.82C2319,922.59,2368.7,946.74,2410.76,925.09Zm-78.85,160.65v-10.81c-14.93,2-29.81.41-44.55,1v-19.72c9.86,1.23,19.56-2,28.82,2.2V1046.3c-9.76,3.35-19.38,1-28.82,1.68v-17.85c11.33,0,22.29-.1,33.25.07,2.8,0,5.58.93,8.58,1.47v-11.42c-2.93.58-5.54,1.52-8.17,1.56-13,.15-26,.07-39,.07h-7c.66,3,1.6,5.42,1.62,7.83q.21,23.22,0,46.45c0,2.57-1,5.13-1.65,8,15.79,0,32.08-.07,48.36.07C2326.15,1084.23,2328.91,1085.17,2331.91,1085.74Zm-49.52-256.28c4.52-.4,5.61-3.22,5.43-7.32-.4-8.82-.54-17.64-.81-26.47-.18-6.1-1.63-7.56-7.86-7.6-11-.06-22,0-33,0q-36,0-72,0c-6.39,0-8,1.48-8.13,7.34-.21,9.16-.25,18.32-.51,27.47-.1,3.72,1,6.19,5.07,6.58,4.51.43,7.64-1.74,8.52-5.66,1.19-5.34,2.21-10.76,3.88-16,1.94-6,6.32-10,12.67-10.58s12.58-.12,19.47-.12c.11,1.89.27,3.36.27,4.84q0,49.21,0,98.43a72.76,72.76,0,0,1-.58,9c-.74,5.77-3.9,8.86-9.68,9.71a47.81,47.81,0,0,1-5.46.53c-3.4.08-4.18,2.21-4.06,5s1.47,4.61,4.65,4.61c17.49,0,35,0,52.46,0,3.89,0,5.57-2.51,4.82-6.31s-3.69-3.19-6.26-3.42c-9.79-.87-12.78-4-13.27-13.79-.1-2-.18-4-.18-6q0-48.72,0-97.44c0-1.74.17-3.49.26-5.34,6,0,11.32-.21,16.63.05,8.5.41,13.57,4.36,16,12.53,1.34,4.44,2.2,9,3.12,13.6S2277.65,829.88,2282.39,829.46Zm-25.55,203v-12.24c-3.23.58-6.27,1.55-9.32,1.58q-21.48.26-43,0c-3.05,0-6.09-1-9.3-1.57v12.16c8.37-4.36,16.95-1.27,25.7-2.42,0,15.9.08,31-.06,46.14,0,2.59-.95,5.16-1.44,7.59h14.19c-2.74-3.49-3.84-45.41-1.62-53.72C2240.11,1031.3,2248.66,1027.83,2256.84,1032.46Zm-86.67,51.18h15.09c-1.65-2.31-3.46-4.26-4.59-6.55q-11.85-23.92-23.39-48c-1-2.06-1-4.59-1.48-7h-14.53c-.38,2.52-.28,4.84-1.11,6.76q-9.84,22.65-20,45.15c-1.51,3.35-3.45,6.5-5.28,9.9h12.84a57.16,57.16,0,0,1,.93-6.71c.49-1.91,1.71-3.64,2.22-5.55.84-3.15,2.73-4,5.85-3.9,8.32.2,16.66,0,25,.09,1.31,0,2.86,0,3.86.6C2168.17,1070.09,2171.12,1080.74,2170.17,1083.64Zm-25.92-254.26c3.89-.11,5.33-2.55,5.19-6.4-.33-8.66-.37-17.32-.63-26-.24-8-1.23-8.93-9.09-8.94q-29.23,0-58.47,0c-15.16,0-30.32,0-45.48,0-6.13,0-7.66,1.5-7.82,7.06-.25,9-.41,18-.75,27-.14,4,.7,7,5.37,7.35s7.66-1.87,8.53-6.31c.92-4.72,1.82-9.48,3.19-14.09,1.47-5,4.29-9.73,9.54-10.7,7.51-1.39,15.27-1.45,23-2.08.17,2.21.29,3,.29,3.85q0,51.23,0,102.46a45,45,0,0,1-.73,7.93c-.89,5-4,7.87-9.09,8.53a45.65,45.65,0,0,1-5.46.53c-3.22,0-4.57,1.79-4.51,4.69s1.38,5,4.87,5q26.23-.09,52.46,0c3.49,0,4.68-1.89,4.77-5,.12-4.27-2.71-4.53-6-4.77-10.21-.75-12.7-3.29-13.51-13.46-.25-3.15-.41-6.32-.41-9.48q0-46.49,0-93V797c6.39,0,12-.2,17.67.06,7.64.35,12.88,4.32,15.1,11.65,1.54,5.08,2.62,10.31,3.65,15.53C2136.86,829.06,2140.52,829.48,2144.25,829.38Zm-50.81-389.29h6.48L1715.54,91.73,1331.16,440.09h60.33c13.26,0,13.27,0,13.27,13.45V688.73H1444V453.62c0-1.66,0-3.34-.07-5-.9-12.23-9.89-21-22.13-21.56l-4.34-.24,298.09-270.15,298.69,270.7c-18.2-1.28-28.18,8-28.18,25.24q0,115,0,230v6.13h39.16V682q0-114.24,0-228.47c0-2.81.37-5.63.6-8.44.31-3.76,2.08-5.15,6.11-5.1C2052.45,440.21,2073,440.09,2093.44,440.09Zm7.92,633.82-7.45-10.2c-3.59,3.4-6.27,6.94-9.8,9.07-10.1,6.12-24.29,4.42-33.6-3.45-6.46-5.46-9.57-12.37-8.06-20.82,1.59-8.85,7.14-14.62,15.54-17.25a35.65,35.65,0,0,1,27.19,2.16c2.65,1.32,4.72,3.8,7.58,6.18l6.55-11.59c-3.81-1.21-7.07-2.16-10.27-3.28-13.74-4.78-27.49-5.54-40.69,1.33-20.76,10.81-22.33,39.17-2.61,51.81,15.51,9.94,31.74,9.44,47.72.33C2095.93,1076.79,2098.46,1075.48,2101.36,1073.91Zm-73.28-144.66c3.31,0,5.39-1.52,4.91-4.7-.26-1.77-2.25-4.71-3.44-4.7-8.59.08-12.49-5.31-15.32-12.12-4.79-11.52-9.47-23.08-14.18-34.62-9.12-22.32-17.87-44.81-27.48-66.91-6.81-15.67-22.47-23-38.73-19-1.52.37-3.43,2.85-3.48,4.41s1.82,3.43,3.34,4.44,3.5.88,5.26,1.38c8.45,2.38,10.21,5.81,6.76,14-13.44,31.87-27,63.69-40.43,95.57-3.21,7.64-7.68,13.22-17,12.63-3.22-.2-4.44,1.79-4.34,4.75s1.26,4.84,4.46,4.84c15,0,30,.15,45-.2,1.56,0,3.88-2.76,4.38-4.64.7-2.62-.82-4.72-4.14-4.81a112.46,112.46,0,0,1-11.46-.73c-4.77-.61-6.64-3-5.28-7.57,2.49-8.43,5.49-16.72,8.56-25,.39-1,2.5-2,3.82-2q24.24-.21,48.47,0a5.33,5.33,0,0,1,4,2.51c2.62,5.74,5,11.6,7.13,17.55,4.21,12,2.76,14.17-10.12,15.07-3.44.24-6,1-5.73,5.05.21,3.9,2.53,4.86,6.09,4.79,8-.17,16-.06,24-.06v0C2011.43,929.23,2019.75,929.17,2028.08,929.25Zm-14.5,92.86h-13.07c.5,2.91,1.34,5.65,1.38,8.4.16,10.5.09,21,0,31.49,0,7.54-2.68,11.64-10,12.66a74.35,74.35,0,0,1-19.77.09c-7.38-1-10-5-10.08-12.49,0-10.66-.1-21.33.06-32,0-2.71.86-5.42,1.33-8.16h-13.09c.51,2.9,1.35,5.63,1.4,8.37.18,11.16,0,22.33.19,33.49.24,10.72,5,17.38,15.5,19a96.4,96.4,0,0,0,27.19.42c12.28-1.66,17.29-8.65,17.41-21.12.1-10.49-.08-21,.09-31.49C2012.24,1027.89,2013.09,1025,2013.58,1022.11Zm-85.53,48.76c2-9-.26-14.35-8.51-20,6.9-3.72,8.12-9.3,6.83-16-1.33-6.93-5.73-10.79-12.35-12a68.44,68.44,0,0,0-11.89-.94c-12.25-.12-24.49,0-36.21,0,.54,3,1.36,5.43,1.38,7.9q.18,22.23,0,44.47c0,3.22-.79,6.43-1.25,9.88,11.14,0,22.63.06,34.11,0a95.26,95.26,0,0,0,13.42-.74C1920.87,1082.27,1926.37,1078.58,1928.05,1070.87ZM1910,688.77v-48.7H1521.17v48.7Zm-10.2-71.84V592.34l-42.16,1.79v22.8ZM1901,569.7c-3-16.55-5.85-32.13-8.85-48.63l-39.93,14.57c2,12.34,3.87,23.89,5.81,35.85Zm-18.18-69.19a178,178,0,0,0-28.27-43.26L1825,485.14l19,29.48Zm-12.36,424.33c.24-3.58-1.75-4.48-5-5.46-5-1.53-10.62-3.14-14.13-6.6-14.91-14.71-25.22-32.87-36.43-50.72,4.6-1.88,8.58-3.17,12.23-5.1a57.15,57.15,0,0,0,10.38-6.84c19.74-16.9,16.65-43.08-6.37-55.14-10.48-5.49-21.83-6.8-33.41-6.91-20.15-.2-40.31-.25-60.46-.47-3.45,0-6,.63-6.27,4.6-.31,4.41,2.38,5,6,5.17,9.45.39,12.77,3.69,13.67,13,.19,2,.2,4,.2,6q0,42.23,0,84.46a67.93,67.93,0,0,1-.81,9.43c-.77,5.34-4.1,8.15-9.35,8.81-2,.25-4.21-.08-5.89.75s-3.47,2.62-3.67,4.2c-.52,4.08,2.09,5.27,6,5.23,15.65-.16,31.31,0,47-.18,3.48,0,8.29,2,9-4.1.75-6.63-4.51-5.2-8.14-5.67-6.42-.84-10.5-3.33-10.66-8.57-.44-14.58-.15-29.17-.15-43.84,11.4-2.23,17.15.11,23.27,9.81,2.84,4.5,5.43,9.18,8.44,13.57,5.83,8.5,11.46,17.19,17.94,25.18a35.1,35.1,0,0,0,29.32,13.5c3.83-.09,7.67,0,11.49.28C1867.92,929.43,1870.22,928.57,1870.47,924.84Zm-96.82-308.08h62c-.79-19.93,0-39.73-2.63-59-7.66-55.3-53.58-96.32-110.63-100.54-53.23-3.93-104.42,32-120.55,84.14-7.63,24.67-4.13,49.89-5.26,75.43h65.4c-12.26-22-9.46-43.61-.93-65.77l20.28,7.13c1.1-17.13,5.72-32.53,15.63-46.12s24.11-21.81,39.22-29.82c.66,8.37,1.89,16,1.74,23.62-.32,15.9,5.28,29.12,15.75,40.85a166.3,166.3,0,0,1,15.79,20.57c7.36,11.45,10.31,24.12,7.39,37.72C1776,608.89,1774.73,612.77,1773.65,616.76Zm65.15-175.59a180.65,180.65,0,0,0-42-28.39l-15.93,36.89,28.36,19.38Zm-38.53,644.72v-12.83c-3.89,3-35.3,4.23-44.93,2,0-5.19-.19-10.5.16-15.78.06-1,2.13-2.73,3.35-2.79,5.65-.3,11.32-.3,17-.07a71.06,71.06,0,0,1,8.82,1.45v-11.55c-9.79,3.3-19.42.94-29,1.72v-17.92c11.31,0,22.28-.11,33.24.07,2.92,0,5.82,1,8.67,1.48v-11.4c-2.8.59-5.22,1.51-7.65,1.53-15.62.13-31.24.07-46.33.07.53,3,1.35,5.58,1.38,8.18q.18,23,0,46c0,2.6-.84,5.19-1.35,8.12h4.43c14.82,0,29.64-.08,44.45.08C1795.09,1084.24,1797.64,1085.29,1800.27,1085.89ZM1770.49,352.1V304.42h-48V352.1Zm0-61.92V242.53h-48v47.65Zm-10.33,150.76L1776,404.1c-16-5.52-32-9-48.86-9.59v39.84ZM1748.59,615c6.5-10,9.55-20.76,3.7-32a87.65,87.65,0,0,0-11.23-16.41c-10.75-12.61-21-25.41-24.32-43.3-1.74,2.38-3,3.87-4,5.51-9,14.86-10.73,30.86-7.31,47.64,1,4.82,1.93,9.64,3.06,15.32l-32.23-11.41c-1.08,14.88,3.57,26.42,14.19,35.44a7.61,7.61,0,0,0,4.6,1.27c16.33.08,32.65.1,49,0C1745.59,617,1747.82,616.19,1748.59,615Zm-25.43,443.68c1.94-19-6.59-32.27-23.14-35.94a25.67,25.67,0,0,0-5.42-.77c-13-.06-26.1,0-38.57,0,.66,2.94,1.63,5.34,1.66,7.74q.21,23.5,0,47c0,2.26-1,4.51-1.58,7.3-.26-.07.05.09.36.09,12.5,0,25,.1,37.49.06C1710.45,1084.06,1721.56,1074.34,1723.16,1058.68Zm-9.92-229.32c3.59-.15,5.17-2.34,5-6-.34-8.82-.42-17.66-.76-26.48-.31-8-1.16-8.78-9.15-8.78q-40.24,0-80.49,0c-8,0-16,0-24,0-4.59,0-7.1,1.79-7.11,6.83,0,9-.36,18-.7,27-.15,3.87.35,7.08,5.09,7.57,4.94.51,7.92-1.8,8.85-6.54a131.71,131.71,0,0,1,3.22-14.08c2.35-7.43,7.57-11.62,15.51-11.87,5.48-.17,11,0,17.1,0,.09,1.62.21,2.75.21,3.88q0,50.51,0,101a54.82,54.82,0,0,1-.89,8.93c-.81,4.86-3.92,7.54-8.72,8.28a49.67,49.67,0,0,1-6,.6c-3.26.09-4.43,2-4.3,4.88s1.37,4.75,4.59,4.75h53c3.19,0,4.4-1.8,4.55-4.73.18-3.69-1.75-4.76-5.2-5-11.34-.85-13.23-2.82-14.46-14.2a56.94,56.94,0,0,1-.3-6q0-48.49,0-97c0-1.63.14-3.25.24-5.44,5.57,0,10.86-.18,16.13,0,9.33.39,14.45,4.35,17,13.32,1.38,4.79,2.13,9.75,3.27,14.61C1706,829.35,1709.73,829.51,1713.24,829.36Zm-8.67-476.84c3.7.05,4.42-1.46,4.37-4.74-.16-9.65-.06-19.3-.06-29V304.28H1660.8a14.84,14.84,0,0,0-.49,2.59c0,14,0,28-.09,41.94,0,3.42,1.77,3.67,4.4,3.66C1677.94,352.41,1691.25,352.33,1704.57,352.52Zm4-62.31V242.37h-47.87v47.84Zm-4.45,144.15v-40c-17.22,1.09-33.37,4.08-49.23,9.91l16,36.84Zm-54,15.55-16.52-38.2-42.33,28.72,30.66,28.84ZM1577,1083.72h14.3l-17.54-26.61c1.39-.49,2-.75,2.6-.92,10.33-2.7,14.4-8.42,13.75-19.38-.49-8.2-5.72-14-15.59-14.46-15.24-.73-30.54-.19-45.12-.19.51,2.84,1.4,5.57,1.43,8.31q.21,22.74,0,45.48c0,2.58-1,5.15-1.53,7.85h13.52c-3.37-8.8-1-17.56-1.78-26.51,6.71,0,12.54-.26,18.33.14a8.13,8.13,0,0,1,5.44,3c4,5.73,7.62,11.72,11.12,17.77C1576.81,1079.77,1576.68,1081.87,1577,1083.72Zm10.32-568.94,18.83-29.39-29.82-28.06a179.72,179.72,0,0,0-28.1,43.27Zm-14,56.91c2-12.22,3.85-23.81,5.81-35.89l-40.32-14.63c-3,16.55-5.8,32.26-8.75,48.69Zm.39,45.17V594.23l-42.49-1.65v24.28Zm-48.6,283.36c3.32-16.63-3.72-32.87-19.16-42.19-9.38-5.65-19.6-9.87-29.22-15.15-7.25-4-14.77-7.87-21-13.14-8.36-7-8.35-20.14-1.19-28.37,8.53-9.81,29.67-11.25,39.43-2.68,7.66,6.71,6.58,18-2.18,22.95-1.09.62-2.11,1.35-4.27,2.73,2.81,2.12,4.71,4.36,7.11,5.23,9.83,3.57,21.35-3.1,23.61-13.35s-2-20.07-11.87-25.17c-20.17-10.38-40.68-10.06-60.9-.05-8.14,4-13.25,10.93-15.56,19.81-4.81,18.51,1.79,35.1,18.69,44.71,10.1,5.75,20.94,10.18,31.22,15.63,5.69,3,11.54,6.24,16.2,10.56,12.1,11.24,10,28.6-4.11,37.32-8.38,5.2-17.52,5.8-27,4-8.24-1.54-14.11-5.77-16.18-14.23-2-8-1-15,8.46-19.93-2.92-2.38-4.65-4.56-6.9-5.49-10.29-4.26-23.12,3.51-24.41,14.54-1.47,12.65,3.79,23.51,15.39,28.69a77.89,77.89,0,0,0,21.51,5.81c15.51,2,30.63.26,44.28-8.23C1516.18,918.59,1523,911.07,1525.17,900.22Zm-19,185.37v-10.65c-14.93,2-29.74.34-44.63,1v-19.75c9.91,1.15,19.66-1.91,29.12,2.15V1047c-9.87,2-19.59.71-29.12.94v-17.78c11,0,21.67-.12,32.31.07,3.24.06,6.46,1,9.73,1.51V1020.2c-3,.6-5.75,1.55-8.5,1.6-9.82.19-19.65.08-29.48.08h-16.23c.6,2.95,1.51,5.37,1.53,7.79q.19,23.24,0,46.47c0,2.58-.9,5.14-1.44,8,15.34,0,31.14-.08,47,.07C1499.66,1084.23,1502.9,1085.1,1506.18,1085.59Zm-82.68-63.4h-13.41c.59,2.79,1.57,5.33,1.6,7.89q.22,21.93,0,43.86c0,3.34-.89,6.68-1.36,10h13.14c-.5-2.61-1.35-5-1.37-7.48q-.18-23.42,0-46.85C1422.12,1027.13,1423,1024.7,1423.5,1022.19Zm-31-209.19c6.29-4.38,8.61-11.61,8.71-20.54a28.61,28.61,0,0,0-10.27-21.21,17.36,17.36,0,0,0-13.85-4.42c-4.63.55-7.51,3.41-9,7.59s-.35,7.87,3.19,10.65c2,1.54,4,3,6,4.47,8.68,6.35,9.16,15.5.73,22.36-3.42,2.78-7.86,4.29-11.49,6.85-1.53,1.07-2.17,3.4-3.21,5.15,2,.69,4.48,2.53,5.79,1.89C1377.06,821.9,1385.21,818.06,1392.48,813Zm1.36,272.68v-12.2c-4.11,2.64-33.42,3.73-44.61,1.82a8.66,8.66,0,0,1-.36-1.81c0-15.33-.09-30.65,0-46,0-1.76,1.1-3.52,1.71-5.34H1337c.53,2.67,1.42,5.12,1.45,7.58q.19,22.5,0,45c0,3.06-.87,6.1-1.37,9.4,15.62,0,31.61-.08,47.58.07C1387.71,1084.23,1390.8,1085.17,1393.84,1085.68Zm-44.26-288.39c3.52.06,4.71-1.78,4.58-5s-1.84-4.7-5.12-4.69q-22.23.07-44.48,0c-3.44,0-4.79,1.77-4.87,4.93-.09,3.31,1.41,4.91,4.83,4.78a36.18,36.18,0,0,1,6,.34c6.68.87,7.83,2.67,4.92,8.92-3.78,8.15-8,16.11-12,24.13-4.25,8.43-8.54,16.84-13.45,26.52-7.44-15-14.7-28.46-21-42.41-9.52-21.24-26.51-28.62-48.44-27.77-2.77.11-5.34.47-5.72,4.14s1.51,5.14,4.75,5.63c11.55,1.74,19.19,8.55,24.31,18.68,7.19,14.27,14,28.76,21.73,42.71,9.42,17,6.46,34.87,5.36,52.69-.29,4.64-3.75,7.26-8.31,8.07a39.91,39.91,0,0,1-6,.63c-3.42.09-4.83,1.91-4.62,5.1.19,2.9,1.65,4.57,4.78,4.56q26.25,0,52.49,0c3.45,0,4.72-1.79,4.84-5,.16-3.85-2.06-4.58-5.37-4.81-11-.78-13.44-3-14.23-13.86a158.54,158.54,0,0,1-.17-24.46c.49-6,1.66-12.36,4.27-17.7,8.19-16.74,17.36-33,25.84-49.6C1329.83,803.47,1337.45,797.08,1349.58,797.29Zm-34.7,288.33v-10.69c-15,2-29.8.45-44.49,1v-19.87c9.82,1.48,19.54-1.76,29.06,2.25v-11.87c-9.72,3.15-19.37.81-28.94,1.65v-17.95c11.42,0,22.41-.1,33.39.07,2.74,0,5.46,1,8.34,1.58v-11.51c-2.78.58-5.21,1.51-7.66,1.54-14.16.14-28.32.06-42.48.08-1.54,0-3.08.2-3.83.25.61,2.71,1.51,4.95,1.53,7.19q.2,22.74,0,45.49c0,3-1,6.06-1.51,9.31,15.47,0,31.46-.08,47.44.07C1308.83,1084.23,1311.91,1085.13,1314.88,1085.62Zm-44.32-400.24c-.09-.46-.19-.91-.29-1.37h-6q-78,0-156-.09c-2.48,0-5.31.4-7.37-.61s-4.65-3.66-4.52-5.41c.18-2.4,2.46-4.86,4.33-6.83.82-.87,2.83-.76,4.32-.85,23-1.41,45.88-3.06,68.85-4.07,30.3-1.34,60.61-2.16,90.92-3.23,1.52,0,3-.38,4.54-.57-13.39-1.55-26.66-2.1-39.94-2.35q-63.23-1.23-126.46-2.28a33,33,0,0,1-4-.27c-3.16-.41-4.6-2.24-4.6-5.44,0-4.57,1.7-5.81,8.26-6q74.22-1.54,148.45-3.13c6.42-.15,12.84-.63,19.27-1a6.59,6.59,0,0,0-4-1.19c-27.31-1-54.63-1.68-81.93-2.9-26.3-1.18-52.58-2.74-78.85-4.41-7.34-.47-9.76-2.89-9.55-7.56.2-4.42,2.52-5.95,10.17-6q78.75-.15,157.48-.17h6.1c0-.53,0-1.06,0-1.59-9.33-1-18.65-2.25-28-3.09-40.48-3.62-80.94-7.48-121.47-10.52-14.56-1.09-29.31-.69-43.91.11-14.16.78-25.77,8.1-36.52,17-13.59,11.23-28.8,17.47-47,17.61-75.81.55-151.66,2.52-227.11-7.44-30.52-4-60.91-9.05-91.4-13.35-17.28-2.44-34.58-5-52-6.23-13.34-.94-24.31,5-31.69,16.47-12.7,19.79-12.79,26.55.16,46.4,5.8,8.9,13.83,15.2,24.8,15.77,9.11.48,18.38.65,27.38-.55,16.16-2.14,32.12-5.66,48.24-8.15C751.1,673,811,664.57,871.66,664.55q65.48,0,131,.65a34.92,34.92,0,0,1,15.38,3.54,181.74,181.74,0,0,1,24.78,15.71c10.64,8,22,14.6,35.38,14.71,21.62.17,43.3-.11,64.85-1.67,34.72-2.51,69.35-6.19,104-9.45C1254.88,687.3,1262.71,686.27,1270.56,685.38Zm-30.75,346.92v-12.23c-2.86.65-5.42,1.7-8,1.73q-21.71.24-43.43,0c-3.38,0-6.74-1-10-1.58v11.87c8.52-3.68,17-1.3,25.57-1.85,0,15.17.08,29.64-.06,44.11,0,3.18-.81,6.36-1.23,9.5h13.15c-.59-2.79-1.47-5.32-1.59-7.89-.24-5.32-.07-10.65-.07-16v-30C1223.1,1031.14,1231.69,1028,1239.81,1032.3Zm-41.54-202.91c3.52-.1,5.37-2.08,5.25-5.85q-.45-14.24-.66-28.48c-.07-4.73-2.2-7-7-7-35.65,0-71.3,0-106.95.06-5.26,0-6.79,1.74-6.93,6.94-.24,9-.37,18-.69,27-.14,3.93.55,7,5.25,7.43,4.94.42,7.68-1.87,8.65-6.71a130.6,130.6,0,0,1,3.5-14.52c1.59-5,4.7-9.34,10.06-10.16,7.26-1.12,14.68-1.17,22.15-1.68.15,2.39.29,3.54.29,4.68q0,50.24,0,100.45a56.64,56.64,0,0,1-.4,7.48c-.86,6.35-4,9.36-10.36,10.18a43.87,43.87,0,0,1-5,.45c-3.08.06-4.07,2-4,4.59s.94,5,4.26,5c17.82,0,35.65.11,53.46-.18,1.47,0,3.81-2.54,4.17-4.24.89-4.19-2-5.12-5.68-5.36-10.48-.68-12.94-3.32-13.67-13.82-.18-2.49-.31-5-.32-7.48q0-47.48,0-95v-6.3c6,0,11.3-.19,16.57,0,9,.41,14.13,4.4,16.64,13.11,1.37,4.79,2.12,9.75,3.23,14.61C1191.07,829.11,1194.72,829.49,1198.27,829.39ZM1153,1083.77h15.57c-1.68-2.29-3.52-4.17-4.64-6.42q-12-24.11-23.62-48.38c-.93-2-.94-4.34-1.46-6.91H1123.8c.11,2,.75,3.78.19,5.07-8.31,19-16.78,38-25.08,56.73h12c.18-2.29,0-4.24.53-6a22.54,22.54,0,0,1,2.93-6.84c1-1.45,3-3,4.67-3.08,7.81-.32,15.64-.15,23.46-.14C1149.89,1067.78,1155.89,1076.9,1153,1083.77ZM1064.2,901.14c3.9-16.59-3.28-33.64-19-43.15-9.24-5.57-19.26-9.81-28.77-14.93-6.87-3.69-14-7.21-20.09-11.95-9.16-7.1-10.14-20.28-3.1-29,8.37-10.42,30.13-12.21,40.07-3.3,7.62,6.82,6.45,18-2.4,22.92-1,.56-2,1.16-4.17,2.47,2.79,2.16,4.73,4.54,7.22,5.44,9.47,3.42,20.6-2.7,23.34-12.44,2.85-10.13-1.54-20.85-11.72-26.1-20-10.3-40.36-10-60.47-.24-8.69,4.24-14,11.55-16.18,21.06-4.2,18.47,2.33,34.28,19,43.72,10,5.65,20.67,10,30.77,15.43,6.1,3.28,12.37,6.8,17.33,11.51,10.7,10.16,9.09,26.4-2.86,35.18-8.61,6.33-18.34,7.25-28.58,5.44-8.22-1.45-14.2-5.51-16.48-13.92-2.22-8.17-1.11-15.25,8.17-20.31-2.64-2.21-4.4-4.54-6.74-5.5-10.73-4.39-23.74,4-24.5,15.6-.81,12.55,3.9,22.76,15.55,27.69,22.66,9.58,45.39,9.68,67-3.36C1056,918.31,1061.9,910.94,1064.2,901.14Zm-11.55,157c.28-4.6.13-9.22.13-13.93H581.17v16.63h464.32c1.5,0,3.12.33,4.47-.12C1051.06,1060.35,1052.59,1059.09,1052.65,1058.15ZM936.14,797.33c3.66-.21,5.82-1.35,5.56-5.21-.23-3.57-2.46-4.56-5.83-4.54q-25.25.17-50.48,0c-3.58,0-6,1-6.09,4.8s2.25,4.83,5.81,5c10.12.45,13.85,3.65,13.95,13.63q.51,46.74.1,93.47c-.12,11.65-2.83,13.91-14.68,15-3.47.32-5.38,1.63-5.17,5.15s2.29,4.69,5.74,4.62c8.32-.17,16.66-.06,25,0,8.83,0,17.67.16,26.49-.14a6.42,6.42,0,0,0,4.7-3.11c.64-1.42.1-4.43-1-5.32-1.48-1.16-4-1-6.16-1.26-8.49-.9-11.59-3.78-12-12.3-.44-9-.54-18-.53-27,0-23,0-46,.47-69C922.21,800.55,925.32,797.93,936.14,797.33ZM865,924.62c.19-3.29-1.79-4.2-4.75-5.18-5.09-1.68-11-3.23-14.56-6.8C830.93,898,820.65,880,809.35,861.91c2.44-.86,4.15-1.42,5.84-2.06,9.21-3.47,17.32-8.49,23.3-16.52,10.78-14.47,8.07-33.44-6.39-44.28-8.08-6-17.3-9.71-27.27-10-24.79-.81-49.61-1-74.42-1.42-3.44-.06-4.75,1.84-4.83,5-.1,3.71,2,4.63,5.38,4.79,10.48.49,14,3.57,14.09,13.95.33,30.64.23,61.29.27,91.94a41.2,41.2,0,0,1-.51,6.47c-.86,5.49-4,8.52-9.5,9.35a40.19,40.19,0,0,1-5.47.53c-3.32,0-4.35,2-4.25,4.87s1.22,4.77,4.5,4.77q26.48,0,53,0c3.25,0,4.48-1.91,4.63-4.69.21-3.92-2.13-4.89-5.7-5.11-9.11-.57-13.14-2.94-13.41-9.63-.58-14.25-.18-28.54-.18-42.81,11.39-2.37,17.38,0,23.34,9.45,2.85,4.5,5.43,9.18,8.42,13.58,5.59,8.27,11.06,16.65,17.2,24.5,6.38,8.15,14.9,13.31,25.45,14.22,5.46.47,11,.23,16.48.48C862.71,929.41,864.81,928.18,865,924.62ZM702.22,909.4c2.92-4.08,2.81-6.49-1.14-9.07-3.38-2.21-6-1.84-8.32,1.84-6,9.45-13.83,16.66-25.3,18.79-19.27,3.57-34.79-2.79-46.58-18.19-8.47-11-12.37-23.9-13.25-37.62-1.2-18.95.8-37.39,11.65-53.68,9.21-13.84,22.53-19.76,39.05-18.3,9.87.87,17.27,6.44,19.65,14.53,2.68,9.13.18,16.43-7.92,21.58-3.23,2.05-2.21,4.32-.13,6a16.31,16.31,0,0,0,6.9,3.62,21.68,21.68,0,0,0,25.33-17.22c2.8-13.25-2.36-24.19-14.44-30.36a72.11,72.11,0,0,0-34.32-7.6c-27,.51-48.94,10.21-62.66,34.66-8,14.23-10.26,29.77-9.67,45.84,1.34,36.46,24.8,63.65,60,68.26C665.25,935.67,687,930.68,702.22,909.4Z"/><path class="cls-1" d="M218.07,1174H3251.24c-296.88,531.23-864.78,890.42-1516.58,890.42S515,1705.23,218.07,1174Z"/><path class="cls-1" d="M2845.73,919.58c3.28-.08,4.4,1.9,4.3,4.8-.1,3.14-1.59,4.9-5,4.87-6,0-12,0-18,0h-7.49c-4.65,0-9.29,0-13.93,0q-5,0-10.05.07c-3.37,0-5.47-1-5.69-4.63s1.47-5.07,5-5.14c14.47-.28,14.8-4.18,10.25-16.41-2.31-6.22-3.49-14.47-8.08-17.79-4.32-3.12-12.46-1-18.92-1.09-10.49-.08-21,.07-31.47-.09-2.76,0-4.26.78-5.13,3.44-2.53,7.73-5.48,15.33-7.82,23.12-1.53,5.1.36,7.59,5.6,8.21a105.87,105.87,0,0,0,11,.66c3.32.05,4.46,2,4.39,4.79s-1.1,4.89-4.41,4.89h-45c-3.2,0-4.41-1.83-4.51-4.74s.9-5.06,4.19-4.85c9,.59,13.66-4.59,16.83-12.1q20.37-48.25,40.8-96.48c3.29-7.83,1.49-11.23-6.81-13.59a42.27,42.27,0,0,0-5.34-1.26c-3-.44-4.25-2.54-3.38-4.93.64-1.74,2.8-4.1,4.35-4.15,21.92-.76,31.33,2.69,39.55,22.59,12.5,30.27,24.68,60.68,37,91,1.26,3.08,2.66,6.1,4,9.14C2834.68,915.84,2838.73,919.77,2845.73,919.58Zm-98.18-45.72h45.74L2771,817.06C2762.85,836.73,2755.3,855.06,2747.55,873.86Z"/><path class="cls-1" d="M2849.84,1044.11v16.37H2378.91v-16.37Z"/><path class="cls-1" d="M2849.51,639.68a107.49,107.49,0,0,1,.06,23.92c-2.26,18.48-14.41,28.88-34.48,31.53-18.39,2.42-36.14-1.28-54-4.56-32.89-6.06-65.67-12.9-98.75-17.67-22-3.18-44.48-3.71-66.77-4.74q-71.39-3.3-142.83-5.76a210,210,0,0,0-33.8,1.81c-9.62,1.24-16.92,6.9-22.32,15.3-18.76,29.16-46,44.17-80.34,44.43-48.19.38-91.19-13.79-125.44-49.44-.46-.48-.93-1-1.38-1.45-11.6-12.77-11.55-29.61.05-42.43,21.64-23.92,48.78-38.4,79.87-45.52,13.57-3.11,27.51-4.63,34.47-5.77,43.77.18,73.31,14.08,93.37,45.74,6.71,10.58,17,15,28.64,15.7,12.26.75,24.62.36,36.92,0q34.73-1.08,69.42-2.75c41.27-2,82.61-3.07,123.76-6.52,24.62-2.07,48.93-7.82,73.35-12.11,20-3.51,39.88-7.71,59.93-10.8a79.48,79.48,0,0,1,35.16,2.12C2838.94,615,2847.92,624.44,2849.51,639.68Z"/><path class="cls-1" d="M2827.07,929.22h-7.49c-4.65,0-9.28,0-13.93,0,4.64,0,9.28,0,13.93,0Z"/><path class="cls-1" d="M2793.29,873.86h-45.74c7.75-18.8,15.3-37.13,23.4-56.8Z"/><path class="cls-1" d="M2683.64,919.47c3.51.24,5.83,1,5.63,5.1s-2.67,4.73-6.12,4.68c-8.32-.13-16.65,0-25,0-8.5,0-17-.08-25.49,0-3.38,0-5.48-1-5.7-4.63s1.72-5,5.16-5.07c11.75-.15,14.81-5.32,14.84-16.08q.15-45,0-90c-.05-12.06-3.21-15.3-15.21-16.17-3.36-.24-4.89-1.62-4.79-4.91s1.7-4.83,5-4.83q26.23.06,52.47,0c3.41,0,4.76,1.81,4.79,5s-1.33,4.6-4.5,4.64a42.75,42.75,0,0,0-6,.63c-5,.8-8.1,3.73-8.77,8.81a81.36,81.36,0,0,0-.87,10.44q-.11,41.24,0,82.47c0,1.83,0,3.67.16,5.49C2670.16,916,2672.74,918.73,2683.64,919.47Z"/><path class="cls-1" d="M2607.61,919.51c3.47.36,5.26,1.84,5,5.38s-2.62,4.52-5.92,4.35c-5.16-.26-10.34-.13-15.49-.44-8.66-.52-16.46-3.77-22.14-10.19a280.05,280.05,0,0,1-17.88-23.32,134.37,134.37,0,0,1-10.76-17.39c-5.22-10.36-13.68-12.72-24.23-11.15,0,14.77-.34,29.21.16,43.62.21,6.09,4.42,8.52,13.34,9.09,3.56.23,5.83,1.09,5.57,5.16-.18,3-1.5,4.62-4.65,4.61q-26.22,0-52.46,0c-3.41,0-4.89-1.77-5-4.86-.11-2.9,1.17-4.71,4.39-4.8a39.75,39.75,0,0,0,6.45-.68c4.32-.84,7.31-3.35,8.05-7.78a66.42,66.42,0,0,0,1-10.9q.12-41.73,0-83.46c0-1.66,0-3.33-.11-5-.51-10.46-3.85-13.95-14.34-14.42-3.4-.16-5.55-1.1-5.47-4.77.08-3.08,1.51-5.05,4.9-5,25,.44,49.95.65,74.91,1.44,8.91.29,17.23,3.54,24.73,8.53,17.11,11.4,20,32.54,6.59,48.06-.76.87-1.51,1.7-2.29,2.47-5.4,5.46-11.62,8.86-24.24,13.6h0a4,4,0,0,1-.11.39c-.07.21-.12.4,0,.52,11.12,16,22.15,32,33.46,47.78C2595,916,2600.86,918.81,2607.61,919.51Zm-41.75-80.71a53.73,53.73,0,0,0,1.13-17.71c-1.49-11.4-8.21-19.41-19.55-22.05-6.86-1.6-14.14-1.9-21.24-1.89-6.65,0-9.8,3.1-10.14,9.9-.6,12-.55,24-.73,36-.06,4.62,0,9.24,0,14.58,12.29-.43,24.12,1.36,35.57-2.68C2558.64,852.17,2564.15,846.82,2565.86,838.8Z"/><path class="cls-1" d="M2567,821.09a53.73,53.73,0,0,1-1.13,17.71c-1.71,8-7.22,13.37-15,16.1-11.45,4-23.28,2.25-35.57,2.68,0-5.34-.05-10,0-14.58.18-12,.13-24,.73-36,.34-6.8,3.49-9.89,10.14-9.9,7.1,0,14.38.29,21.24,1.89C2558.78,801.68,2565.5,809.69,2567,821.09Z"/><path class="cls-1" d="M2557.71,861.71h0q0,.18-.12.39A4,4,0,0,0,2557.71,861.71Z"/><path class="cls-1" d="M2450,843.1c5.37,35.15-9.8,66.81-39.28,82-42.06,21.65-91.79-2.5-100.69-49-1.06-5.54-1.37-11.21-2-16.82.59-38.89,25.71-65.22,54.47-73.21C2402.45,775,2443.76,802,2450,843.1Zm-32.17,50.84c6.52-16.31,7.55-33.4,5.67-50.64a72.17,72.17,0,0,0-11-31.8c-15.92-24.72-55.05-24.44-68.56,4.11-6.49,13.73-9.19,28.06-9.15,36.07-.09,22.9,2.26,38.27,10.79,52.05,9.88,16,25.78,22.55,43.8,18.09C2404.27,918.14,2412.52,907.31,2417.87,893.94Z"/><path class="cls-1" d="M2423.54,843.3c1.88,17.24.85,34.33-5.67,50.64-5.35,13.37-13.6,24.2-28.44,27.88-18,4.46-33.92-2.13-43.8-18.09-8.53-13.78-10.88-29.15-10.79-52.05,0-8,2.66-22.34,9.15-36.07,13.51-28.55,52.64-28.83,68.56-4.11A72.17,72.17,0,0,1,2423.54,843.3Z"/><path class="cls-1" d="M2331.91,1074.93v10.81c-3-.57-5.76-1.51-8.52-1.54-16.28-.14-32.57-.07-48.36-.07.62-2.84,1.63-5.4,1.65-8q.24-23.22,0-46.45c0-2.41-1-4.8-1.62-7.83h7c13,0,26,.08,39-.07,2.63,0,5.24-1,8.17-1.56v11.42c-3-.54-5.78-1.43-8.58-1.47-11-.17-21.92-.07-33.25-.07V1048c9.44-.67,19.06,1.67,28.82-1.68v12.11c-9.26-4.23-19-1-28.82-2.2v19.72C2302.1,1075.34,2317,1076.94,2331.91,1074.93Z"/><path class="cls-1" d="M2287.82,822.14c.18,4.1-.91,6.92-5.43,7.32-4.74.42-7.52-1.79-8.45-6.37s-1.78-9.16-3.12-13.6c-2.46-8.17-7.53-12.12-16-12.53-5.31-.26-10.64-.05-16.63-.05-.09,1.85-.26,3.6-.26,5.34q0,48.72,0,97.44c0,2,.08,4,.18,6,.49,9.83,3.48,12.92,13.27,13.79,2.57.23,5.51-.34,6.26,3.42s-.93,6.29-4.82,6.31c-17.49.06-35,0-52.46,0-3.18,0-4.54-1.68-4.65-4.61s.66-4.93,4.06-5a47.81,47.81,0,0,0,5.46-.53c5.78-.85,8.94-3.94,9.68-9.71a72.76,72.76,0,0,0,.58-9q.06-49.21,0-98.43c0-1.48-.16-3-.27-4.84-6.89,0-13.22-.43-19.47.12s-10.73,4.57-12.67,10.58c-1.67,5.2-2.69,10.62-3.88,16-.88,3.92-4,6.09-8.52,5.66-4-.39-5.17-2.86-5.07-6.58.26-9.15.3-18.31.51-27.47.13-5.86,1.74-7.33,8.13-7.34q36-.06,72,0c11,0,22,0,33,0,6.23,0,7.68,1.5,7.86,7.6C2287.28,804.5,2287.42,813.32,2287.82,822.14Z"/><path class="cls-1" d="M2256.84,1020.22v12.24c-8.18-4.63-16.73-1.16-24.82-2.48-2.22,8.31-1.12,50.23,1.62,53.72h-14.19c.49-2.43,1.41-5,1.44-7.59.14-15.12.06-30.24.06-46.14-8.75,1.15-17.33-1.94-25.7,2.42v-12.16c3.21.57,6.25,1.54,9.3,1.57q21.48.26,43,0C2250.57,1021.77,2253.61,1020.8,2256.84,1020.22Z"/><path class="cls-1" d="M2185.26,1083.64h-15.09c.95-2.9-2-13.55-4.64-15.24-1-.65-2.55-.59-3.86-.6-8.32,0-16.66.11-25-.09-3.12-.08-5,.75-5.85,3.9-.51,1.91-1.73,3.64-2.22,5.55a57.16,57.16,0,0,0-.93,6.71h-12.84c1.83-3.4,3.77-6.55,5.28-9.9q10.15-22.52,20-45.15c.83-1.92.73-4.24,1.11-6.76h14.53c.49,2.44.5,5,1.48,7q11.52,24.09,23.39,48C2181.8,1079.38,2183.61,1081.33,2185.26,1083.64Zm-48.53-24.74h24.06c-4.16-8.68-8.12-17-12.57-26.26C2144.19,1041.87,2140.58,1050.12,2136.73,1058.9Z"/><path class="cls-1" d="M2160.79,1058.9h-24.06c3.85-8.78,7.46-17,11.49-26.26C2152.67,1041.94,2156.63,1050.22,2160.79,1058.9Z"/><path class="cls-1" d="M2149.44,823c.14,3.85-1.3,6.29-5.19,6.4-3.73.1-7.39-.32-8.35-5.19-1-5.22-2.11-10.45-3.65-15.53-2.22-7.33-7.46-11.3-15.1-11.65-5.63-.26-11.28-.06-17.67-.06v6.6q0,46.49,0,93c0,3.16.16,6.33.41,9.48.81,10.17,3.3,12.71,13.51,13.46,3.27.24,6.1.5,6,4.77-.09,3.13-1.28,5-4.77,5q-26.22-.06-52.46,0c-3.49,0-4.8-2-4.87-5s1.29-4.68,4.51-4.69a45.65,45.65,0,0,0,5.46-.53c5.07-.66,8.2-3.51,9.09-8.53a45,45,0,0,0,.73-7.93q.07-51.24,0-102.46c0-.82-.12-1.64-.29-3.85-7.73.63-15.49.69-23,2.08-5.25,1-8.07,5.74-9.54,10.7-1.37,4.61-2.27,9.37-3.19,14.09-.87,4.44-3.74,6.67-8.53,6.31s-5.51-3.37-5.37-7.35c.34-9,.5-18,.75-27,.16-5.56,1.69-7,7.82-7.06,15.16-.05,30.32,0,45.48,0q29.23,0,58.47,0c7.86,0,8.85,1,9.09,8.94C2149.07,805.66,2149.11,814.32,2149.44,823Z"/><path class="cls-1" d="M2099.92,440.09h-6.48c-20.49,0-41,.12-61.49-.1-4-.05-5.8,1.34-6.11,5.1-.23,2.81-.6,5.63-.6,8.44q0,114.24,0,228.47v6.71h-39.16v-6.13q0-115,0-230c0-17.2,10-26.52,28.18-25.24l-298.69-270.7L1417.45,426.83l4.34.24c12.24.6,21.23,9.33,22.13,21.56.12,1.65.07,3.33.07,5V688.73h-39.23V453.54c0-13.45,0-13.45-13.27-13.45h-60.33L1715.54,91.73Z"/><path class="cls-1" d="M2093.91,1063.71l7.45,10.2c-2.9,1.57-5.43,2.88-7.9,4.29-16,9.11-32.21,9.61-47.72-.33-19.72-12.64-18.15-41,2.61-51.81,13.2-6.87,27-6.11,40.69-1.33,3.2,1.12,6.46,2.07,10.27,3.28l-6.55,11.59c-2.86-2.38-4.93-4.86-7.58-6.18a35.65,35.65,0,0,0-27.19-2.16c-8.4,2.63-13.95,8.4-15.54,17.25-1.51,8.45,1.6,15.36,8.06,20.82,9.31,7.87,23.5,9.57,33.6,3.45C2087.64,1070.65,2090.32,1067.11,2093.91,1063.71Z"/><path class="cls-1" d="M2033,924.55c.48,3.18-1.6,4.73-4.91,4.7-8.33-.08-16.65,0-25,0v0c-8,0-16-.11-24,.06-3.56.07-5.88-.89-6.09-4.79-.22-4.09,2.29-4.81,5.73-5.05,12.88-.9,14.33-3,10.12-15.07-2.08-6-4.51-11.81-7.13-17.55a5.33,5.33,0,0,0-4-2.51q-24.24-.25-48.47,0c-1.32,0-3.43,1-3.82,2-3.07,8.24-6.07,16.53-8.56,25-1.36,4.62.51,7,5.28,7.57a112.46,112.46,0,0,0,11.46.73c3.32.09,4.84,2.19,4.14,4.81-.5,1.88-2.82,4.61-4.38,4.64-15,.35-30,.21-45,.2-3.2,0-4.36-2-4.46-4.84s1.12-5,4.34-4.75c9.28.59,13.75-5,17-12.63,13.43-31.88,27-63.7,40.43-95.57,3.45-8.19,1.69-11.62-6.76-14-1.76-.5-3.84-.43-5.26-1.38s-3.4-3-3.34-4.44,2-4,3.48-4.41c16.26-4,31.92,3.34,38.73,19,9.61,22.1,18.36,44.59,27.48,66.91,4.71,11.54,9.39,23.1,14.18,34.62,2.83,6.81,6.73,12.2,15.32,12.12C2030.74,919.84,2032.73,922.78,2033,924.55ZM1930.72,873.9h45.77l-22.33-56.83C1946.08,836.67,1938.51,855,1930.72,873.9Z"/><path class="cls-1" d="M2000.51,1022.11h13.07c-.49,2.9-1.34,5.78-1.39,8.66-.17,10.5,0,21-.09,31.49-.12,12.47-5.13,19.46-17.41,21.12a96.4,96.4,0,0,1-27.19-.42c-10.51-1.61-15.26-8.27-15.5-19-.24-11.16,0-22.33-.19-33.49,0-2.74-.89-5.47-1.4-8.37h13.09c-.47,2.74-1.29,5.45-1.33,8.16-.16,10.66-.09,21.33-.06,32,0,7.51,2.7,11.54,10.08,12.49a74.35,74.35,0,0,0,19.77-.09c7.3-1,10-5.12,10-12.66,0-10.5.11-21,0-31.49C2001.85,1027.76,2001,1025,2000.51,1022.11Z"/><path class="cls-1" d="M1976.49,873.9h-45.77c7.79-18.88,15.36-37.23,23.44-56.83Z"/><path class="cls-1" d="M1919.54,1050.86c8.25,5.66,10.47,11,8.51,20-1.68,7.71-7.18,11.4-14.47,12.49a95.26,95.26,0,0,1-13.42.74c-11.48.09-23,0-34.11,0,.46-3.45,1.22-6.66,1.25-9.88q.2-22.23,0-44.47c0-2.47-.84-4.92-1.38-7.9,11.72,0,24-.08,36.21,0a68.44,68.44,0,0,1,11.89.94c6.62,1.25,11,5.11,12.35,12C1927.66,1041.56,1926.44,1047.14,1919.54,1050.86Zm-10.16,24.78c6.2-.23,9.28-4.19,9.19-10.24-.1-5.87-3-9.33-9.18-9.62-9.47-.45-19-.35-28.45-.18-1.09,0-3,2-3.06,3.13-.32,5.46-.14,10.94-.14,17C1888.81,1075.75,1899.11,1076,1909.38,1075.64Zm7.38-36.76c0-4.34-2-7.85-6.52-8-10.7-.36-21.42-.12-32.32-.12v16.29c4.7,0,8.83,0,13,0,6.15-.06,12.32.06,18.45-.35C1913.89,1046.39,1916.69,1043.62,1916.76,1038.88Z"/><path class="cls-1" d="M1918.57,1065.4c.09,6-3,10-9.19,10.24-10.27.39-20.57.11-31.64.11,0-6.08-.18-11.56.14-17,.07-1.15,2-3.11,3.06-3.13,9.48-.17,19-.27,28.45.18C1915.62,1056.07,1918.47,1059.53,1918.57,1065.4Z"/><path class="cls-1" d="M1910.24,1030.88c4.52.15,6.57,3.66,6.52,8-.07,4.74-2.87,7.51-7.43,7.81-6.13.41-12.3.29-18.45.35-4.13,0-8.26,0-13,0v-16.29C1888.82,1030.76,1899.54,1030.52,1910.24,1030.88Z"/><path class="cls-1" d="M1910,640.07v48.7H1521.17v-48.7Z"/><path class="cls-1" d="M1899.76,592.34v24.59H1857.6v-22.8Z"/><path class="cls-1" d="M1892.16,521.07c3,16.5,5.84,32.08,8.85,48.63l-43,1.79c-1.94-12-3.81-23.51-5.81-35.85Z"/><path class="cls-1" d="M1854.56,457.25a178,178,0,0,1,28.27,43.26L1844,514.62l-19-29.48Z"/><path class="cls-1" d="M1865.52,919.38c3.2,1,5.19,1.88,5,5.46s-2.55,4.59-5.85,4.4c-3.82-.23-7.66-.37-11.49-.28a35.1,35.1,0,0,1-29.32-13.5c-6.48-8-12.11-16.68-17.94-25.18-3-4.39-5.6-9.07-8.44-13.57-6.12-9.7-11.87-12-23.27-9.81,0,14.67-.29,29.26.15,43.84.16,5.24,4.24,7.73,10.66,8.57,3.63.47,8.89-1,8.14,5.67-.68,6.06-5.49,4.07-9,4.1-15.66.13-31.32,0-47,.18-3.86,0-6.47-1.15-6-5.23.2-1.58,2.09-3.42,3.67-4.2s3.91-.5,5.89-.75c5.25-.66,8.58-3.47,9.35-8.81a67.93,67.93,0,0,0,.81-9.43q.11-42.23,0-84.46c0-2,0-4-.2-6-.9-9.33-4.22-12.63-13.67-13-3.66-.16-6.35-.76-6-5.17.27-4,2.82-4.64,6.27-4.6,20.15.22,40.31.27,60.46.47,11.58.11,22.93,1.42,33.41,6.91,23,12.06,26.11,38.24,6.37,55.14a57.15,57.15,0,0,1-10.38,6.84c-3.65,1.93-7.63,3.22-12.23,5.1,11.21,17.85,21.52,36,36.43,50.72C1854.9,916.24,1860.56,917.85,1865.52,919.38Zm-41.35-82a51.07,51.07,0,0,0,.78-16.25c-1.51-11.17-7.94-19.2-19-22-7-1.75-14.42-2-21.67-2.07-6.72,0-10.09,2.93-10.27,9.68-.45,16.59-.15,33.2-.15,51.46,10.84-.84,21.84-.88,32.51-2.76C1815.93,853.84,1822.29,847.13,1824.17,837.43Z"/><path class="cls-1" d="M1835.61,616.76h-62c1.08-4,2.31-7.87,3.16-11.83,2.92-13.6,0-26.27-7.39-37.72a166.3,166.3,0,0,0-15.79-20.57c-10.47-11.73-16.07-24.95-15.75-40.85.15-7.61-1.08-15.25-1.74-23.62-15.11,8-29.21,16.11-39.22,29.82s-14.53,29-15.63,46.12L1661,551c-8.53,22.16-11.33,43.82.93,65.77h-65.4c1.13-25.54-2.37-50.76,5.26-75.43,16.13-52.15,67.32-88.07,120.55-84.14,57.05,4.22,103,45.24,110.63,100.54C1835.65,577,1834.82,596.83,1835.61,616.76Z"/><path class="cls-1" d="M1825,821.18a51.07,51.07,0,0,1-.78,16.25c-1.88,9.7-8.24,16.41-17.77,18.09-10.67,1.88-21.67,1.92-32.51,2.76,0-18.26-.3-34.87.15-51.46.18-6.75,3.55-9.72,10.27-9.68,7.25,0,14.7.32,21.67,2.07C1817,802,1823.44,810,1825,821.18Z"/><path class="cls-1" d="M1796.81,412.78a180.65,180.65,0,0,1,42,28.39l-29.56,27.88-28.36-19.38Z"/><path class="cls-1" d="M1800.27,1073.06v12.83c-2.63-.6-5.18-1.65-7.75-1.68-14.81-.16-29.63-.08-44.45-.08h-4.43c.51-2.93,1.33-5.52,1.35-8.12q.18-23,0-46c0-2.6-.85-5.19-1.38-8.18,15.09,0,30.71.06,46.33-.07,2.43,0,4.85-.94,7.65-1.53v11.4c-2.85-.51-5.75-1.43-8.67-1.48-11-.18-21.93-.07-33.24-.07v17.92c9.55-.78,19.18,1.58,29-1.72v11.55a71.06,71.06,0,0,0-8.82-1.45c-5.66-.23-11.33-.23-17,.07-1.22.06-3.29,1.75-3.35,2.79-.35,5.28-.16,10.59-.16,15.78C1765,1077.29,1796.38,1076.09,1800.27,1073.06Z"/><path class="cls-1" d="M1770.49,304.42V352.1h-48V304.42Z"/><path class="cls-1" d="M1770.45,242.53v47.65h-48V242.53Z"/><path class="cls-1" d="M1776,404.1l-15.91,36.84-32.95-6.59V394.51C1744,395.13,1760,398.58,1776,404.1Z"/><path class="cls-1" d="M1752.29,583c5.85,11.26,2.8,22-3.7,32-.77,1.19-3,2-4.57,2-16.32.14-32.64.12-49,0a7.61,7.61,0,0,1-4.6-1.27c-10.62-9-15.27-20.56-14.19-35.44l32.23,11.41c-1.13-5.68-2.08-10.5-3.06-15.32-3.42-16.78-1.71-32.78,7.31-47.64,1-1.64,2.26-3.13,4-5.51,3.37,17.89,13.57,30.69,24.32,43.3A87.65,87.65,0,0,1,1752.29,583Z"/><path class="cls-1" d="M1700,1022.74c16.55,3.67,25.08,17,23.14,35.94-1.6,15.66-12.71,25.38-29.2,25.44-12.5,0-25,0-37.49-.06-.31,0-.62-.16-.36-.09.63-2.79,1.56-5,1.58-7.3q.19-23.49,0-47c0-2.4-1-4.8-1.66-7.74,12.47,0,25.52,0,38.57,0A25.67,25.67,0,0,1,1700,1022.74Zm11.27,42.59a32.45,32.45,0,0,0,.88-21.52c-2-6.64-6.54-11.46-13.15-12.34-10.1-1.34-20.39-1.26-30.83-1.8v46c9.81,0,19.12.34,28.4-.11C1703.32,1075.27,1708.7,1072,1711.29,1065.33Z"/><path class="cls-1" d="M1718.27,823.32c.14,3.7-1.44,5.89-5,6s-7.25,0-8.31-4.53c-1.14-4.86-1.89-9.82-3.27-14.61-2.57-9-7.69-12.93-17-13.32-5.27-.22-10.56,0-16.13,0-.1,2.19-.23,3.81-.24,5.44q0,48.5,0,97a56.94,56.94,0,0,0,.3,6c1.23,11.38,3.12,13.35,14.46,14.2,3.45.26,5.38,1.33,5.2,5-.15,2.93-1.36,4.73-4.55,4.73h-53c-3.22,0-4.46-2-4.59-4.75s1-4.79,4.3-4.88a49.67,49.67,0,0,0,6-.6c4.8-.74,7.91-3.42,8.72-8.28a54.82,54.82,0,0,0,.89-8.93q.09-50.49,0-101c0-1.13-.12-2.26-.21-3.88-6.13,0-11.62-.14-17.1,0-7.94.25-13.16,4.44-15.51,11.87A131.71,131.71,0,0,0,1610,822.9c-.93,4.74-3.91,7.05-8.85,6.54-4.74-.49-5.24-3.7-5.09-7.57.34-9,.67-18,.7-27,0-5,2.52-6.83,7.11-6.83,8,0,16,0,24,0q40.25,0,80.49,0c8,0,8.84.74,9.15,8.78C1717.85,805.66,1717.93,814.5,1718.27,823.32Z"/><path class="cls-1" d="M1712.17,1043.81a32.45,32.45,0,0,1-.88,21.52c-2.59,6.63-8,9.94-14.7,10.27-9.28.45-18.59.11-28.4.11v-46c10.44.54,20.73.46,30.83,1.8C1705.63,1032.35,1710.2,1037.17,1712.17,1043.81Z"/><path class="cls-1" d="M1708.94,347.78c0,3.28-.67,4.79-4.37,4.74-13.32-.19-26.63-.11-40,0-2.63,0-4.43-.24-4.4-3.66.14-14,.06-28,.09-41.94a14.84,14.84,0,0,1,.49-2.59h48.08v14.54C1708.88,328.48,1708.78,338.13,1708.94,347.78Z"/><path class="cls-1" d="M1708.56,242.37v47.84h-47.87V242.37Z"/><path class="cls-1" d="M1704.11,394.34v40l-33.24,6.73-16-36.84C1670.74,398.42,1686.89,395.43,1704.11,394.34Z"/><path class="cls-1" d="M1633.59,411.71l16.52,38.2-28.19,19.36-30.66-28.84Z"/><path class="cls-1" d="M1591.32,1083.72H1577c-.34-1.85-.21-4-1.08-5.47-3.5-6-7.14-12-11.12-17.77a8.13,8.13,0,0,0-5.44-3c-5.79-.4-11.62-.14-18.33-.14.78,9-1.59,17.71,1.78,26.51h-13.52c.55-2.7,1.51-5.27,1.53-7.85q.23-22.74,0-45.48c0-2.74-.92-5.47-1.43-8.31,14.58,0,29.88-.54,45.12.19,9.87.47,15.1,6.26,15.59,14.46.65,11-3.42,16.68-13.75,19.38-.62.17-1.21.43-2.6.92Zm-11.23-44c0-6.17-2.77-9.1-10.27-9.36-9.29-.32-18.6-.08-28.3-.08v18.57c9.56,0,18.7,0,27.84,0a23.45,23.45,0,0,0,3.92-.72C1577.94,1047.22,1580.06,1044.36,1580.09,1039.69Z"/><path class="cls-1" d="M1606.17,485.39l-18.83,29.39-39.09-14.18a179.72,179.72,0,0,1,28.1-43.27Z"/><path class="cls-1" d="M1569.82,1030.33c7.5.26,10.3,3.19,10.27,9.36,0,4.67-2.15,7.53-6.81,8.38a23.45,23.45,0,0,1-3.92.72c-9.14.06-18.28,0-27.84,0v-18.57C1551.22,1030.25,1560.53,1030,1569.82,1030.33Z"/><path class="cls-1" d="M1579.19,535.8c-2,12.08-3.84,23.67-5.81,35.89l-43.26-1.83c3-16.43,5.78-32.14,8.75-48.69Z"/><path class="cls-1" d="M1573.77,594.23v22.63h-42.49V592.58Z"/><path class="cls-1" d="M1506,858c15.44,9.32,22.48,25.56,19.16,42.19-2.16,10.85-9,18.37-18.07,24-13.65,8.49-28.77,10.24-44.28,8.23a77.89,77.89,0,0,1-21.51-5.81c-11.6-5.18-16.86-16-15.39-28.69,1.29-11,14.12-18.8,24.41-14.54,2.25.93,4,3.11,6.9,5.49-9.48,4.93-10.41,12-8.46,19.93,2.07,8.46,7.94,12.69,16.18,14.23,9.46,1.77,18.6,1.17,27-4,14.07-8.72,16.21-26.08,4.11-37.32-4.66-4.32-10.51-7.54-16.2-10.56-10.28-5.45-21.12-9.88-31.22-15.63-16.9-9.61-23.5-26.2-18.69-44.71,2.31-8.88,7.42-15.79,15.56-19.81,20.22-10,40.73-10.33,60.9.05,9.91,5.1,14.12,15,11.87,25.17s-13.78,16.92-23.61,13.35c-2.4-.87-4.3-3.11-7.11-5.23,2.16-1.38,3.18-2.11,4.27-2.73,8.76-5,9.84-16.24,2.18-22.95-9.76-8.57-30.9-7.13-39.43,2.68-7.16,8.23-7.17,21.35,1.19,28.37,6.27,5.27,13.79,9.16,21,13.14C1486.41,848.16,1496.63,852.38,1506,858Z"/><path class="cls-1" d="M1506.18,1074.94v10.65c-3.28-.49-6.52-1.36-9.76-1.39-15.81-.15-31.61-.07-47-.07.54-2.85,1.42-5.41,1.44-8q.21-23.22,0-46.47c0-2.42-.93-4.84-1.53-7.79h16.23c9.83,0,19.66.11,29.48-.08,2.75,0,5.47-1,8.5-1.6v11.51c-3.27-.53-6.49-1.45-9.73-1.51-10.64-.19-21.28-.07-32.31-.07v17.78c9.53-.23,19.25,1,29.12-.94v11.4c-9.46-4.06-19.21-1-29.12-2.15V1076C1476.44,1075.28,1491.25,1077,1506.18,1074.94Z"/><path class="cls-1" d="M1410.09,1022.19h13.41c-.5,2.51-1.38,4.94-1.4,7.37q-.19,23.43,0,46.85c0,2.44.87,4.87,1.37,7.48h-13.14c.47-3.27,1.33-6.61,1.36-10q.24-21.93,0-43.86C1411.66,1027.52,1410.68,1025,1410.09,1022.19Z"/><path class="cls-1" d="M1401.19,792.46c-.1,8.93-2.42,16.16-8.71,20.54-7.27,5.06-15.42,8.9-23.43,12.79-1.31.64-3.83-1.2-5.79-1.89,1-1.75,1.68-4.08,3.21-5.15,3.63-2.56,8.07-4.07,11.49-6.85,8.43-6.86,8-16-.73-22.36-2-1.47-4-2.93-6-4.47-3.54-2.78-4.73-6.41-3.19-10.65s4.41-7,9-7.59a17.36,17.36,0,0,1,13.85,4.42A28.61,28.61,0,0,1,1401.19,792.46Z"/><path class="cls-1" d="M1393.84,1073.48v12.2c-3-.51-6.13-1.45-9.22-1.48-16-.15-32-.07-47.58-.07.5-3.3,1.34-6.34,1.37-9.4q.21-22.49,0-45c0-2.46-.92-4.91-1.45-7.58h13.66c-.61,1.82-1.7,3.58-1.71,5.34-.13,15.33-.07,30.65,0,46a8.66,8.66,0,0,0,.36,1.81C1360.42,1077.21,1389.73,1076.12,1393.84,1073.48Z"/><path class="cls-1" d="M1354.16,792.29c.13,3.22-1.06,5.06-4.58,5-12.13-.21-19.75,6.18-25.06,16.57-8.48,16.6-17.65,32.86-25.84,49.6-2.61,5.34-3.78,11.7-4.27,17.7a158.54,158.54,0,0,0,.17,24.46c.79,10.9,3.25,13.08,14.23,13.86,3.31.23,5.53,1,5.37,4.81-.12,3.16-1.39,5-4.84,5q-26.25-.06-52.49,0c-3.13,0-4.59-1.66-4.78-4.56-.21-3.19,1.2-5,4.62-5.1a39.91,39.91,0,0,0,6-.63c4.56-.81,8-3.43,8.31-8.07,1.1-17.82,4.06-35.73-5.36-52.69-7.75-14-14.54-28.44-21.73-42.71-5.12-10.13-12.76-16.94-24.31-18.68-3.24-.49-5.14-1.95-4.75-5.63s3-4,5.72-4.14c21.93-.85,38.92,6.53,48.44,27.77,6.26,14,13.52,27.44,21,42.41,4.91-9.68,9.2-18.09,13.45-26.52,4-8,8.25-16,12-24.13,2.91-6.25,1.76-8-4.92-8.92a36.18,36.18,0,0,0-6-.34c-3.42.13-4.92-1.47-4.83-4.78.08-3.16,1.43-4.94,4.87-4.93q22.25.09,44.48,0C1352.32,787.59,1354,789,1354.16,792.29Z"/><path class="cls-1" d="M1314.88,1074.93v10.69c-3-.49-6.05-1.39-9.15-1.42-16-.15-32-.07-47.44-.07.55-3.25,1.48-6.28,1.51-9.31q.23-22.74,0-45.49c0-2.24-.92-4.48-1.53-7.19.75,0,2.29-.25,3.83-.25,14.16,0,28.32.06,42.48-.08,2.45,0,4.88-1,7.66-1.54v11.51c-2.88-.57-5.6-1.53-8.34-1.58-11-.17-22-.07-33.39-.07v17.95c9.57-.84,19.22,1.5,28.94-1.65v11.87c-9.52-4-19.24-.77-29.06-2.25v19.87C1285.08,1075.38,1299.84,1076.89,1314.88,1074.93Z"/><path class="cls-1" d="M1270.27,684c.1.46.2.91.29,1.37-7.85.89-15.68,1.92-23.54,2.66-34.66,3.26-69.29,6.94-104,9.45-21.55,1.56-43.23,1.84-64.85,1.67-13.41-.11-24.74-6.71-35.38-14.71A181.74,181.74,0,0,0,1018,668.74a34.92,34.92,0,0,0-15.38-3.54q-65.48-.66-131-.65C811,664.57,751.1,673,691.33,682.2c-16.12,2.49-32.08,6-48.24,8.15-9,1.2-18.27,1-27.38.55-11-.57-19-6.87-24.8-15.77-12.95-19.85-12.86-26.61-.16-46.4,7.38-11.51,18.35-17.41,31.69-16.47,17.38,1.24,34.68,3.79,52,6.23,30.49,4.3,60.88,9.32,91.4,13.35,75.45,10,151.3,8,227.11,7.44,18.22-.14,33.43-6.38,47-17.61,10.75-8.88,22.36-16.2,36.52-17,14.6-.8,29.35-1.2,43.91-.11,40.53,3,81,6.9,121.47,10.52,9.35.84,18.67,2,28,3.09,0,.53,0,1.06,0,1.59h-6.1q-78.73.06-157.48.17c-7.65,0-10,1.54-10.17,6-.21,4.67,2.21,7.09,9.55,7.56,26.27,1.67,52.55,3.23,78.85,4.41,27.3,1.22,54.62,1.94,81.93,2.9a6.59,6.59,0,0,1,4,1.19c-6.43.33-12.85.81-19.27,1q-74.22,1.62-148.45,3.13c-6.56.14-8.26,1.38-8.26,6,0,3.2,1.44,5,4.6,5.44a33,33,0,0,0,4,.27q63.22,1.14,126.46,2.28c13.28.25,26.55.8,39.94,2.35-1.51.19-3,.52-4.54.57-30.31,1.07-60.62,1.89-90.92,3.23-23,1-45.9,2.66-68.85,4.07-1.49.09-3.5,0-4.32.85-1.87,2-4.15,4.43-4.33,6.83-.13,1.75,2.5,4.41,4.52,5.41s4.89.61,7.37.61q78,.08,156,.09Z"/><path class="cls-1" d="M1239.81,1020.07v12.23c-8.12-4.31-16.71-1.16-25.6-2.35v30c0,5.32-.17,10.65.07,16,.12,2.57,1,5.1,1.59,7.89h-13.15c.42-3.14,1.2-6.32,1.23-9.5.14-14.47.06-28.94.06-44.11-8.57.55-17-1.83-25.57,1.85v-11.87c3.21.54,6.57,1.54,10,1.58q21.72.27,43.43,0C1234.39,1021.77,1237,1020.72,1239.81,1020.07Z"/><path class="cls-1" d="M1203.52,823.54c.12,3.77-1.73,5.75-5.25,5.85s-7.2-.28-8.22-4.75c-1.11-4.86-1.86-9.82-3.23-14.61-2.51-8.71-7.62-12.7-16.64-13.11-5.27-.23-10.57,0-16.57,0v6.3q0,47.48,0,95c0,2.49.14,5,.32,7.48.73,10.5,3.19,13.14,13.67,13.82,3.73.24,6.57,1.17,5.68,5.36-.36,1.7-2.7,4.22-4.17,4.24-17.81.29-35.64.19-53.46.18-3.32,0-4.23-2.29-4.26-5s1-4.53,4-4.59a43.87,43.87,0,0,0,5-.45c6.37-.82,9.5-3.83,10.36-10.18a56.64,56.64,0,0,0,.4-7.48q0-50.22,0-100.45c0-1.14-.14-2.29-.29-4.68-7.47.51-14.89.56-22.15,1.68-5.36.82-8.47,5.21-10.06,10.16a130.6,130.6,0,0,0-3.5,14.52c-1,4.84-3.71,7.13-8.65,6.71-4.7-.39-5.39-3.5-5.25-7.43.32-9,.45-18,.69-27,.14-5.2,1.67-6.93,6.93-6.94,35.65-.07,71.3,0,106.95-.06,4.8,0,6.93,2.29,7,7Q1203.07,809.31,1203.52,823.54Z"/><path class="cls-1" d="M1168.59,1083.77H1153c2.87-6.87-3.13-16-10.51-16-7.82,0-15.65-.18-23.46.14-1.63.07-3.65,1.63-4.67,3.08a22.54,22.54,0,0,0-2.93,6.84c-.5,1.78-.35,3.73-.53,6h-12c8.3-18.71,16.77-37.68,25.08-56.73.56-1.29-.08-3.11-.19-5.07h15.07c.52,2.57.53,5,1.46,6.91q11.64,24.27,23.62,48.38C1165.07,1079.6,1166.91,1081.48,1168.59,1083.77Zm-48.77-24.72H1144l-12.69-26.42Z"/><path class="cls-1" d="M1144,1059.05h-24.19l11.5-26.42Z"/><path class="cls-1" d="M1045.17,858c15.75,9.51,22.93,26.56,19,43.15-2.3,9.8-8.22,17.17-16.6,22.22-21.66,13-44.39,12.94-67,3.36C968.9,921.79,964.19,911.58,965,899c.76-11.64,13.77-20,24.5-15.6,2.34,1,4.1,3.29,6.74,5.5-9.28,5.06-10.39,12.14-8.17,20.31,2.28,8.41,8.26,12.47,16.48,13.92,10.24,1.81,20,.89,28.58-5.44,11.95-8.78,13.56-25,2.86-35.18-5-4.71-11.23-8.23-17.33-11.51-10.1-5.44-20.8-9.78-30.77-15.43-16.66-9.44-23.19-25.25-19-43.72,2.17-9.51,7.49-16.82,16.18-21.06,20.11-9.8,40.48-10.06,60.47.24,10.18,5.25,14.57,16,11.72,26.1-2.74,9.74-13.87,15.86-23.34,12.44-2.49-.9-4.43-3.28-7.22-5.44,2.22-1.31,3.18-1.91,4.17-2.47,8.85-4.94,10-16.1,2.4-22.92-9.94-8.91-31.7-7.12-40.07,3.3-7,8.76-6.06,21.94,3.1,29,6.12,4.74,13.22,8.26,20.09,11.95C1025.91,848.18,1035.93,852.42,1045.17,858Z"/><path class="cls-1" d="M1052.78,1044.22c0,4.71.15,9.33-.13,13.93-.06.94-1.59,2.2-2.69,2.57-1.35.45-3,.12-4.47.12H581.17v-16.63Z"/><path class="cls-1" d="M941.7,792.12c.26,3.86-1.9,5-5.56,5.21-10.82.6-13.93,3.22-14.16,13.82-.49,23-.43,46-.47,69,0,9,.09,18,.53,27,.41,8.52,3.51,11.4,12,12.3,2.12.23,4.68.1,6.16,1.26,1.13.89,1.67,3.9,1,5.32a6.42,6.42,0,0,1-4.7,3.11c-8.82.3-17.66.14-26.49.14-8.33,0-16.67-.12-25,0-3.45.07-5.54-1.12-5.74-4.62s1.7-4.83,5.17-5.15c11.85-1.12,14.56-3.38,14.68-15q.48-46.72-.1-93.47c-.1-10-3.83-13.18-13.95-13.63-3.56-.16-6-1-5.81-5s2.51-4.82,6.09-4.8q25.23.18,50.48,0C939.24,787.56,941.47,788.55,941.7,792.12Z"/><path class="cls-1" d="M860.26,919.44c3,1,4.94,1.89,4.75,5.18-.2,3.56-2.3,4.79-5.72,4.62-5.49-.25-11,0-16.48-.48-10.55-.91-19.07-6.07-25.45-14.22-6.14-7.85-11.61-16.23-17.2-24.5-3-4.4-5.57-9.08-8.42-13.58-6-9.41-12-11.82-23.34-9.45,0,14.27-.4,28.56.18,42.81.27,6.69,4.3,9.06,13.41,9.63,3.57.22,5.91,1.19,5.7,5.11-.15,2.78-1.38,4.69-4.63,4.69q-26.49-.07-53,0c-3.28,0-4.4-2-4.5-4.77s.93-4.83,4.25-4.87a40.19,40.19,0,0,0,5.47-.53c5.52-.83,8.64-3.86,9.5-9.35a41.2,41.2,0,0,0,.51-6.47c0-30.65.06-61.3-.27-91.94-.11-10.38-3.61-13.46-14.09-13.95-3.41-.16-5.48-1.08-5.38-4.79.08-3.13,1.39-5,4.83-5,24.81.44,49.63.61,74.42,1.42,10,.32,19.19,4,27.27,10,14.46,10.84,17.17,29.81,6.39,44.28-6,8-14.09,13-23.3,16.52-1.69.64-3.4,1.2-5.84,2.06,11.3,18.09,21.58,36.1,36.35,50.73C849.3,916.21,855.17,917.76,860.26,919.44ZM820,829.27c.5-15.75-6.56-26.82-20.38-30.32A79.34,79.34,0,0,0,780.38,797c-8.76,0-12.1,3.38-12.26,12.18-.29,15.31-.17,30.62-.19,45.93a19,19,0,0,0,.64,2.9c9.88-.55,19.94-.2,29.65-1.85C812.35,853.77,819.51,844.09,820,829.27Z"/><path class="cls-1" d="M799.61,799c13.82,3.5,20.88,14.57,20.38,30.32-.48,14.82-7.64,24.5-21.77,26.9-9.71,1.65-19.77,1.3-29.65,1.85a19,19,0,0,1-.64-2.9c0-15.31-.1-30.62.19-45.93.16-8.8,3.5-12.2,12.26-12.18A79.34,79.34,0,0,1,799.61,799Z"/><path class="cls-1" d="M701.08,900.33c3.95,2.58,4.06,5,1.14,9.07-15.27,21.28-37,26.27-61.12,23.11-35.23-4.61-58.69-31.8-60-68.26-.59-16.07,1.68-31.61,9.67-45.84,13.72-24.45,35.68-34.15,62.66-34.66a72.11,72.11,0,0,1,34.32,7.6c12.08,6.17,17.24,17.11,14.44,30.36a21.68,21.68,0,0,1-25.33,17.22,16.31,16.31,0,0,1-6.9-3.62c-2.08-1.71-3.1-4,.13-6,8.1-5.15,10.6-12.45,7.92-21.58-2.38-8.09-9.78-13.66-19.65-14.53-16.52-1.46-29.84,4.46-39.05,18.3-10.85,16.29-12.85,34.73-11.65,53.68.88,13.72,4.78,26.58,13.25,37.62,11.79,15.4,27.31,21.76,46.58,18.19,11.47-2.13,19.3-9.34,25.3-18.79C695.1,898.49,697.7,898.12,701.08,900.33Z"/><path class="cls-2" d="M582,648.44c3.67-8.08,7.12-16.15,13.22-23a34.42,34.42,0,0,1,25.1-11.94c20.87-1.09,41.06,3.58,61.36,7.33q21.13,3.92,42.46,6.67c14.21,1.82,28.39,4,42.61,5.75,10.15,1.27,20.34,2.16,30.52,3.2,18.13,1.87,36.29,3,54.53,3.27,5.23.08,10.57.69,15.85.7q64.47.09,128.94,0a61.78,61.78,0,0,0,14.24-1.56c11.46-2.78,21.3-8.92,30.31-16.28,12.09-9.9,25.32-16,41.29-17.29,20-1.6,39.62,1,59.41,2.07,13.38.73,26.67,2.3,40,3.27,16,1.17,31.82,3.5,47.77,4.75,13.5,1,27,2.34,40.38,4.13.79.1,1.66-.07,2.34,1.07-1.58,1.6-3.65.88-5.43.88q-79.45.08-158.92.05a29.33,29.33,0,0,0-5.47.25c-3.35.66-6.25,2.42-5.57,6.25.62,3.53,2.6,6.24,7,6.53,16,1,32,2.34,48,3.1,18.89.89,37.79,1.36,56.68,2,19.06.63,38.12,1.34,57.19,1.9,2,.06,4.05.82,6.54,1.35-5.34,1.71-10.3,1.52-15.27,1.62-17.94.39-35.91.45-53.81,1.26-16.47.74-33-.36-49.34.86-17,1.27-33.9.35-50.83.92-3.06.11-7-.29-7.35,4.64s.6,6,5.75,6.31c21.09,1.48,42.25.09,63.31,1.19,17.81.93,35.61-.28,53.33,1,11.64.83,23.28-.07,34.83,1,6.39.58,12.82.45,19.09,1,.18,1.29-.28,1.67-1,1.71-6.77.38-13.56,1.06-20.33,1-15.63-.08-31.22.94-46.83,1.31-17.06.4-34.16.68-51.18,1.91-16.47,1.2-33,1.44-49.4,3.79-3.84.55-6.29,2.31-6.45,6.22s2.46,5.23,5.91,6.06a28.78,28.78,0,0,0,6.88.75h163.07c-3.07,3.28-6.61,2.32-9.34,2.68-11.62,1.54-23.34,2.21-35,3.33-12.64,1.21-25.26,2.64-37.91,3.85-8.55.82-17.12,1.4-25.68,2.13-14.64,1.26-29.26,3.48-43.91,3.61-20.25.18-40.88,3.47-60.58-4.59-9.2-3.76-16.27-10.6-24.21-16.21-11.82-8.34-24.39-13.71-39.46-14-27.11-.54-54.21-.86-81.32-.73-22.28.1-44.55.8-66.82,1.17-19.15.32-38.33,1.82-57.37,4q-37.32,4.18-74.52,9.56c-23.66,3.45-47,8.47-70.64,11.94-10.76,1.58-21.83,2.68-32.64.14-14.65-3.44-22.44-14.36-28.25-27.15-1.13-2.5-2-5.11-3.05-7.66Z"/><path class="cls-2" d="M582,1044.05h464.23c7.56,0,7.56,0,7.56,7.68,0,10.3,0,10.3-10.06,10.3H582Z"/><path class="cls-2" d="M582,848.24c2.06-6.87,3-14,5.71-20.75,9.33-23,26.4-36.24,50.25-41.1a80.54,80.54,0,0,1,49.37,5.16c20.76,9.11,20.57,33.18,8.9,43.92-7.1,6.54-19.11,7.33-24.87,1.69-2.71-2.64-3.73-4.69.34-7.42,7.25-4.86,9.73-11.93,7.11-20.33-2.42-7.73-8-12.41-15.84-14.06-21.36-4.5-40.26,7.35-47.81,27.11-8.82,23.08-9.6,46.66.08,69.64,6.92,16.43,18.83,27.67,37.57,30.15,17.56,2.32,31-3.73,40.47-18.67,1.23-1.93,2.45-3.91,5.4-3.42s5.24,1.81,6.57,4.65c.62,1.32.88,2.43-.14,3.67-8.9,10.87-18.19,21.36-33,24-23.32,4.25-45.84,2.74-65-13-13.63-11.19-21.7-26.06-24.17-43.71-.14-1,.05-2-1-2.62Z"/><path class="cls-2" d="M2330.27,1088c-1.37-3.29-4.35-3-7-3-14.31,0-28.62,0-42.94,0h-4.75v-61.94h8.6q18.22,0,36.45,0c2,0,4,.13,5.77-1.1,1-.68,1.63-2.56,3.22-1.44,1.22.87.57,2.46.68,3.74.06.83,0,1.67,0,2.5,0,6.4,0,6.37-5.63,4.58a10,10,0,0,0-2.95-.28c-10.16,0-20.31.09-30.46-.07-3.05,0-3.94,1-4,4-.34,14-.43,14.21,13.85,14,5.1-.09,10.73,2,15.35-3.22,1.57,4.5.69,8.59.74,12.58,0,1.57-1,1.76-2.43,1.2-8.3-3.34-17-.68-25.43-1.41a1.73,1.73,0,0,0-2,1.79c0,.33,0,.66,0,1-1.82,16.12-1.82,16.12,14.2,16.12,7.15,0,14.31,0,21.47,0,1.84,0,3.75.1,5.31-1,5.17-3.47,5.15,0,5,3.64-.13,2.78.65,5.68-1,8.28Z"/><path class="cls-2" d="M1313.72,1088c-1.37-3.3-4.36-3-7-3-14.32-.06-28.64,0-43,0-1.8,0-3.65.39-4.74-.14v-61.78h14.14q13.74,0,27.47,0c4.26,0,8.7.8,12.5-3.82,1,5.55.62,9.9.38,14.91-6.57-4.81-13.67-2.67-20.46-3.06a99.2,99.2,0,0,0-10.49,0c-3.76.19-9.26-1.84-10.9.89-2.54,4.21-.72,10-.81,15.12,0,1.87,1.48,1.92,2.86,1.92,6.82,0,13.65-.14,20.47.08,2.54.08,3.5-2.36,6-2.82,1,4.42.46,8.77.36,13.18-9.11-2.72-18.21-.92-27.19-1.42-1.94-.11-2.7.92-2.61,2.75,0,.33,0,.66,0,1-.67,15.22-.67,15.22,14.62,15.22,7.16,0,14.32,0,21.47,0,2.51,0,4.91.07,6.93-2s2.88-.72,2.92,1.46c.08,3.83,0,7.66,0,11.48Z"/><path class="cls-2" d="M1799.5,1088c-2.09-3-5.31-3-8.44-3-14.15,0-28.3,0-42.46,0h-6.76c4.21-3.06,3.7-6.51,3.7-9.87q0-21.72,0-43.44c0-2.93.47-5.94-3.33-7.69.29-.31.58-.63.88-.94h7.75c12.65,0,25.31-.05,38,0a12.89,12.89,0,0,0,9.1-3c1.19,4.72.35,9,.58,14.34-4-3.58-8.13-3.42-12.23-3.39-8.66.06-17.32.1-26,0-2.74,0-3.94.78-3.79,3.67.19,3.66.11,7.33,0,11,0,2.18.48,3.44,3,3.4q9.74-.15,19.48,0c2.37,0,3.81-1.61,6.06-2.87a53,53,0,0,1,.18,13.35c-9-2.93-18-1-26.81-1.44-1.18-.06-1.77.74-1.85,1.89,0,.34,0,.67,0,1-1.63,16-1.63,16,14.33,16h18c4.11,0,8.38.69,11.6-3.38l1.06.76V1088Z"/><path class="cls-2" d="M1505.63,1088c-2.09-3-5.31-3-8.43-3-14.15,0-28.3,0-42.45,0h-6.7c4-3.06,3.63-6.48,3.62-9.85q-.06-21.71,0-43.42c0-2.91.65-6-3.09-7.53,2.08-1.67,3.79-1.11,5.36-1.11,12.81-.06,25.63-.1,38.45,0,4,0,7.94,0,11.53-3.29,1.28,4.88.57,9.24.59,13.66-13.06-4.74-26.35-1.45-39.39-2.39-2.23-.16-3.43,1-3.44,3.27,0,.33,0,.67,0,1-.69,13.68-.69,13.84,13.16,13.6,5.42-.09,11.27,1.84,16.4-2.89.74,4.76.43,9,.26,13.32-8.88-2.58-17.78-.83-26.56-1.36-2.29-.14-3.12.73-3.31,3.11-1.3,15.88-1.35,15.87,14.4,15.87,6.33,0,12.66-.07,19,0,4.16.07,8.27.17,12.65-3.88V1088Z"/><path class="cls-2" d="M1392.68,1088c-1.59-3.3-4.64-3-7.54-3h-49.25c2.64-2.42,2.89-4.93,2.87-7.69-.11-15.81-.07-31.61,0-47.42,0-2.33.19-4.64-3.8-6.46h18c-4,2.24-3.16,5.54-3.16,8.56,0,13.15.22,26.3-.14,39.43-.13,4.81,1.52,5.81,5.92,5.68,9.81-.3,19.64-.15,29.46-.06a12.77,12.77,0,0,0,9.09-3c1.22,4.86.35,9.44.63,13.94Z"/><path class="cls-2" d="M1419.48,428.63a22.21,22.21,0,0,1,19.75,8c3.39,3.94,5.43,8.26,5.43,13.47q0,117.63.1,235.25c0,4.37-1.48,5.23-5.44,5.13-9.65-.26-19.33-.34-29,0-4.66.18-5.77-1.29-5.76-5.82q.21-114.37.13-228.76c0-17.25-.26-14.15-14.21-14.25-19.29-.12-38.59,0-58.78,0,8-7.33,15.11-14.35,22.76-20.76,4.57-3.83,8.76-8.07,13.25-12,13.12-11.43,25.66-23.52,38.53-35.24q26.63-24.27,53.4-48.4l42.72-38.71,42.38-38.35,42.37-38.35q26.88-24.36,53.77-48.73,15.46-14,31-28,20.84-18.83,41.64-37.68c1.89-1.71,3.25-1.66,5.09,0,11.81,10.91,23.63,21.81,35.57,32.57,15.5,14,31.13,27.78,46.65,41.73,8.14,7.31,16.12,14.79,24.23,22.13q25.42,23,50.9,45.94c8.36,7.57,16.57,15.3,24.93,22.86,16.59,15,33.25,29.9,49.84,44.89,8.11,7.33,16.11,14.81,24.23,22.14q24.88,22.47,49.84,44.88c7.87,7.11,15.67,14.3,23.51,21.45l51.45,47c-1.36,1-2.87.54-4.24.55-21.16,0-42.32.15-63.47-.09-4.08,0-5.25,1.81-5.59,5.11a44.81,44.81,0,0,0,0,4.49q0,116.64.1,233.26c0,4.72-1,6.33-6,6.12-9.81-.41-19.65-.22-29.48-.06-3.24,0-4.71-.56-4.7-4.3q.15-118.38.11-236.75c0-10.52,10.3-20.54,20.86-20.74,1.76,0,3.53,0,6.32,0-4.84-4.55-8.83-8.42-13-12.14-9.22-8.32-18.53-16.54-27.76-24.84q-25-22.41-49.86-44.87c-7.63-6.88-15.19-13.84-22.8-20.74q-26.16-23.68-52.33-47.35c-8.59-7.8-17-15.78-25.63-23.55-16-14.42-32.08-28.72-48.06-43.14-8.5-7.66-16.83-15.49-25.3-23.19-10.41-9.48-20.91-18.86-31.3-28.36-1.29-1.18-2-1.11-3.24,0-9.22,8.32-18.55,16.51-27.78,24.83q-26.39,23.79-52.69,47.69c-9.07,8.25-18,16.73-27,25-15.85,14.32-31.83,28.5-47.72,42.77-7.64,6.87-15.18,13.85-22.8,20.74q-25.62,23.16-51.26,46.29c-8.23,7.46-16.34,15.05-24.58,22.5-13,11.77-26.11,23.47-39.14,35.23C1420.59,426.25,1419.41,426.83,1419.48,428.63Z"/><path class="cls-2" d="M2850,653.83c-.46,4.14.24,9.07-.6,14.07-2.65,15.69-12.94,23.79-27.23,27.38-17.38,4.36-34.76,1.9-52.11-1.31-25.43-4.7-50.69-10.2-76.16-14.74-15.43-2.75-30.93-4.75-46.45-6.69a144.92,144.92,0,0,0-14.84-.86c-8.79-.2-17.53-1.15-26.32-1.38-17.9-.48-35.77-1.59-53.67-2.15-7.26-.24-14.59-.15-21.84-.78-13.1-1.14-26.24-.37-39.32-1.09-13.23-.72-26.51-.88-39.67-2.09-12.7-1.17-25-.85-37.22,3a30.56,30.56,0,0,0-16.84,13c-12.43,19-28.89,32.9-50.63,40.32a102.72,102.72,0,0,1-35.53,5.56,192.87,192.87,0,0,1-67.09-13.65c-19.66-7.82-36.72-19.48-51.89-34.18-15.56-15.09-14.64-35.51,0-49.92,23.95-23.6,52.51-37.41,85.08-43.91,12.83-2.56,25.75-4.62,38.87-3.89,22.62,1.27,43.4,7.45,61.12,22.59a95.27,95.27,0,0,1,19.43,22.33c7.34,11.85,18.51,16.23,31.36,16.82a321.82,321.82,0,0,0,47.8-1c10.15-1,20.25-.22,30.35-.86,19.54-1.23,39.11-1.3,58.66-2.09,14.23-.58,28.47-1.2,42.68-2,29.8-1.7,59.61-3.36,89-9.57q41.32-8.75,83-15.9c13.94-2.38,28.13-2.73,42.25.45,17.08,3.84,28.85,17.82,27.89,35.25C2849.94,648.69,2850,650.86,2850,653.83Z"/><path class="cls-2" d="M1773.82,618c1.17-6,3.41-11.6,3.92-17.78.91-11-2-20.81-7.2-30.16-6.18-11-15.51-19.7-22.88-29.85-6.45-8.89-9.18-18.77-9.26-29.77-.06-8.68-1.29-17.35-2-26.36-15.88,8.51-30.88,17.51-40.89,32.69a77.58,77.58,0,0,0-12.87,39.07c-.17,3.25-.85,4.18-4.09,2.84-4-1.64-8.23-2.59-12.15-4.31-3.5-1.54-5-1.82-6.37,2.81-3.12,10.7-6,21.26-5.51,32.57.41,8.76,2.22,17,6.58,24.65,1.93,3.36,1,4.13-2.58,4.11q-28.74-.18-57.48,0c-3.51,0-4.55-1-4.5-4.52.19-12.82-.42-25.66.17-38.46,1.43-31.2,12.24-58.49,34.41-81.12,16.73-17.08,36.61-28.51,59.82-33.31,35.21-7.27,67.74-.26,96.8,21.22,19.74,14.58,33.39,33.8,41.47,56.86a107.52,107.52,0,0,1,6.26,34.43c.15,13.48,0,27,.06,40.46,0,2.53,0,4.45-3.53,4.42-18.82-.14-37.65-.08-56.47-.11A8.44,8.44,0,0,1,1773.82,618Z"/><path class="cls-2" d="M1715.5,690.4q-94.43,0-188.85.11c-4.7,0-6.3-1-6.15-6,.38-12.47.12-25,.13-37.44,0-6.64,0-6.66,6.59-6.66h377.21c7,0,7,0,7,7.23,0,12.15-.23,24.31.12,36.45.14,4.89-1,6.42-6.21,6.41C1842.07,690.33,1778.79,690.4,1715.5,690.4Z"/><path class="cls-2" d="M2614,1062q-114.9,0-229.8.11c-4.82,0-6.21-1.17-6.07-6,.34-12,.1-12,12.3-12h453.11c6.5,0,6.5,0,6.5,6.36,0,11.62,0,11.62-11.73,11.62Z"/><path class="cls-2" d="M2516.19,890.55c0,5.49,0,11,0,16.48,0,9.13,3.78,13,12.89,13.14,2.31.05,4.76-.24,6,2.38,1,2,1.37,4.09-.17,6.05-1.7,2.16-4,2.71-6.65,2.46a259.89,259.89,0,0,0-48.15,0c-3.66.34-6.24-.71-6.89-4.64s1.41-5.82,5.17-6.23c11.72-1.27,14.62-4.09,14.71-16.26.21-29.78.24-59.57-.09-89.35-.06-5.5-.37-11.82-7.24-14.52a16.4,16.4,0,0,0-5.85-.75c-3.82-.08-6.9-.72-6.8-5.72.09-4.82,3.3-5.58,6.73-5.2,14.93,1.67,29.88.62,44.82.91,13.22.26,26.59-1.26,39.48,3,13.28,4.41,24.11,11.33,28.07,26,3.47,12.93-3.68,26.89-13.5,34.53a48.91,48.91,0,0,1-17.54,9c-3.91,1-3.2,2.58-1.79,4.72,7.72,11.72,14.83,23.87,23.61,34.87,5.11,6.4,9.36,13.73,17.65,17a19.29,19.29,0,0,0,6.62,1.77c4.12.1,6.61,2.8,5.74,6.25s-3.4,5.52-7.06,4.41c-4.3-1.3-8.59-.66-12.87-.69-12.25-.05-21.39-5.92-28.92-15-9.86-11.87-17.37-25.32-25.5-38.33-4.88-7.81-11.67-9.5-20-8.71-2.43.23-2.52,1.6-2.51,3.38Q2516.21,881.08,2516.19,890.55Zm0-58.71c0,7.48.11,15-.06,22.43-.06,3,.85,4.11,4,4,7-.19,14,.3,20.93-.16a29.05,29.05,0,0,0,17.67-6.94c9.72-8.57,9.7-19.82,7.7-31.14-1.52-8.63-6.85-14.78-15.14-18.25-7.34-3.08-15-3.72-22.8-3.53-8.29.2-12.18,3.93-12.25,12.14C2516.14,817.55,2516.19,824.7,2516.19,831.84Z"/><path class="cls-2" d="M1774.52,890.72c0,5.83-.06,11.65,0,17.48.08,7.78,4.27,11.94,12,12,2.69,0,5.48-.33,6.8,2.81.87,2.08,1,4.41-.48,6.08-2.06,2.27-4.72,2-7.76,1.61a103.48,103.48,0,0,0-16.43-.45c-10.44.31-20.9-.94-31.34.81-2.8.47-5.54-.62-5.83-4.52-.27-3.65,1.09-5.76,4.69-6.25,1.48-.2,3,0,4.49-.09a10.11,10.11,0,0,0,9.62-7.85,60.56,60.56,0,0,0,1.19-11.31q.15-41.19,0-82.38a62.25,62.25,0,0,0-1.15-11.31c-1-5.31-5-7.87-11.51-8-3.34-.08-6.83.13-7.31-4.66-.44-4.31,1.66-6.32,5.67-6.25s8.22.86,12.34.89c17.82.1,35.64-.1,53.45.09,12.8.14,25,2.94,35.36,10.91,13.53,10.38,17.72,28.21,7.05,43.55-6.62,9.5-16,15.16-26.91,18.33-2.74.8-2.62,1.42-1.29,3.57,9.62,15.62,19.47,31.08,31.45,45,4.64,5.41,10.17,9.4,17.8,9.49,3.08,0,5,1.94,4.94,5.07s-2.38,6.15-5.2,5.56c-8-1.67-16.25.69-24.17-1.93-10.09-3.32-17.31-10.05-23.37-18.4-7.28-10-13.77-20.61-20.05-31.28-4.74-8-10.94-12.54-20.73-11.14-2.6.38-3.41,1.14-3.37,3.63C1774.59,878.07,1774.52,884.4,1774.52,890.72Zm0-60c0,7.64.13,15.29-.07,22.92-.08,3.3.66,4.8,4.36,4.65,6.63-.27,13.31.22,19.93-.16,6.87-.39,13.38-2.4,18.54-7.24,9.34-8.75,9.52-20,7.25-31.26a23.17,23.17,0,0,0-11-15.82c-9.43-5.56-19.75-6.42-30.22-5.19-6.28.74-8.71,4.52-8.74,11.17C1774.49,816.79,1774.52,823.77,1774.52,830.74Z"/><path class="cls-2" d="M769,889.37c0,5.33-.08,10.65,0,16,.15,8.83,2.59,15.33,14,14.83,2.79-.12,4.89,1,5.77,3.72s-.4,4.78-2.54,6.47a4.92,4.92,0,0,1-3.8.72,277.23,277.23,0,0,0-49.65-.05c-3.72.31-6.19-1.75-6.6-5.32s1.94-5.81,5.45-5.47c10.85,1,14.53-5.84,14.46-15.91-.22-30.12-.08-60.24-.09-90.36a19.64,19.64,0,0,0-.12-4.48c-1.79-7.45-5.65-11.14-12.83-10.26-4,.49-7.18-1-6.93-5.59.21-4,3-5.67,6.91-5.33,22.91,2,45.88.08,68.78,1.15,13.42.63,25.93,4.65,35.77,14.85,11.16,11.54,11.19,30.89.15,42.78a53.75,53.75,0,0,1-23.23,14.75c-3.36,1.09-3.37,2.32-1.79,4.8,10.53,16.61,20.67,33.51,34.49,47.71A20.22,20.22,0,0,0,860,920.19c5.14.49,6.82,2.43,5.83,7-.89,4.11-4.2,4.51-7.4,3.57a24.21,24.21,0,0,0-8.89-.56c-15.32,1.21-25.82-6.78-34.53-18-9.16-11.74-16.26-24.88-24.6-37.19a18,18,0,0,0-19.78-6.8c-2.09.68-1.66,2.23-1.67,3.62C768.93,877.72,769,883.55,769,889.37Zm0-58.18c0,8.69.1,15.85-.05,23-.06,2.91.68,4.2,3.88,4.1,7-.2,14,.44,21-.17,12.94-1.13,22.54-6.13,25.89-20.28,2.69-11.36,1.41-21.83-7.09-30.34-9.88-9.9-22.37-10-35.18-8.46-4.55.55-6.49,3.32-7.45,7.39C767.87,815.15,769.61,824,769,831.19Z"/><path class="cls-2" d="M2451.18,857.71c.82,21.66-6.44,39.72-20.69,54.39-13.12,13.52-29.33,21.41-48.83,22.18-23.09.91-41.8-7.59-56.5-24.88-8.61-10.12-13.69-22.2-15.83-35.35a79.18,79.18,0,0,1,5.8-45.55c7.83-17.69,20.7-30.32,38.39-38.19a62,62,0,0,1,25.42-5.72c15.74.1,30.76,4,43.69,13.65,14.22,10.66,23,24.86,27.08,42A57,57,0,0,1,2451.18,857.71Zm-26.88-1.85c.73-3.71-.57-9.1-1.16-14.51a59.68,59.68,0,0,0-2-8.67c-5.94-22.48-21-39.57-45.95-37.34-10.11.9-18.55,5-25.13,13.15-10.36,12.91-13.36,28.24-14.65,43.91s.36,31.13,6.94,45.64c7.34,16.19,19.24,26.23,37.54,26,18-.22,29.71-10.24,37.21-27.2C2422.61,884.43,2424.29,871.16,2424.3,855.86Z"/><path class="cls-2" d="M1472.06,934.18c-12.2.39-24.71-1.55-35.61-9.17-10.2-7.14-15.91-27.43-3.8-37.35,5.43-4.46,14.16-5.72,20-2.45,4.82,2.7,5,4.86.54,8.21-6.09,4.61-5.88,17,0,23.92,5.56,6.52,13.25,7.59,20.74,7.6,9,0,17.48-2.49,24.15-9.61,7.64-8.17,8.68-24.7-3-33.91-10-7.89-22.13-11.88-33.31-17.61-7.65-3.92-15.36-7.58-21.82-13.61-18.18-17-15.33-53.44,15-62.08,17.74-5,35.12-5.13,51.83,3.81,10.48,5.6,15.66,17.72,11.69,28.12-3.5,9.15-14.69,14.37-24.17,10.91a10.17,10.17,0,0,1-4.46-3.77c-1.33-1.8-1.38-3.06.71-3.87,6.08-2.36,9.89-6.45,8.91-13.22-1.12-7.72-6.3-12-13.58-14.17-11.9-3.55-27.78.35-33.29,10.75-3.58,6.75-2.56,17.1,2.56,22.71,6.8,7.46,15.58,11.7,24.5,15.75,11.78,5.33,24.07,10.09,33.74,18.76,15,13.44,19.22,38.17,3.74,54.18C1505.07,930.6,1489.79,934.7,1472.06,934.18Z"/><path class="cls-2" d="M1013.12,934.13c-13.13.32-24.88-1-35.24-8-12.23-8.18-16.28-25-8.7-35.54,5.94-8.21,19.69-9.94,25.33-3.31,1.71,2,1.47,3.39-.32,5.05A18.08,18.08,0,0,0,1001.1,923c9.7,3.12,19.63,3.25,28.82-1.93,15.76-8.89,19.66-27.93,3.1-40.78-7.27-5.64-15.82-9-24.07-12.86-9.18-4.25-18.6-8.13-26.48-14.51-10.38-8.42-14.56-19.29-13.92-33.06,1.12-24.18,23-33.33,40.64-34.7,13-1,25.28.43,36.84,6.72,13,7.06,17.14,22,8.84,33.14-5,6.75-18.67,10.35-24.45,3.3-1.78-2.17-3.71-3.75.88-5.55,4.77-1.86,8-5.48,7.63-11.55-.45-6.67-3.52-11.43-9.41-14-9.95-4.31-20.18-4-29.46,1.45-14.31,8.39-13.95,26.93.79,36.4,12.28,7.91,25.93,13.4,38.92,20.06,10.79,5.54,20.18,12.81,23.92,24.62,7.47,23.59-2.2,40.53-25.32,50.27A52.71,52.71,0,0,1,1013.12,934.13Z"/><path class="cls-2" d="M2770.59,886.21q-12,0-24,0c-1.88,0-3.7,0-4.55,2.15-3.05,7.84-6.61,15.52-7.93,23.9-.92,5.79.52,7.49,6.4,7.87,3.15.21,6.33.08,9.49,0,3.94,0,5.46,2.13,5,5.72-.42,3.38-2.47,5.72-6,5.18-12.26-1.9-24.57-.38-36.84-.9a18.43,18.43,0,0,0-4.88.74,5.47,5.47,0,0,1-6.85-5.32c0-3.42,1.8-5.76,5.56-5.37,8.31.86,12.57-4.14,15.37-10.75,13.1-30.89,26-61.85,39-92.79.2-.46.45-.89.66-1.34,5.27-11.47,4.05-14.05-8.57-17-4-.95-6.22-2.69-5.4-7.12.32-1.74,1.12-2.83,2.88-2.81,7.59.08,15.21-.7,22.68,1.73,11.12,3.61,15.33,13,19.35,22.53,13.92,32.88,26.31,66.38,40.82,99,2.41,5.41,5.93,9,12.53,8.6,4.08-.27,4.78,2.63,4.72,6-.08,4.2-3,5.18-6.08,4.76-14.1-1.9-28.24-.35-42.35-.82-1.6-.05-3.22.6-4.85.85-3.85.58-7-1.56-7.12-5-.16-4,1.64-6.13,5.93-5.87,11.29.68,13.89-3.68,9.8-14.3-2.2-5.71-4.44-11.4-6.56-17.13-.88-2.36-2.61-2.57-4.76-2.55C2786.25,886.25,2778.42,886.21,2770.59,886.21Zm1-65.78c-.75.38-1.18.45-1.28.67q-10.74,25.85-21.47,51.7c-1.07,2.57.58,2.4,2.12,2.4,13.78,0,27.56,0,42.12,0C2785.75,856.56,2778.67,838.53,2771.57,820.43Z"/><path class="cls-2" d="M1953.78,886.21c-7.49,0-15,.13-22.48-.07-3.38-.09-5.41.65-6.59,4.25-2.2,6.74-5.25,13.19-6.9,20.13-1.48,6.22.59,9.13,7,9.61,2.81.2,5.66.08,8.49,0,3.91-.06,5.35,2,5.1,5.68s-2.35,5.78-5.84,5.21c-11.76-1.9-23.56-.39-35.33-.86a24,24,0,0,0-6.38.61c-3.13.74-6.07,0-6.4-4.14-.31-3.83.64-6.91,5.28-6.44,7.59.78,11.76-3.41,14.49-9.62q8-18.15,15.7-36.43,13.24-31.26,26.36-62.58c2.76-6.56,1.26-9.85-5.52-12.08a43.44,43.44,0,0,0-6.68-1.82c-3.65-.58-4-3-3.6-5.86s2.17-3.78,4.92-3.55c5.11.44,10.22-.11,15.39.56,11.86,1.55,18.57,9.11,22.78,19.11,9.24,21.91,17.93,44.06,26.89,66.09,4.79,11.78,9.52,23.6,14.57,35.27,2.7,6.23,6,11.8,14.58,11,4.39-.39,3.9,3.59,3.72,6.55-.21,3.53-2.91,4.46-5.65,4.1-14.42-1.87-28.88-.33-43.31-.79-1.44,0-2.89.79-4.35.83-3.32.1-6.42-.21-6.65-4.71-.2-4.07,1.2-6.43,5.65-6.17a39.74,39.74,0,0,0,4.5,0c6.38-.37,8.31-3.13,7-9.4-1.66-7.67-5.46-14.51-8.17-21.77-.8-2.17-2.26-2.88-4.58-2.84C1969.77,886.29,1961.77,886.21,1953.78,886.21Zm1.34-65.74-1.27.11q-11.1,27-22.23,54.16h44.81C1969.19,856.29,1962.16,838.38,1955.12,820.47Z"/><path class="cls-2" d="M1657.66,789.3q26.73,0,53.46,0c5.19,0,7.17,2,7.42,7.1.45,9.43-.74,18.89.84,28.34.64,3.76-2.1,6.15-6,6.46-4.63.37-8.34-2.47-8.77-6.94a58.23,58.23,0,0,0-3.17-13.95c-2.78-7.84-8.58-11.91-17-12-3.33,0-6.68.25-10-.07-4-.39-5,1.08-5,5,.15,29,.08,57.92.08,86.89,0,5.66,0,11.31,0,17,0,9.07,3.81,12.87,13,13.07,5.89.13,8,2.86,6,7.65-1.16,2.76-3.39,3.4-6.06,3.18a280.37,280.37,0,0,0-49.17.07c-3.68.34-6.13-.93-6.7-4.89s1.48-5.51,4.94-6c12.21-1.67,14.86-4,15-16,.25-34.12.09-68.25.08-102.37,0-1.67.2-3.59-2.35-3.47-6.11.3-12.22-.61-18.36.68-6.93,1.45-10.49,6-12.22,12.24-1.26,4.59-2.09,9.31-3.05,14a7.74,7.74,0,0,1-8.46,5.89c-3.65-.63-5.71-2.68-5.6-6.89.24-8.65,0-17.31.09-26,.06-7.4,1.72-9,9.09-9Z"/><path class="cls-2" d="M2089,789.3q26.47,0,53,0c5.64,0,7.4,1.78,7.41,7.44,0,8.62.09,17.21.9,25.83.54,5.73-1.69,8.33-5.89,8.66-4.87.37-8.41-2.54-8.91-7.88a62.9,62.9,0,0,0-3-13c-2.43-7.77-8.16-12-16.18-12.08-3.66,0-7.35.26-11-.08-4-.36-5,1.14-5,5,.14,33.29.08,66.58.08,99.87v3c0,10,3.61,13.68,13.66,14,2.46.08,4.57.5,5.81,3,1.06,2.11.34,4-.84,5.59a5.94,5.94,0,0,1-5.69,2.32,274.67,274.67,0,0,0-49.17,0c-3.68.34-6.17-.89-6.73-4.84-.59-4.14,1.7-5.71,5.39-6.05,2.28-.22,4.54.17,6.88-.63,7.58-2.61,7.57-9.14,7.61-15.14.2-29.46.09-58.92.09-88.38,0-4.66-.12-9.33,0-14,.1-2.75-.76-3.93-3.66-3.8-5.31.26-10.78-.47-15.92.52-9.12,1.75-14,9.36-15.5,21.7-.49,4.09-.27,8.64-5.79,10.27-5,1.49-9.1-1-9.13-6.26-.06-10.12-.16-20.23.92-30.32.47-4.48,3.41-4.82,6.67-4.83,13.66-.06,27.31,0,41,0Z"/><path class="cls-2" d="M2226.82,789.3h52.46c6.83,0,8.1,1.21,8,8.18-.15,9,1.49,17.84,1.14,26.83-.17,4.47-2.33,6.81-6.19,6.75-3.41-.06-7.12-.68-8-5.58-1.13-6.12-2.09-12.31-4.76-18.11-2.8-6.07-7.92-8.44-13.87-9-5.42-.46-12.36-1.84-16,.8s-1.14,9.94-1.16,15.17c-.14,29.47-.07,58.93-.06,88.4a30.86,30.86,0,0,0,.75,7.37c1.87,7.78,4.16,9.84,12.2,10,5.72.12,7.77,2,7,6.43-.55,3.08-2.54,4.91-5.57,4.48-13.91-2-27.89-.41-41.83-.88a25.7,25.7,0,0,0-8.38.68,5.71,5.71,0,0,1-7-5.24c-.12-3.69,2.1-5.73,5.61-5.4,10.5,1,14.4-5.49,14.35-15.51-.18-33.12,0-66.25-.08-99.38,0-8.05.93-7-7.3-7-4,0-8.07-.37-12,.31-9.77,1.72-12.86,9.34-14.71,17.81-.63,2.89-1.17,5.8-1.87,8.68-1,4.14-4.62,6.77-8.55,6.07-4.33-.77-5.68-3.48-5.69-7.86,0-9.47,1.69-18.84,1.17-28.33-.25-4.58,2.89-5.73,6.94-5.72C2191.17,789.34,2209,789.3,2226.82,789.3Z"/><path class="cls-2" d="M1154.79,855.19q0,25.45,0,50.93c0,10,3.61,13.71,13.65,14,3.68.11,6.45,1.38,6.2,5.37-.23,3.59-2.79,6.1-6.39,5.47-9.61-1.67-19.24-.62-28.84-.72-7.1-.07-14.24-.85-21.35.75-3.46.78-5.77-1.55-6.15-4.94-.4-3.54,1.54-5.61,5.18-5.88,2.14-.16,4.41.12,6.42-.47,5.55-1.62,8.22-5.54,8.24-12.68.1-34.95,0-69.9.1-104.85,0-3.1-1-4.13-4-3.94-3.32.2-6.66,0-10,0-11.13,0-17.62,5.28-19.92,16.21-.71,3.38-1.36,6.78-2,10.17-.81,4.16-4.27,7.07-8.16,6.53-4.28-.6-5.94-3.06-6-7.57-.16-9.8.81-19.54,1.07-29.31.11-4.18,2.83-4.9,6-5,5.66-.13,11.33,0,17,0h89.92c6.88,0,8.33,1.22,8,8.1-.41,9,1,17.87,1.14,26.82.09,4.2-1.94,6.19-5.57,6.93a7.53,7.53,0,0,1-8.55-5.47c-1.29-5.11-2.34-10.28-3.87-15.32-2.36-7.79-8.14-12-16.17-12.07-3.83,0-7.67.21-11.48-.07-3.56-.26-4.51,1.08-4.48,4.53C1154.87,820.24,1154.79,837.71,1154.79,855.19Z"/><path class="cls-2" d="M1290,856.78c2.23-.77,2.77-2.65,3.57-4.24q10.83-21.57,21.58-43.19c3.9-7.84,2.5-10.05-6.24-10.06-7,0-9.26-1.38-9.1-5.58.14-4,4.1-6.13,10-5.36a138.72,138.72,0,0,0,35.67,0c6.77-.89,9.06.62,9.26,5.53.14,3.47-1.81,5.43-4.6,5.23-14.7-1.06-21,8.72-26.71,19.73q-12.42,24.07-25,48a23.15,23.15,0,0,0-2.74,11.43c.17,9.65,0,19.3.06,29,0,8.9,3.85,12.81,12.57,12.91,2.3,0,5-.41,6.14,2.12,1,2.07,1.25,4.69-.28,6.61-1.8,2.25-4.25,2-7.16,1.68a135.8,135.8,0,0,0-18.93-.37c-9.78.29-19.57-.92-29.34.81-2.79.49-5.62-.44-6-4.31s1.06-6.08,5-6.5c1.32-.14,2.66,0,4-.05,5.1-.2,8.95-2.81,9.7-7.66a137.34,137.34,0,0,0,.56-38.1c-.5-4-2.51-7.56-4.25-11-8.29-16.61-16.06-33.49-25.2-49.68-4.85-8.59-12.22-13.82-21.92-15.25-4-.59-5.76-2.63-5.52-6.09s2.93-4.09,6.18-4.1c10.84,0,21.5.67,31.13,6.36,7.11,4.19,11.74,10.64,15.39,17.78C1275.27,827.13,1282.61,842,1290,856.78Z"/><path class="cls-2" d="M899.9,859.25q0-23,0-45.92c0-9.93-3.66-13.74-13.6-14-3.67-.1-6.24-1.34-6.33-5.33-.1-4.25,2.52-6.09,6.42-5.65,10.93,1.24,21.88.68,32.82,1,5.69.19,11.2-1.08,16.84-1.11,3.81,0,6.63,1,6.79,5.38.18,4.55-3.14,5.27-6.6,5.61-2.45.24-5-.36-7.31,1-4.39,2.49-6,6.53-6,11.19q-.1,48.16,0,96.33c0,8.27,4.35,12.28,12.76,12.38,2.76,0,5.44.08,6.69,3.11a5,5,0,0,1-.66,5.58c-2,2.36-4.18,2.38-7.11,1.85a56.34,56.34,0,0,0-11.91-.49c-12.27.41-24.57-1-36.82.86-3.49.54-5.54-1.47-6-5.1s1.49-5.26,4.69-5.7c2.29-.32,4.74.11,6.92-.49,5.78-1.6,8.34-5.87,8.37-13.6C899.94,890.53,899.9,874.89,899.9,859.25Z"/><path class="cls-2" d="M2635.66,788.36c11.26,1.94,23.58.66,35.86.88,4.11.07,8.23-.6,12.35-.94,3.84-.32,5.71,2.21,6,5.3s-2.16,5-5.24,5.61a17.61,17.61,0,0,1-3,.08c-7.53.13-11,3.74-11.54,11.19-2.14,30.24-.61,60.5-.71,90.75,0,4.89-.75,10.63,3.31,15.12,3,3.34,6.59,4.24,10.76,3.82s6.3,1.74,6.5,5.63c.17,3.13-3.62,6.06-7.14,5.23-6.77-1.6-13.59-.86-20.35-.78-9.78.12-19.58-1-29.36.77-2.79.49-5.6-.47-6-4.34-.42-4.21,1.4-6.51,5.49-6.43,4.36.09,8.16-.5,11.16-4.13s3.24-7.69,3.27-11.68c.19-29.8.27-59.6-.05-89.39-.06-5.69-.2-12.2-7.28-15a13.37,13.37,0,0,0-4.85-.76c-6.34-.11-7.7-1.2-7.73-5.75C2627.08,788,2630.87,788.18,2635.66,788.36Z"/><path class="cls-2" d="M1677.1,581.71l31.92,11.2c-6.65-24.2-8.42-47,8-68.18,1.42,4.51,2.38,8.76,4.08,12.69,4.3,10,10.5,18.69,17.63,26.86,7.7,8.82,16,17.47,17.19,30,.85,8.58-2.1,16.16-6.93,23.1-1,1.46-2.68,1.1-4.14,1.11-16.49,0-33-.08-49.48,0-6.5,0-8.94-5.2-12.1-9.12C1677.71,602.56,1675.56,591.5,1677.1,581.71Z"/><path class="cls-2" d="M1660.57,330c0-6.83.09-13.66,0-20.48-.06-2.78.84-3.79,3.7-3.77q20.73.17,41.47,0c2.64,0,3.93.56,3.9,3.56-.12,14-.09,28,0,42,0,2.54-.8,3.52-3.44,3.51q-21-.13-42,0c-2.93,0-3.7-1.11-3.65-3.83C1660.66,344,1660.57,337,1660.57,330Z"/><path class="cls-2" d="M1771.52,268.65c0,6.83-.11,13.65,0,20.48.07,2.83-.94,3.74-3.75,3.72-13.82-.11-27.65-.14-41.47,0-3.23,0-3.87-1.26-3.85-4.13.11-13.65.13-27.31,0-41,0-3.07,1-4,4-4,13.66.14,27.32.16,41,0,3.44,0,4.19,1.28,4.1,4.4C1771.39,255,1771.52,261.83,1771.52,268.65Z"/><path class="cls-2" d="M1684.71,292.8c-6.83,0-13.66-.11-20.49.05-2.86.06-3.72-1-3.7-3.77.1-13.82.13-27.64,0-41.45,0-3.26,1.32-3.85,4.17-3.82,13.65.1,27.31.12,41,0,3.11,0,4,1,4,4-.13,13.65-.16,27.3,0,40.95.05,3.47-1.32,4.17-4.41,4.09C1698.37,292.68,1691.54,292.8,1684.71,292.8Z"/><path class="cls-2" d="M1747,354.74c-6.83,0-13.66-.07-20.49,0-2.54,0-4-.38-4-3.48q.18-21,0-42c0-3,1.21-3.61,3.88-3.59q20.73.13,41.47,0c2.83,0,3.74.95,3.72,3.75-.1,13.82-.13,27.63,0,41.45,0,3.23-1.27,3.91-4.14,3.85C1760.61,354.64,1753.78,354.74,1747,354.74Z"/><path class="cls-2" d="M1920.71,1052c8.3,6.1,10.6,13,7.53,22.27-2,6.18-9.9,10.69-18.65,10.69H1863.8c4-2.21,3.7-4.82,3.7-7.45,0-16,0-31.9,0-47.86,0-2.21.81-4.86-2.8-5.15.92-2,2.24-1.45,3.27-1.45,14.3,0,28.6-.16,42.9,0,12,.14,19.51,10.92,15.81,21.95C1925.54,1048.31,1922.62,1049.66,1920.71,1052Zm-24.75,5c-4.65,0-9.31.08-14,0-2.49-.06-3.66.67-3.57,3.37.16,4.48.12,9,0,13.46-.06,2.35.85,3.31,3.2,3.19,9.59-.48,19.22.93,28.78-1,6.48-1.26,8.5-3.93,8-11.26-.33-5-3.18-7.56-9-7.75C1904.94,1056.92,1900.45,1057,1896,1057Zm-.84-9c4.71-.48,10.36.81,15.92-.91,4.59-1.42,5.88-3.51,5.43-9.46-.31-4.06-3.14-5-6.4-5.61-6.38-1.24-12.84-1-19.28-1-12.53,0-12.42,0-12.39,12.46,0,3.33.75,4.86,4.4,4.59S1890.43,1048,1895.12,1048Z"/><path class="cls-2" d="M1529.32,1023.09c15.78,0,31.6-.49,47.35.22,7.46.34,14,6,14.17,15.5.19,11.5-5.22,17.15-16.31,19.35,6.94,8.61,10.5,18.85,19.09,26.35h-18.06c3-1.6,1.87-3.35.78-5.1-3.56-5.76-7.16-11.5-10.67-17.29-.71-1.17-1.5-2.7-2.7-2.74-6.63-.23-13.28-.23-19.92-.14-1.58,0-1.4,1.63-1.41,2.75,0,5.82.09,11.64-.07,17.46-.06,2.2,1.55,3.1,3.14,5h-15.9c3.28-3.33,2.85-7.42,2.83-11.48q-.08-20.21,0-40.41c0-3.16.24-6.32-3.07-8.5Zm26.56,27c6-.06,11.92.22,17.84-1,4.4-.9,6.89-3.87,6.86-9,0-4.46-2.38-7.29-6.69-8-9.71-1.5-19.52-1.08-29.31-1.09-1.68,0-3,.32-2.93,2.41.21,5.29-2,11.55.89,15.55,2.18,3.08,8.43.62,12.84,1Z"/><path class="cls-2" d="M1656.81,1084.94v-61.87c12.08,0,24.83,0,37.57,0a30.66,30.66,0,0,1,7.85.94c16.61,4.22,24.15,20.75,21.8,35.26-2,12.33-7.72,21.26-20.13,25a7.2,7.2,0,0,1-1.87.62C1686.75,1085,1671.46,1084.94,1656.81,1084.94Zm11.75-31.2c0,6.48.09,13,0,19.45,0,2.67.61,4,3.59,3.86,9.1-.34,18.28.79,27.29-1.1,5.55-1.17,9.92-3.92,12.27-9.62s2.27-11.75,1.71-17.63a19.18,19.18,0,0,0-15.86-16.66c-8.26-1.14-16.54-.82-24.81-1-3.34-.09-4.32,1.07-4.21,4.3C1668.71,1041.43,1668.56,1047.59,1668.56,1053.74Z"/><path class="cls-2" d="M1568.36,573.71c-10.55-2.75-21.4-.31-32.12-1.91-4.68-.7-5-2.54-4.6-5.95,1.37-11.08,2.49-22.22,5.83-33,1-3.25.54-8.23,3.44-9.26,2.54-.91,6.39,1.65,9.6,2.82,9,3.28,17.91,6.73,26.94,9.89,2.32.82,3,1.41,2.41,4.14-2,9.48-4.61,18.88-4.33,28.75C1575.67,574.36,1571.69,573.59,1568.36,573.71Z"/><path class="cls-2" d="M1607.36,488c-.37.46-.87,1.09-1.39,1.71a94.88,94.88,0,0,0-14.71,22.8c-1.7,3.79-3.58,4.23-7.16,2.87-10.78-4.11-21.67-8-32.53-11.89-2.19-.8-3.19-1.69-1.88-4.3a204.71,204.71,0,0,1,24.5-37.69c2-2.43,3.31-2.55,5.75-.19,8.43,8.18,17.18,16,25.79,24C1606.44,486,1607.35,486.56,1607.36,488Z"/><path class="cls-2" d="M1877.18,572.42a83,83,0,0,0-15.82,1.07c-2.55.42-3.67-.43-4-3.42-1-9.46-1.69-19-4.68-28.18-1.08-3.3-.32-5.21,3.42-6.46,10.63-3.58,21.13-7.58,31.63-11.53,2.85-1.07,4.23-.81,5.25,2.52,3.89,12.65,5.81,25.66,7.42,38.72.77,6.24.45,6.23-5.89,6.42C1888.73,571.73,1883,573.33,1877.18,572.42Z"/><path class="cls-2" d="M1883.19,501.18c0,1.56-1.38,1.79-2.35,2.14-11.32,4.14-22.72,8.09-34,12.37-2.82,1.07-3.83.09-4.93-2.18a109,109,0,0,0-14.79-22.83c-2.11-2.51-2.53-4.54.55-6.83,9.22-6.83,16.33-16,25.17-23.29,3.24-2.67,4.14-.05,5.35,1.4a172.42,172.42,0,0,1,17.75,25.61c2.11,3.75,4.14,7.55,6.19,11.33C1882.53,499.63,1882.83,500.41,1883.19,501.18Z"/><path class="cls-2" d="M1650.42,450.49c.21,2.28-1.31,2.79-2.59,3.55a176.52,176.52,0,0,0-23.15,16c-1.33,1.13-1.94.9-3.27,0-3.71-2.59-6.68-5.93-9.92-9-5.41-5.13-10.82-10.27-16.34-15.28-1.93-1.76-2.53-2.94-.23-5,11.21-10.19,23.77-18.33,37.16-25.31,2.3-1.2,3.33-.37,4.18,1.63q6.71,16,13.45,31.95C1650,449.62,1650.28,450.2,1650.42,450.49Z"/><path class="cls-2" d="M1839.8,443.81c-1.58,1.23-3,2.38-4.47,3.48-8.65,6.49-15.3,15.15-23.74,21.9-2.08,1.66-2.92,2-5.1.09a114.43,114.43,0,0,0-22-15.11c-2.75-1.41-3.57-3-2.26-5.93,4.5-10.12,8.84-20.3,13.25-30.46.91-2.08,1.67-3.88,4.71-2.28,13.22,6.95,25.7,14.94,36.72,25.09C1837.73,441.36,1838.42,442.27,1839.8,443.81Z"/><path class="cls-2" d="M1705.55,416.44c0,5.32-.26,10.66.08,16,.24,3.57-1.58,5-4.46,5.1-9.33.39-18.22,2.88-27.06,5.5-2.7.81-3.27-.65-4-2.31-4.45-10.13-8.77-20.32-13.29-30.42-1.6-3.56-.72-5.19,3.05-6.31,11.88-3.51,23.84-6.44,36.25-7.31,9.42-.66,9.42-.78,9.42,8.82Z"/><path class="cls-2" d="M1730,395.67c15.42,1.75,30,4,44.11,9,2,.72,2.51,1.59,1.59,3.68q-7.25,16.54-14.21,33.23c-1.06,2.55-2.87,1.34-4.13,1a132,132,0,0,0-19.74-4.37c-.32-.05-.61-.29-.93-.36-9.14-1.82-9.14-1.81-9.14-11s0-18.28,0-27.42C1727.52,397.25,1727.54,395.19,1730,395.67Z"/><path class="cls-2" d="M1949.05,1023.34h16.73c-3.67,2.66-3.39,5.89-3.37,9.12.06,10,0,20,0,30,0,8.64,3.78,12.22,12.36,13.77a47.84,47.84,0,0,0,15.71-.18c7.31-1.07,11.71-5.56,11.85-12.89.2-11.32-.06-22.64.14-33.95,0-2.46-1.68-3.65-3.22-5.78h16.23c-3.54,2.92-3.15,6.46-3.13,10,.08,10.48,0,21,0,31.45,0,10.93-4.56,16.76-15.35,19.36-12,2.9-23.86,3.27-35.41-2.06-6.14-2.84-8.39-8.08-9.2-14.25-1.63-12.4-.88-24.86-1-37.3C1951.43,1028.14,1951.7,1025.69,1949.05,1023.34Z"/><path class="cls-2" d="M2138.9,1023.56a24,24,0,0,1,2.73-.46c4.33,0,8.85-.82,12.93.19,4.41,1.09,2.73,6.47,4.5,9.75,7.24,13.4,13.58,27.28,20.29,41,1.78,3.64,3.17,7.54,7.73,10.6h-17c2.79-6.07-3-9.84-4.27-14.92-.27-1.1-2.08-.65-3.2-.65-8.82,0-17.64,0-26.46,0-2.23,0-3.63.38-4.33,2.87-1.1,3.92-4.8,7.11-3,11.83.43,1.13-.75,1.27-1.55,1.27-4.1,0-8.21,0-12.91,0,7-9.38,9.83-20,14.68-29.62,4-8,7.22-16.31,10.9-24.43C2141.1,1028.45,2142.47,1026.15,2138.9,1023.56Zm-1.22,36.46c7,0,13.49,0,20,0,1.27,0,3.13.12,2.06-2.08-3.63-7.46-6.39-15.36-11.42-23.07C2144.69,1043.64,2140.49,1051.28,2137.68,1060Z"/><path class="cls-2" d="M1122.73,1023.22h18.34c-1.56,2.69-.75,5,.52,7.52,7.19,14.37,14.12,28.88,21.24,43.29,1.78,3.61,2.87,7.71,6.44,10.6h-15.61c1-3.5-1.57-12.77-4.23-15-1-.85-2.2-.6-3.32-.6-8.49,0-17,.11-25.46-.09-3-.07-5,1-5.62,3.69-.83,3.65-4.58,6.52-2.78,10.91.6,1.47-.93,1.42-1.85,1.43-4,0-7.93,0-11.85,0,9.16-16.31,15.22-33.7,23.19-50.19.79-1.64,1.31-3.41,2.18-5C1125.16,1027.57,1125.83,1025.45,1122.73,1023.22ZM1120.9,1060c7,0,13.27-.11,19.54,0,3,.08,3.57-.95,2.37-3.45-3.41-7.07-6.84-14.14-10.77-22.28C1128.08,1043.48,1124.62,1051.44,1120.9,1060Z"/><path class="cls-2" d="M2073.35,1086.16c-14.69-.23-25-3.11-33-11.68-12.41-13.33-11.43-36.94,7.26-47.06,14.9-8.08,29.93-6.6,45-.67,1.07.42,2.31,1.38,3.2,1.13,6-1.68,3.85,1.51,2.5,4.09-1.46,2.79-3.06,5.5-4.62,8.23-.38.67-.56,1.71-1.63,1.54-.91-.14-1.26-.8-1.26-1.79,0-2.56-1.9-3.59-3.87-4.63a37.27,37.27,0,0,0-27.47-3.13c-8.39,2.13-13.87,7.51-16.09,15.89-2.69,10.16,1.71,17.8,9.5,23.63,10.51,7.86,26.62,7.06,36.51-1.34a4.43,4.43,0,0,0,1.94-3.82c-.08-1.19,0-2.66,1.31-2.91s2,1.08,2.68,2c2,2.62,4,5.27,5.78,8.05,1,1.51,1.46,3.41-1.57,3-1.93-.28-3,1-4.35,1.9C2087.6,1083.62,2079.27,1086.43,2073.35,1086.16Z"/><path class="cls-2" d="M1401.7,794.61c.8,14.81-9.06,21.84-20,28.13-4,2.34-8.6,3.35-12.91,5-2.52,1-4-.19-4.77-2.11s-.71-4.08,1.8-5.48c4.45-2.48,9.53-3.84,13.21-7.72,8.35-8.8,6.92-15.32-1.79-21.83-2-1.48-4.2-2.66-6-4.31-4-3.59-4.67-8.08-2.24-12.53,2.17-4,8.4-6.66,12.66-6C1394,769.67,1403,783.77,1401.7,794.61Z"/><path class="cls-2" d="M1179.05,1034.05v-14.59c4.78,4.88,10.66,3.55,16.26,3.59,11.65.07,23.3,0,35,.05,3.88,0,7.5-.3,10.57-4.39,1.49,5,1,9.28.63,13.46-.12,1.39-1.08,1.84-2.88.82-6.62-3.79-14-1.33-21-1.82-1.86-.13-1.83,1.57-1.83,2.91,0,15.31,0,30.61-.09,45.92,0,1.8,1.44,2.83,1.63,4.73h-15.88c3.63-2.65,3.36-5.87,3.35-9.1,0-13.31-.16-26.62.06-39.92.07-3.8-1.11-5-4.81-4.71a83.81,83.81,0,0,1-11,0A15,15,0,0,0,1179.05,1034.05Z"/><path class="cls-2" d="M2234.46,1084.74h-16.55c3.77-2.67,3.44-5.91,3.43-9.14-.05-13.15-.2-26.3.08-39.45.09-4.3-1.34-5.51-5.39-5.16a91.39,91.39,0,0,1-11,0,12.41,12.41,0,0,0-9.09,3c-1.2-4.87-.38-9.43-.63-14.74,3.47,3.65,7.36,3.87,11.46,3.83,13.66-.12,27.31-.07,41,0,3.39,0,6.51-.44,9.2-3.93v14.44c-7.46-4.36-15.52-1.94-23.28-2.5-2.13-.15-2.36,1.33-2.36,3,0,15.15,0,30.3-.05,45.44C2231.25,1081.71,2232.94,1082.53,2234.46,1084.74Z"/><path class="cls-2" d="M1878.47,618.47c-5.66,0-11.32-.12-17,0-2.93.09-4.21-.72-4.08-3.89.22-5.31.09-10.63,0-16,0-1.91.37-3.12,2.69-3.21,5.44-.2,10.83-1.5,16.32-1,6.82.67,13.52-1,20.31-1.06,2.83,0,3.79.94,3.72,3.74-.16,5.81-.2,11.64,0,17.45.12,3.18-1.17,4-4.09,3.88C1890.44,618.36,1884.45,618.47,1878.47,618.47Z"/><path class="cls-2" d="M1553,618.47c-6,0-12-.09-18,0-2.61.06-3.51-.91-3.45-3.49.12-6,.16-12,0-17.94-.09-3,1.13-4,3.83-3.57,12,1.82,24.12.56,36.14,1.92,2.39.27,3.13,1.11,3.09,3.36-.09,5.32-.14,10.64,0,16,.08,2.76-.82,3.85-3.69,3.77C1565,618.36,1559,618.47,1553,618.47Z"/><path class="cls-2" d="M1410.14,1023.36h15.7c-3.52,2.77-3.21,6.15-3.19,9.52q.07,21.93,0,43.85c0,2.81-.23,5.6,3.92,7.65-6.38,1-11.34.56-16.56.53C1412.29,1080.18,1412.3,1028,1410.14,1023.36Z"/></g></g></svg>