<svg xmlns="http://www.w3.org/2000/svg" viewBox="0 0 1506.08 53.13"><defs><style>.cls-1{fill:#1d130a;}</style></defs><g id="Layer_2" data-name="Layer 2"><g id="Layer_1-2" data-name="Layer 1"><g id="Layer_2-2" data-name="Layer 2"><g id="Layer_1-2-2" data-name="Layer 1-2"><path class="cls-1" d="M376.4,1.59c0,.42.08.84.08,1.26v27a10.91,10.91,0,0,1-.07,1.51l-2.39.9c-4.8,1.85-9.11,4.78-13.35,7.89-3.62,2.64-7.25,5.29-11,7.7A29.56,29.56,0,0,1,339.21,52a22.4,22.4,0,0,1-13.38-1.71,50.85,50.85,0,0,1-11-6.9c-2.89-2.28-5.76-4.6-8.71-6.78a36.42,36.42,0,0,0-9.05-4.91,23.76,23.76,0,0,0-17.68.51,63.92,63.92,0,0,0-13.54,7.9c-3,2.19-5.93,4.52-9,6.57a58.67,58.67,0,0,1-7.72,4.37,18.62,18.62,0,0,1-15.91,0c-4.58-2-8.69-5-12.77-8-3.43-2.55-6.83-5.14-10.34-7.53a30.19,30.19,0,0,0-10.5-4.6,23.79,23.79,0,0,0-14.78,1.63,58.85,58.85,0,0,0-11.39,6.8C170,42,166.51,44.59,163,47a34,34,0,0,1-10,4.64,22.88,22.88,0,0,1-16.83-2,56,56,0,0,1-9.53-6.24c-2.84-2.26-5.67-4.53-8.58-6.69a37.36,37.36,0,0,0-9-4.93,23.66,23.66,0,0,0-17.68.44,63.56,63.56,0,0,0-13.68,8c-3,2.16-5.85,4.45-8.88,6.47A60.49,60.49,0,0,1,61.17,51a18.74,18.74,0,0,1-16.34,0,63.64,63.64,0,0,1-12.62-8c-4-3-7.84-6.22-12.15-8.6a31.59,31.59,0,0,0-9.33-3.58,23.22,23.22,0,0,0-9.5.23c-.41.09-.82.15-1.23.22V1.59Z"/><path class="cls-1" d="M753,1.59c0,.42.07.84.07,1.26v27a10.91,10.91,0,0,1-.07,1.51l-2.38.9c-4.8,1.85-9.11,4.78-13.36,7.89-3.61,2.64-7.24,5.29-11,7.7A29.31,29.31,0,0,1,715.76,52a22.43,22.43,0,0,1-13.39-1.71,50.85,50.85,0,0,1-11-6.9c-2.89-2.28-5.76-4.6-8.71-6.78a36.25,36.25,0,0,0-9-4.91,23.76,23.76,0,0,0-17.68.51,63.5,63.5,0,0,0-13.54,7.9c-3,2.19-5.94,4.52-9,6.57a58.67,58.67,0,0,1-7.72,4.37,18.62,18.62,0,0,1-15.91,0c-4.58-2-8.69-5-12.78-8-3.42-2.55-6.83-5.14-10.33-7.53A30.43,30.43,0,0,0,576.15,31a23.71,23.71,0,0,0-14.78,1.63A58.49,58.49,0,0,0,550,39.45c-3.48,2.55-7,5.14-10.51,7.56a34,34,0,0,1-10,4.64,22.9,22.9,0,0,1-16.84-2,55.56,55.56,0,0,1-9.52-6.24c-2.85-2.26-5.68-4.53-8.58-6.69a37.36,37.36,0,0,0-9-4.93,23.69,23.69,0,0,0-17.69.44,63.49,63.49,0,0,0-13.67,8c-3,2.16-5.85,4.45-8.88,6.47a61.43,61.43,0,0,1-7.57,4.3,18.74,18.74,0,0,1-16.34,0,63.64,63.64,0,0,1-12.62-8c-4-3-7.84-6.22-12.15-8.6a31.59,31.59,0,0,0-9.33-3.58,23.22,23.22,0,0,0-9.5.23c-.41.09-.82.15-1.24.22V1.59Z"/><path class="cls-1" d="M1129.43,1.76c0,.42.08.84.08,1.26V30a10.91,10.91,0,0,1-.07,1.51l-2.39.9c-4.8,1.85-9.11,4.78-13.35,7.89-3.62,2.64-7.25,5.29-11,7.7a29.38,29.38,0,0,1-10.46,4.19,22.4,22.4,0,0,1-13.38-1.71,50.85,50.85,0,0,1-11-6.9c-2.89-2.28-5.76-4.6-8.71-6.78a36.24,36.24,0,0,0-9.05-4.91,23.76,23.76,0,0,0-17.68.51,63.75,63.75,0,0,0-13.42,8c-3,2.19-5.94,4.52-9,6.57a58.67,58.67,0,0,1-7.72,4.37,18.6,18.6,0,0,1-15.9,0c-4.59-2-8.7-5-12.78-8-3.42-2.56-6.83-5.15-10.34-7.53a30.14,30.14,0,0,0-10.49-4.6A23.81,23.81,0,0,0,938,32.79,59.33,59.33,0,0,0,926.6,39.6c-3.49,2.55-7,5.14-10.51,7.56a34,34,0,0,1-10,4.64,22.88,22.88,0,0,1-16.83-2,55.7,55.7,0,0,1-9.53-6.25c-2.84-2.25-5.67-4.52-8.57-6.68A36.64,36.64,0,0,0,862,32a23.66,23.66,0,0,0-17.68.44,63.15,63.15,0,0,0-13.68,8c-3,2.16-5.85,4.45-8.88,6.47a61.57,61.57,0,0,1-7.57,4.32,18.74,18.74,0,0,1-16.34.05,63.57,63.57,0,0,1-12.61-8c-4-3-7.85-6.22-12.16-8.6a31.53,31.53,0,0,0-9.32-3.58,23.27,23.27,0,0,0-9.51.23c-.41.09-.82.15-1.23.22V1.76Z"/><path class="cls-1" d="M1506,1.76c0,.42.08.84.08,1.26V30a9.56,9.56,0,0,1-.08,1.51l-2.38.9c-4.8,1.85-9.11,4.78-13.36,7.89-3.61,2.64-7.24,5.29-11,7.7a29.38,29.38,0,0,1-10.46,4.19,22.4,22.4,0,0,1-13.38-1.71,50.85,50.85,0,0,1-11-6.9c-2.89-2.28-5.76-4.6-8.71-6.78a35.93,35.93,0,0,0-9-4.91,23.76,23.76,0,0,0-17.68.51,63.92,63.92,0,0,0-13.54,7.9c-3,2.19-5.93,4.52-9,6.57a58.67,58.67,0,0,1-7.72,4.37,18.62,18.62,0,0,1-15.91,0c-4.58-2-8.69-5-12.78-8-3.42-2.56-6.82-5.15-10.33-7.53a30.19,30.19,0,0,0-10.5-4.6,23.78,23.78,0,0,0-14.78,1.62A59.3,59.3,0,0,0,1303,39.56c-3.48,2.55-7,5.14-10.51,7.56a34,34,0,0,1-10,4.64,23,23,0,0,1-16.84-2,55.62,55.62,0,0,1-9.52-6.25c-2.85-2.25-5.68-4.52-8.58-6.68a37.36,37.36,0,0,0-9-4.93,23.66,23.66,0,0,0-17.68.44,63.15,63.15,0,0,0-13.68,8c-3,2.16-5.85,4.45-8.88,6.47a61.57,61.57,0,0,1-7.57,4.32,18.74,18.74,0,0,1-16.34,0,63.64,63.64,0,0,1-12.62-8c-4-3-7.84-6.22-12.15-8.6A31.59,31.59,0,0,0,1140.3,31a23.22,23.22,0,0,0-9.5.23c-.41.09-.82.15-1.23.22V1.76Z"/><rect class="cls-1" x="0.01" width="1505.96" height="29"/></g></g></g></g></svg>